<svg width="761" height="772" viewBox="0 0 761 772" fill="none" xmlns="http://www.w3.org/2000/svg">
<path d="M223.041 58.4829C228.416 58.4829 233.787 58.4829 239.162 58.4829C236.967 46.8681 234.772 35.2533 232.577 23.6384C229.397 35.2583 226.216 46.8732 223.041 58.4829Z" fill="#232996"/>
<path d="M223.041 58.4805C228.416 58.4805 233.787 58.4805 239.162 58.4805C236.967 70.0953 234.772 81.7101 232.577 93.325C229.397 81.7101 226.216 70.0953 223.041 58.4805Z" fill="#232996"/>
<path d="M232.452 50.4211C232.452 55.7967 232.452 61.1672 232.452 66.5427C241.165 64.3478 249.874 62.1528 258.582 59.9579C249.869 56.7773 241.16 53.6018 232.452 50.4211Z" fill="#232996"/>
<path d="M232.464 50.4211C232.464 55.7967 232.464 61.1672 232.464 66.5427C223.755 64.3478 215.042 62.1528 206.333 59.9579C215.042 56.7773 223.75 53.6018 232.464 50.4211Z" fill="#232996"/>
<path d="M284.245 113.9C287.893 113.9 291.541 113.9 295.184 113.9C293.696 106.02 292.207 98.1343 290.713 90.2539C288.559 98.1394 286.4 106.02 284.245 113.9Z" fill="#232996"/>
<path d="M284.245 113.902C287.893 113.902 291.541 113.902 295.184 113.902C293.696 121.782 292.207 129.662 290.713 137.548C288.559 129.668 286.4 121.782 284.245 113.902Z" fill="#232996"/>
<path d="M290.645 108.423C290.645 112.071 290.645 115.719 290.645 119.362C296.559 117.874 302.468 116.385 308.377 114.891C302.468 112.742 296.559 110.583 290.645 108.423Z" fill="#232996"/>
<path d="M290.637 108.423C290.637 112.071 290.637 115.719 290.637 119.362C284.728 117.874 278.814 116.385 272.905 114.891C278.819 112.742 284.728 110.583 290.637 108.423Z" fill="#232996"/>
<path d="M506.843 23.6463C510.491 23.6463 514.139 23.6463 517.782 23.6463C516.294 15.7659 514.8 7.88041 513.311 0C511.157 7.88041 508.998 15.7608 506.843 23.6463Z" fill="#232996"/>
<path d="M506.843 23.6477C510.491 23.6477 514.139 23.6477 517.782 23.6477C516.294 31.5281 514.8 39.4136 513.311 47.294C511.157 39.4085 508.998 31.5281 506.843 23.6477Z" fill="#232996"/>
<path d="M513.235 18.1714C513.235 21.8194 513.235 25.4675 513.235 29.1105C519.149 27.6218 525.058 26.1331 530.967 24.6393C525.058 22.485 519.144 20.3308 513.235 18.1714Z" fill="#232996"/>
<path d="M513.227 18.1714C513.227 21.8194 513.227 25.4675 513.227 29.1105C507.318 27.6218 501.404 26.1331 495.495 24.6393C501.404 22.485 507.313 20.3308 513.227 18.1714Z" fill="#232996"/>
<path d="M483.638 111.685C486.224 111.685 488.815 111.685 491.401 111.685C490.345 106.096 489.288 100.502 488.231 94.9082C486.696 100.502 485.167 106.096 483.638 111.685Z" fill="#232996"/>
<path d="M483.638 111.689C486.224 111.689 488.815 111.689 491.401 111.689C490.345 117.283 489.288 122.872 488.231 128.466C486.696 122.872 485.167 117.283 483.638 111.689Z" fill="#232996"/>
<path d="M488.148 107.8C488.148 110.386 488.148 112.972 488.148 115.563C492.34 114.507 496.537 113.45 500.728 112.393C496.532 110.864 492.34 109.334 488.148 107.8Z" fill="#232996"/>
<path d="M488.149 107.8C488.149 110.386 488.149 112.972 488.149 115.563C483.958 114.507 479.761 113.45 475.569 112.393C479.761 110.864 483.953 109.334 488.149 107.8Z" fill="#232996"/>
<path d="M640.826 128.562C644.723 128.562 648.62 128.562 652.517 128.562C650.927 120.138 649.331 111.719 647.741 103.295C645.434 111.719 643.128 120.143 640.826 128.562Z" fill="#232996"/>
<path d="M640.826 128.559C644.723 128.559 648.62 128.559 652.517 128.559C650.927 136.983 649.331 145.402 647.741 153.826C645.434 145.407 643.128 136.983 640.826 128.559Z" fill="#232996"/>
<path d="M647.617 122.715C647.617 126.612 647.617 130.509 647.617 134.406C653.933 132.816 660.248 131.221 666.569 129.63C660.248 127.324 653.933 125.022 647.617 122.715Z" fill="#232996"/>
<path d="M647.638 122.715C647.638 126.612 647.638 130.509 647.638 134.406C641.323 132.816 635.002 131.221 628.687 129.63C635.002 127.324 641.318 125.022 647.638 122.715Z" fill="#232996"/>
<path d="M691.118 197.138C693.943 197.138 696.768 197.138 699.593 197.138C698.44 191.03 697.287 184.928 696.133 178.821C694.457 184.928 692.79 191.03 691.118 197.138Z" fill="#232996"/>
<path d="M691.118 197.141C693.943 197.141 696.768 197.141 699.593 197.141C698.44 203.248 697.287 209.35 696.133 215.457C694.457 209.355 692.79 203.248 691.118 197.141Z" fill="#232996"/>
<path d="M696.055 192.903C696.055 195.728 696.055 198.553 696.055 201.378C700.633 200.225 705.216 199.071 709.793 197.913C705.216 196.247 700.638 194.575 696.055 192.903Z" fill="#232996"/>
<path d="M696.055 192.903C696.055 195.728 696.055 198.553 696.055 201.378C691.477 200.225 686.899 199.071 682.317 197.913C686.899 196.247 691.477 194.575 696.055 192.903Z" fill="#232996"/>
<path d="M107.284 147.442C110.932 147.442 114.581 147.442 118.224 147.442C116.735 139.562 115.246 131.677 113.752 123.796C111.598 131.682 109.444 139.562 107.284 147.442Z" fill="#232996"/>
<path d="M107.284 147.444C110.932 147.444 114.581 147.444 118.224 147.444C116.735 155.324 115.246 163.21 113.752 171.09C111.598 163.21 109.444 155.329 107.284 147.444Z" fill="#232996"/>
<path d="M113.676 141.977C113.676 145.625 113.676 149.273 113.676 152.916C119.585 151.427 125.499 149.939 131.408 148.445C125.499 146.29 119.585 144.131 113.676 141.977Z" fill="#232996"/>
<path d="M113.669 141.977C113.669 145.625 113.669 149.273 113.669 152.916C107.76 151.427 101.845 149.939 95.9364 148.445C101.845 146.29 107.754 144.131 113.669 141.977Z" fill="#232996"/>
<path d="M61.2069 183.499C63.0309 183.499 64.8549 183.499 66.679 183.499C65.9321 179.556 65.1903 175.619 64.4434 171.676C63.3612 175.613 62.2841 179.556 61.2069 183.499Z" fill="#232996"/>
<path d="M61.2069 183.494C63.0309 183.494 64.8549 183.494 66.679 183.494C65.9321 187.437 65.1903 191.375 64.4434 195.318C63.3612 191.375 62.2841 187.432 61.2069 183.494Z" fill="#232996"/>
<path d="M64.3818 180.755C64.3818 182.579 64.3818 184.403 64.3818 186.227C67.3389 185.481 70.2909 184.739 73.248 183.992C70.296 182.915 67.3389 181.838 64.3818 180.755Z" fill="#232996"/>
<path d="M64.3989 180.755C64.3989 182.579 64.3989 184.403 64.3989 186.227C61.4418 185.481 58.4848 184.739 55.5328 183.992C58.4899 182.915 61.4418 181.838 64.3989 180.755Z" fill="#232996"/>
<path d="M238.962 360.976H74.8001C74.0989 360.976 73.3419 360.92 72.6408 360.92C70.9133 357.14 69.2365 353.359 67.5649 349.63C67.6716 353.359 67.7783 357.246 67.8901 360.976H47.9021C47.6836 357.195 47.4143 353.359 47.145 349.63C46.0628 353.41 44.9298 357.19 43.8526 360.976H24.8908C19.4899 331.319 24.1897 320.949 29.9158 317.219C37.9131 311.981 47.7954 319.597 55.4674 313.17C64.9229 305.229 56.819 287.837 65.6749 282.273C72.5899 277.949 80.6939 286.648 87.2837 282.111C95.0066 276.816 88.4168 262.122 96.4141 255.207C102.572 249.969 112.785 253.099 116.346 253.693C130.552 256.285 155.509 240.514 202.721 159.271C210.555 163.971 218.385 168.67 226.164 173.37C230.427 235.865 234.695 298.471 238.962 360.976Z" fill="#232996"/>
<path d="M19.78 361.905C19.1856 361.905 18.6571 361.488 18.5352 360.884C13.119 333.727 14.7042 317.788 23.3874 312.158C27.5384 309.471 32.0604 309.923 36.4248 310.36C40.9366 310.812 45.1944 311.239 48.812 308.2C53.1764 304.532 53.4406 298.43 53.6947 292.526C53.9538 286.515 54.2282 280.296 59.1617 277.197C63.079 274.743 67.3165 275.962 71.056 277.039C74.577 278.045 77.9101 279.011 80.7249 277.065C84.0528 274.784 84.3323 270.17 84.632 265.282C84.9572 260.029 85.3179 254.074 89.7434 250.248C95.6422 245.142 104.889 247.174 109.33 248.15C109.869 248.267 110.346 248.373 110.743 248.449C129.12 251.92 157.664 225.88 195.644 170.956C196.04 170.377 196.828 170.23 197.412 170.636C197.991 171.038 198.133 171.825 197.737 172.404C158.594 229.01 129.994 254.684 110.27 250.944C109.859 250.863 109.355 250.756 108.786 250.629C104.437 249.674 96.3434 247.891 91.4049 252.164C87.7873 255.293 87.4722 260.445 87.1725 265.43C86.8473 270.709 86.5171 276.171 82.1628 279.153C78.3572 281.77 74.2925 280.601 70.3599 279.473C66.8185 278.457 63.4754 277.497 60.5132 279.346C56.7128 281.734 56.4943 286.785 56.2402 292.633C55.9709 298.78 55.6712 305.756 50.448 310.141C46.0074 313.876 41.0129 313.373 36.1709 312.885C32.0655 312.473 28.1735 312.082 24.7744 314.287C17.1684 319.216 15.9083 334.727 21.0298 360.386C21.167 361.072 20.7199 361.742 20.034 361.88C19.9476 361.9 19.8664 361.905 19.78 361.905Z" fill="#232996"/>
<path d="M215.296 396.872L222.323 479.492L224.853 508.905L226.072 523.426L226.26 525.489L227.759 544.319L227.851 545.254L228.039 547.317L228.415 552.372L228.602 553.495C228.602 553.683 255.206 551.341 255.206 551.341L290.99 548.434C291.082 548.338 290.711 544.217 290.711 544.217L290.147 537.378L289.492 529.981L285.838 486.143C285.747 486.143 283.872 463.005 283.872 463.005L280.31 422.165C278.344 412.14 276.378 402.121 274.411 391.908L228.232 395.841L215.296 396.872Z" fill="#FF9292"/>
<path d="M226.191 559.205C226.47 561.735 227.222 564.169 228.254 566.699C228.442 567.075 228.63 567.451 228.909 567.918C236.027 583.095 254.669 589.649 271.157 582.719C283.335 577.567 291.012 566.419 291.856 554.713V550.593C291.856 550.405 291.947 550.217 291.856 550.125C291.668 548.159 291.292 546.192 290.733 544.226C290.454 543.007 290.078 541.884 289.61 540.665C289.046 539.354 288.391 538.043 287.644 536.823C286.521 534.949 285.114 533.17 283.615 531.671C282.771 530.737 281.836 529.893 280.897 529.05C280.709 528.862 280.429 528.674 280.241 528.486C279.494 528.018 278.742 527.551 277.99 527.078C269.185 521.362 257.382 520.052 246.611 524.645C246.047 524.833 245.579 525.112 245.112 525.391C241.926 526.799 239.213 528.765 236.774 531.011C232.654 534.664 229.559 539.252 227.781 544.313C227.314 545.344 227.029 546.558 226.75 547.686C226.47 548.906 226.282 550.029 226.094 551.248C225.723 553.865 225.815 556.491 226.191 559.205Z" fill="#FF9292"/>
<path d="M226.291 525.478L227.79 544.308C227.323 545.339 227.038 546.554 226.759 547.681C227.226 547.493 227.602 547.402 228.07 547.306C246.615 542.057 265.069 536.814 283.619 531.662C285.585 531.098 287.551 530.539 289.518 529.975C286.611 529.695 283.802 529.411 280.901 529.035C269.006 527.912 257.015 526.601 245.116 525.382C238.745 524.726 232.47 524.071 226.098 523.415L226.291 525.478Z" fill="#FC6565"/>
<path d="M259.33 270.415C259.61 281.186 256.988 289.712 255.022 294.584C257.74 297.485 260.362 300.483 263.08 303.389C265.514 306.108 268.044 308.821 270.574 311.539C271.23 312.286 271.885 313.038 272.54 313.785L273.384 314.628C276.006 317.626 278.815 320.624 281.534 323.621C283.129 325.4 284.623 327.086 286.218 328.773C287.813 330.648 289.495 332.335 291.091 334.113C291.467 334.581 291.934 335.048 292.31 335.521C292.498 335.521 292.401 335.617 292.498 335.709C293.997 337.395 295.587 338.986 297.086 340.673C299.708 343.482 302.238 346.292 304.768 349.198C305.332 349.666 305.703 350.23 306.267 350.789C314.793 342.73 323.222 334.677 331.651 326.619C328.841 322.686 325.935 318.749 322.937 314.908L316.566 306.478C316.475 306.382 316.002 305.823 316.002 305.823C314.503 304.045 313.096 302.17 311.602 300.392C307.293 294.864 303.544 290.276 300.363 286.338C287.996 271.446 282.844 266.482 282.844 266.482C280.035 263.484 276.849 260.299 273.104 257.209C265.707 250.838 258.492 246.341 252.217 243.156C254.834 248.12 259.051 257.677 259.33 270.415Z" fill="#FF9292"/>
<path d="M427.013 333.122C414.493 341.683 395.476 352.17 370.468 357.388C350.591 361.534 333.012 361.077 319.756 359.512C313.019 359.629 306.678 354.619 304.193 347.537C301.185 338.955 304.335 328.753 311.911 325.181C347.472 316.447 383.028 307.718 418.583 298.984L427.013 333.122Z" fill="#FF9292"/>
<path d="M272.537 313.784L273.38 314.627C276.002 317.625 278.812 320.622 281.53 323.62C283.126 325.398 284.619 327.085 286.215 328.772C287.81 330.647 289.492 332.334 291.087 334.112C299.613 324.839 308.134 315.658 316.568 306.477C301.762 308.82 287.15 311.35 272.537 313.784Z" fill="#FC6565"/>
<path d="M175.839 405.453C189.695 406.159 206.624 405.946 225.687 403.339C244.832 400.723 261.254 396.368 274.449 391.948C269.673 343.873 264.897 295.803 260.126 247.728C255.842 244.629 230.86 227.166 199.348 234.172C182.744 237.866 171.485 246.757 165.921 251.894C169.224 303.084 172.532 354.268 175.839 405.453Z" fill="#FF9292"/>
<path d="M116.578 350.873C126.974 356.117 137.466 361.365 147.866 366.705C148.242 365.958 148.43 365.303 148.801 364.739C150.391 361.177 152.078 357.809 153.765 354.344C154.7 352.377 155.731 350.314 156.671 348.257C156.763 348.165 156.671 348.069 156.763 348.069C156.854 347.789 157.042 347.505 157.139 347.225C158.358 344.695 159.481 342.353 160.7 339.919C161.732 337.765 162.667 335.702 163.79 333.548C164.166 332.704 164.633 331.769 165.009 330.926C166.32 328.116 167.631 325.398 168.942 322.588C169.597 321.277 170.161 320.058 170.72 318.839C172.31 315.465 173.906 312.096 175.496 308.911C177.274 305.257 178.961 301.604 180.744 298.139C177.655 294.486 172.127 287.083 169.597 276.22C166.411 263.01 169.409 252.147 171.004 247.651C165.476 251.959 158.638 258.422 152.551 267.512C149.832 271.632 147.678 275.57 145.991 279.218C145.991 279.218 142.43 285.401 134.935 303.291C132.969 307.976 130.718 313.499 128.193 319.966C127.726 321.186 127.162 322.309 126.786 323.528C126.318 324.56 125.942 325.494 125.566 326.429L121.537 337.201C119.855 341.692 118.169 346.377 116.578 350.873Z" fill="#FF9292"/>
<path d="M198.392 239.278C211.856 247.814 224.416 248.032 228.537 242.682C229.268 241.813 231.168 238.907 229.568 232.307C229.39 232.246 228.897 229.33 228.877 229.162C228.867 229.076 228.633 228.004 228.283 226.088L228.211 225.585C227.719 223.263 227.028 220.123 226.362 216.546C226.128 215.469 225.966 214.3 225.717 213.142C224.772 208.158 223.715 203.016 222.943 199.287C222.673 197.96 222.414 196.716 222.16 195.476L207.172 191.929C207.121 192.194 206.968 192.3 207.004 192.549C206.547 193.55 206.196 194.709 205.739 195.71C205.678 195.887 205.688 195.974 205.546 196.162C204.606 201.664 203.64 206.999 202.66 212.248C201.354 219.422 200.058 226.677 198.753 233.852C198.565 235.589 198.387 237.403 198.392 239.278Z" fill="#FF9292"/>
<path d="M202.675 212.263C204.128 216.582 207.548 224.035 215.093 228.613C217.699 230.214 221.525 232.581 224.66 231.209C226.418 230.366 227.693 228.486 228.298 226.098L228.227 225.595C227.734 223.273 227.043 220.133 226.378 216.556C226.144 215.479 225.981 214.31 225.732 213.152C221.642 208.264 214.549 208.137 213.533 208.193C207.909 208.213 203.966 211.145 202.675 212.263Z" fill="#FC6565"/>
<path d="M192.917 196.412C197.414 211.68 210.731 221.237 222.432 217.696C232.355 214.759 238.056 203.485 236.892 190.981C236.684 188.654 236.277 186.225 235.551 183.827C235.5 183.68 234.646 181.154 234.646 181.154C232.218 174.946 228.509 169.834 223.961 166.41C218.494 162.218 211.971 160.536 205.884 162.345L204.624 162.772C194.731 166.527 189.503 178.959 191.911 192.205C192.14 193.618 192.516 194.974 192.917 196.412Z" fill="#FF9292"/>
<path d="M211.339 200.424C211.771 203.544 209.591 206.43 206.472 206.862C203.352 207.294 200.466 205.114 200.034 201.994C199.603 198.875 201.782 195.989 204.902 195.557C208.022 195.125 210.902 197.305 211.339 200.424Z" fill="#FC6565"/>
<path d="M236.34 194.651C236.772 197.77 234.592 200.651 231.473 201.088C228.353 201.52 225.467 199.34 225.035 196.221C224.603 193.101 226.783 190.215 229.903 189.783C233.027 189.346 235.908 191.526 236.34 194.651Z" fill="#FC6565"/>
<path d="M208.835 190.098C208.667 190.098 208.504 190.068 208.342 190.001C207.691 189.727 207.392 188.98 207.666 188.335L209.729 183.452C210.003 182.802 210.755 182.512 211.395 182.777C212.041 183.051 212.345 183.798 212.071 184.443L210.008 189.331C209.8 189.808 209.327 190.098 208.835 190.098Z" fill="#232996"/>
<path d="M204.815 190.306C204.698 190.306 204.576 190.291 204.46 190.255C203.784 190.057 203.403 189.351 203.601 188.68L205.069 183.681C205.267 183.005 205.984 182.624 206.644 182.817C207.32 183.015 207.701 183.721 207.503 184.392L206.029 189.392C205.872 189.95 205.364 190.306 204.815 190.306Z" fill="#232996"/>
<path d="M211.313 198.166C210.825 198.166 210.363 197.886 210.155 197.414L208.981 194.782C208.696 194.142 208.986 193.39 209.626 193.1C210.271 192.816 211.018 193.1 211.308 193.74L212.482 196.372C212.766 197.013 212.477 197.764 211.841 198.054C211.659 198.13 211.486 198.166 211.313 198.166Z" fill="#232996"/>
<path d="M206.592 199.318C205.947 199.318 205.393 198.825 205.327 198.17L205.063 195.421C204.997 194.725 205.505 194.105 206.206 194.034C206.857 194.014 207.527 194.476 207.593 195.177L207.858 197.926C207.924 198.622 207.416 199.242 206.714 199.313C206.679 199.313 206.633 199.318 206.592 199.318Z" fill="#232996"/>
<path d="M201.649 194.063C202.548 195.76 205.597 195.668 207.919 195.099C208.244 195.053 208.559 194.926 208.803 194.896L209.28 194.749C210.154 194.464 211.231 193.9 212.212 193.184C213.492 192.259 214.412 191.141 214.265 190.084C214.087 188.204 210.855 186.416 207.654 186.614L207.085 186.695C206.354 186.797 205.957 186.934 205.332 187.188C204.088 187.773 202.995 188.84 202.248 190.018C201.369 191.451 201.014 193.072 201.649 194.063Z" fill="white"/>
<path d="M205.914 191.238C206.127 192.782 206.899 194.164 207.941 195.099C208.266 195.053 208.581 194.926 208.825 194.896L209.303 194.749C210.176 194.464 211.254 193.9 212.234 193.184C213.515 192.259 214.434 191.141 214.287 190.084C214.109 188.204 210.878 186.416 207.677 186.614L207.108 186.695C206.112 187.895 205.675 189.531 205.914 191.238Z" fill="#232996"/>
<path d="M230.541 185.245C230.373 185.245 230.206 185.214 230.048 185.143C229.403 184.869 229.098 184.122 229.373 183.477L231.435 178.589C231.71 177.939 232.462 177.649 233.102 177.913C233.747 178.188 234.052 178.934 233.778 179.58L231.715 184.462C231.506 184.955 231.034 185.245 230.541 185.245Z" fill="#232996"/>
<path d="M226.522 185.465C226.405 185.465 226.283 185.45 226.161 185.415C225.49 185.216 225.104 184.51 225.302 183.834L226.776 178.835C226.979 178.164 227.675 177.783 228.351 177.976C229.022 178.174 229.408 178.881 229.21 179.551L227.736 184.551C227.579 185.105 227.071 185.465 226.522 185.465Z" fill="#232996"/>
<path d="M233.026 193.315C232.538 193.315 232.076 193.035 231.863 192.563L230.689 189.931C230.404 189.286 230.689 188.539 231.329 188.249C231.969 187.965 232.721 188.254 233.011 188.894L234.185 191.526C234.469 192.166 234.185 192.918 233.545 193.208C233.377 193.279 233.199 193.315 233.026 193.315Z" fill="#232996"/>
<path d="M228.305 194.465C227.66 194.465 227.106 193.973 227.04 193.317L226.77 190.568C226.704 189.867 227.212 189.247 227.914 189.181C228.63 189.166 229.235 189.623 229.301 190.324L229.57 193.073C229.636 193.774 229.128 194.394 228.427 194.46C228.391 194.465 228.351 194.465 228.305 194.465Z" fill="#232996"/>
<path d="M223.355 189.206C224.254 190.903 227.303 190.811 229.625 190.242C229.95 190.197 230.265 190.069 230.509 190.034L230.987 189.887C231.86 189.602 232.938 189.038 233.918 188.322C235.199 187.397 236.118 186.274 235.971 185.222C235.793 183.342 232.562 181.554 229.361 181.752L228.792 181.833C228.06 181.935 227.664 182.072 227.039 182.326C225.794 182.916 224.702 183.978 223.955 185.156C223.076 186.594 222.725 188.22 223.355 189.206Z" fill="white"/>
<path d="M227.58 186.381C227.794 187.925 228.566 189.307 229.608 190.242C229.933 190.197 230.248 190.069 230.492 190.034L230.969 189.887C231.843 189.602 232.92 189.038 233.901 188.322C235.181 187.397 236.101 186.274 235.954 185.222C235.776 183.342 232.544 181.554 229.344 181.752L228.775 181.833C227.779 183.043 227.342 184.674 227.58 186.381Z" fill="#232996"/>
<path d="M213.635 204.039C215.616 208.449 219.869 210.421 222.872 209.313C225.27 208.429 226.255 205.817 226.469 205.198C224.889 204.827 223.121 204.496 221.185 204.273C218.365 203.948 215.819 203.927 213.635 204.039Z" fill="white"/>
<path d="M227.363 717.676C233.805 722.183 276.352 751.525 288.582 740.266C290.97 738.071 293.835 732.822 290.045 718.459C290.213 706.549 290.375 694.634 290.543 682.725L290.66 673.264L290.624 670.983L290.746 661.776L290.792 659.073L290.909 649.613L290.955 646.91L291.077 637.785L291.122 635.168L291.244 626.216L291.29 623.426L291.407 613.966C291.143 613.295 291.137 612.787 291.381 612.279L291.564 601.548L291.549 600.364L291.884 576.88C291.808 570.631 291.732 564.387 291.656 558.137C270.901 558.884 250.15 559.636 229.395 560.383L229.344 562.664L229.237 572.887L227.363 717.676Z" fill="#FF9292"/>
<path d="M283.985 571.419C283.218 571.419 282.446 571.307 281.699 571.068C278.112 569.925 275.841 566.247 276.293 562.324C276.328 561.974 276.608 561.72 276.994 561.765C277.344 561.806 277.593 562.121 277.553 562.466C277.172 565.789 279.077 568.899 282.085 569.859C284.544 570.642 287.303 569.829 289.132 567.786C289.371 567.527 289.772 567.502 290.031 567.735C290.29 567.969 290.316 568.37 290.082 568.635C288.471 570.428 286.231 571.419 283.985 571.419Z" fill="#F25353"/>
<path d="M206.052 757.235C206.113 759.948 207.912 762.026 209.426 763.403C258.837 766.233 308.421 769.079 357.832 771.909C359.072 768.779 359.783 765.867 360.134 763.352C360.784 758.998 360.271 755.487 359.697 752.825C359.702 752.739 359.626 752.652 359.631 752.566C355.002 734.285 330.177 720.247 296.42 718.697C293.305 718.473 290.171 718.509 286.949 718.534C282.636 718.483 278.231 718.509 273.917 718.453C272.733 718.453 271.631 718.458 270.447 718.458C256.566 718.402 242.517 718.336 228.55 718.275C226.599 718.306 224.658 718.255 222.707 718.285C222.631 719.378 222.377 720.546 222.219 721.552C220.527 732.268 218.002 739.203 215.406 743.588C215.213 743.913 214.933 744.315 214.644 744.802C214.268 745.366 213.983 745.773 213.607 746.255C212.769 747.297 211.864 748.166 211.052 748.867C210.051 749.812 207.17 752.231 206.367 755.223C206.148 755.889 206.016 756.554 206.052 757.235Z" fill="#FF9292"/>
<path d="M206.038 757.231C206.099 759.944 207.897 762.022 209.412 763.399C258.823 766.229 308.407 769.075 357.818 771.905C359.058 768.775 359.769 765.863 360.12 763.348C360.77 758.994 360.257 755.483 359.683 752.821C359.688 752.735 359.612 752.648 359.617 752.562C358.657 746.932 355.964 736.532 347.397 727.904C334.065 714.471 312.096 710.97 291.295 718.693C292.834 713.825 294.379 708.963 295.918 704.096C285.365 699.95 281.514 701.006 279.929 702.703C276.179 706.727 284.156 715.461 280.569 724.312C277.973 730.724 269.711 736.196 262.075 735.892C250.78 735.439 245.699 723.703 228.526 718.271C226.458 717.616 224.512 717.565 222.683 718.281C216.139 721.035 215.229 733.839 215.382 743.584C215.188 743.909 214.909 744.311 214.619 744.798C214.243 745.362 213.959 745.769 213.583 746.251C212.745 747.293 211.84 748.162 211.027 748.863C210.026 749.808 207.145 752.226 206.343 755.219C206.134 755.885 206.002 756.55 206.038 757.231Z" fill="#232996"/>
<path d="M206.404 771.906H360.055C361.772 771.906 363.164 770.514 363.164 768.797V763.192C363.164 761.475 361.772 760.083 360.055 760.083H206.404C204.687 760.083 203.295 761.475 203.295 763.192V768.797C203.295 770.514 204.687 771.906 206.404 771.906Z" fill="#FF2468"/>
<path d="M319.325 734.152H325.477V713.763H319.325V734.152Z" fill="#FFCA22"/>
<path d="M310.037 733.815H316.19V713.426H310.037V733.815Z" fill="#FFCA22"/>
<path d="M301.7 734.152H307.853V713.763H301.7V734.152Z" fill="#FFCA22"/>
<path d="M137.578 543.94C137.669 544.032 138.233 544.128 138.233 544.128L172.798 551.811C179.423 559.981 186.049 568.151 192.679 576.321C194.732 570.026 196.79 563.725 198.843 557.43L199.122 556.399L199.498 554.62L200.621 549.377L200.712 549.097L203.43 536.827L204.929 529.988L208.491 513.78L214.954 485.023L232.94 404.09L220.294 401.28L175.049 391.256C171.772 400.996 168.398 410.644 165.121 420.389L156.224 460.386L151.169 482.96C151.077 482.96 141.241 527.362 141.241 527.362L139.93 533.26L137.578 543.94Z" fill="#FF9292"/>
<path d="M136.538 723.274C128.886 725.082 78.5199 736.667 71.3051 721.693C69.8977 718.772 69.1661 712.838 77.9864 700.882C82.2239 689.75 86.4664 678.618 90.7039 667.481L94.0826 658.645L94.9514 656.537L98.2337 647.935L99.1889 645.404L102.573 636.569L103.528 634.039L106.78 625.513L107.704 623.064L110.89 614.696L111.876 612.089L115.255 603.254C115.747 602.725 115.94 602.258 115.9 601.694L119.685 591.654L120.137 590.562L128.485 568.607C130.858 562.83 133.231 557.048 135.608 551.271C154.621 559.619 173.639 567.972 192.651 576.32L191.859 578.459L188.185 588.001L136.538 723.274Z" fill="#FF9292"/>
<path d="M194.39 570.488C193.75 573.033 192.714 575.477 191.357 577.845C190.123 580.07 188.507 582.118 186.673 584.028C186.332 584.363 186.017 584.622 185.595 584.943C173.401 596.425 153.627 595.684 140.889 583.093C131.449 573.866 128.426 560.671 132.003 549.478L133.481 545.622C133.522 545.464 133.562 545.302 133.679 545.165C135.077 542.299 136.931 539.637 139.223 537.254C140.239 536.243 141.336 535.247 142.469 534.434C145.497 532.147 148.881 530.461 152.443 529.414C153.261 529.195 154.155 528.997 155.029 528.88C165.358 526.828 176.755 529.942 185.082 538.214C188.004 541.064 190.249 544.25 191.916 547.715C195.508 554.95 196.352 563.029 194.39 570.488Z" fill="#FF9292"/>
<path d="M140.613 566.99C140.441 566.99 140.268 566.985 140.095 566.97C137.026 566.761 134.323 564.658 133.211 561.614C133.089 561.284 133.256 560.918 133.587 560.802C133.912 560.68 134.278 560.847 134.4 561.178C135.345 563.748 137.616 565.522 140.187 565.705C143.332 565.893 146.253 563.728 147.122 560.502C147.214 560.166 147.554 559.968 147.899 560.055C148.235 560.146 148.438 560.492 148.347 560.832C147.366 564.47 144.16 566.99 140.613 566.99Z" fill="#F25353"/>
<path d="M157.12 757.235C157.059 759.948 155.261 762.026 153.747 763.403C104.335 766.233 54.7513 769.079 5.33996 771.909C4.10023 768.779 3.3889 765.867 3.03832 763.352C2.38797 758.998 2.90121 755.487 3.47534 752.825C3.47026 752.739 3.54648 752.652 3.5414 752.566C8.17006 734.285 32.9951 720.247 66.7523 718.697C69.8669 718.473 73.0017 718.509 76.223 718.534C80.5366 718.483 84.9418 718.509 89.2554 718.453C90.4392 718.453 91.5418 718.458 92.7256 718.458C106.607 718.402 120.655 718.336 134.622 718.275C136.573 718.306 138.514 718.255 140.465 718.285C140.542 719.378 140.796 720.546 140.953 721.552C142.645 732.268 145.17 739.203 147.766 743.588C147.96 743.913 148.244 744.315 148.529 744.802C148.91 745.366 149.189 745.773 149.565 746.255C150.403 747.297 151.308 748.166 152.121 748.867C153.122 749.812 156.003 752.231 156.805 755.223C157.024 755.889 157.156 756.554 157.12 757.235Z" fill="#FF9292"/>
<path d="M157.123 757.231C157.062 759.944 155.263 762.022 153.749 763.399C104.338 766.229 54.7535 769.075 5.34216 771.905C4.10243 768.775 3.3911 765.863 3.04052 763.348C2.39017 758.994 2.9034 755.483 3.47754 752.821C3.47246 752.735 3.54868 752.648 3.5436 752.562C4.50388 746.932 7.19672 736.532 15.763 727.904C29.0952 714.471 51.0648 710.97 71.8658 718.693C70.3263 713.825 68.7817 708.963 67.2422 704.096C77.7952 699.95 81.6465 701.006 83.2317 702.703C86.9763 706.727 79.0045 715.461 82.5915 724.312C85.1879 730.724 93.4493 736.196 101.086 735.892C112.381 735.439 117.461 723.703 134.63 718.271C136.703 717.616 138.644 717.565 140.473 718.281C147.017 721.035 147.926 733.839 147.774 743.584C147.967 743.909 148.251 744.311 148.536 744.798C148.917 745.362 149.196 745.769 149.572 746.251C150.411 747.293 151.315 748.162 152.128 748.863C153.129 749.808 156.01 752.226 156.813 755.219C157.026 755.885 157.158 756.55 157.123 757.231Z" fill="#232996"/>
<path d="M156.76 771.906H3.10948C1.39215 771.906 0 770.514 0 768.797V763.192C0 761.475 1.39215 760.083 3.10948 760.083H156.76C158.477 760.083 159.869 761.475 159.869 763.192V768.797C159.869 770.514 158.477 771.906 156.76 771.906Z" fill="#FF2468"/>
<path d="M43.8262 713.759H37.6733V734.149H43.8262V713.759Z" fill="#FFCA22"/>
<path d="M53.1559 713.433H47.0029V733.822H53.1559V713.433Z" fill="#FFCA22"/>
<path d="M61.4824 713.759H55.3295V734.149H61.4824V713.759Z" fill="#FFCA22"/>
<path d="M199.176 194.545C199.658 198.02 197.651 201.17 194.689 201.582C191.732 201.993 188.938 199.509 188.455 196.033C187.972 192.558 189.979 189.408 192.941 188.996C195.904 188.585 198.693 191.069 199.176 194.545Z" fill="#FF9292"/>
<path d="M223.12 539.793C247.447 536.216 271.779 532.639 296.106 529.057C295.847 518.768 295.278 508.119 294.333 497.139C290.939 457.676 283.43 422.405 274.452 391.95C255.78 400.313 237.107 408.676 218.44 417.045C220 457.961 221.56 498.877 223.12 539.793Z" fill="#232996"/>
<path d="M277.583 326.093C291.927 318.874 306.27 311.654 320.613 304.434C314.094 291.31 300.315 268.461 274.067 251.156C263.682 244.307 253.632 239.836 245.071 236.853C247.515 251.181 249.964 265.514 252.408 279.842C260.801 295.263 269.195 310.678 277.583 326.093Z" fill="#FF2468"/>
<path d="M126.785 323.525C136.901 331.395 147.017 339.26 157.133 347.222C158.353 344.692 159.475 342.35 160.695 339.916C161.726 337.761 162.661 335.699 163.784 333.544C164.16 332.701 164.628 331.766 165.003 330.923C152.169 328.489 139.528 325.964 126.785 323.525Z" fill="#FC6565"/>
<path d="M163.9 337.861C167.832 324.748 171.861 311.725 175.794 298.8C177.013 294.583 178.324 290.462 179.635 286.25C180.011 284.939 180.387 283.72 180.758 282.409C182.165 266.953 183.664 251.497 185.158 236.041C182.912 237.164 180.473 238.475 177.943 239.974C177.755 240.065 177.664 240.162 177.476 240.253C170.078 244.658 161.74 250.648 153.591 258.798C138.602 273.69 129.797 289.99 124.645 303.103C123.055 307.224 121.835 310.973 120.804 314.342C120.148 316.684 119.584 318.742 119.117 320.617C134.111 326.338 149.008 332.054 163.9 337.861Z" fill="#FF2468"/>
<path d="M141.234 527.357C144.42 528.48 147.509 529.607 150.695 530.822C166.242 536.441 181.886 542.157 197.342 547.868C198.465 548.244 199.593 548.62 200.716 549.087L203.434 536.817C198.094 535.974 192.663 535.13 187.231 534.383C176.175 532.697 165.033 531.01 153.885 529.328C149.668 528.668 145.451 528.012 141.234 527.357Z" fill="#FC6565"/>
<path d="M212.971 540.378C187.323 535.719 161.674 531.059 136.031 526.4C139.705 501.118 145.812 472.137 155.989 440.849C161.883 422.725 168.381 406.167 175.012 391.224C191.809 399.592 208.611 407.966 225.409 416.339C221.263 457.682 217.117 499.03 212.971 540.378Z" fill="#232996"/>
<path d="M163.142 254.679C163.422 282.314 163.61 310.04 163.894 337.766C164.174 363.994 164.458 390.221 164.646 416.449C174.386 422.256 189.375 429.562 208.672 432.651C248.201 439.023 279.392 423.943 290.636 417.851C289.513 409.137 288.39 400.52 287.171 391.811C286.607 387.315 286.048 382.727 285.393 378.23C283.142 360.712 280.805 343.101 278.463 325.588C276.496 310.508 274.53 295.519 272.564 280.439C271.908 275.943 271.344 271.446 270.785 266.949C270.13 262.544 269.566 258.144 269.007 253.744C265.445 249.903 259.922 244.751 252.144 240.351C249.989 239.132 247.835 238.105 245.869 237.165C245.589 237.074 245.401 236.977 245.122 236.886C239.035 234.264 233.599 232.953 229.575 232.298C229.387 232.953 226.109 241.103 218.051 242.79C210.745 244.38 202.499 239.792 199.221 231.455C195.66 232.11 190.604 233.421 185.168 236.043C182.922 237.165 180.483 238.476 177.953 239.975C177.765 240.067 177.673 240.163 177.486 240.255C175.052 241.941 172.522 243.816 170.179 246.153C167.268 249.055 164.926 251.961 163.142 254.679Z" fill="#FF2468"/>
<path d="M21.4514 391.035L13.1798 421.017L299.008 499.882C300.507 499.379 310.425 495.853 312.437 486.56C314.226 478.284 308.474 471.297 307.28 469.9C212.004 443.607 116.728 417.324 21.4514 391.035Z" fill="white"/>
<path d="M298.435 503.381L298.059 503.28L12.2308 424.42C3.54764 420.248 -0.842258 411.53 1.57115 403.603C3.87278 396.053 12.0123 391.12 20.9495 391.948C21.1731 391.989 307.378 470.955 307.378 470.955L307.632 471.25C309.857 473.846 314.847 480.776 313.063 489.002C310.965 498.717 300.813 502.584 298.796 503.259L298.435 503.381ZM19.0493 394.402C11.992 394.402 5.81368 398.401 4.0049 404.345C1.95731 411.062 5.78831 418.511 13.12 422.052L298.349 500.729C300.747 499.86 308.871 496.375 310.584 488.469C312.088 481.503 307.708 475.33 305.945 473.196L20.6092 394.468C20.0858 394.422 19.5676 394.402 19.0493 394.402Z" fill="#232996"/>
<path d="M298.394 494.009C297.891 494.009 297.418 493.709 297.22 493.221C294.278 486.027 295.508 479.905 300.35 477.633C302.392 476.678 306.645 475.794 309.353 477.517C312.427 479.462 311.619 483.339 311.086 485.9C310.684 487.815 310.136 490.427 307.224 491.392C306.096 491.758 303.759 492.099 302.123 491.021C300.944 490.249 300.294 488.821 300.426 487.307C300.568 485.681 301.579 484.274 303.068 483.629C304.414 483.044 305.939 483.146 306.975 483.344C307.666 483.471 308.118 484.137 307.991 484.828C307.864 485.519 307.184 485.966 306.508 485.844C305.527 485.656 304.668 485.702 304.079 485.961C303.439 486.235 303.022 486.82 302.961 487.531C302.921 487.988 303.048 488.588 303.52 488.903C304.181 489.33 305.517 489.284 306.432 488.984C307.849 488.511 308.195 487.312 308.601 485.387C309.16 482.709 309.47 480.59 307.996 479.661C306.477 478.695 303.378 479.026 301.437 479.93C297.865 481.612 297.154 486.332 299.578 492.261C299.842 492.912 299.532 493.653 298.882 493.918C298.714 493.979 298.556 494.009 298.394 494.009Z" fill="#232996"/>
<path d="M59.0397 379.279L49.8993 396.584L262.686 508.972C263.885 508.978 271.851 508.886 274.26 503.404C276.404 498.521 272.619 492.815 271.826 491.667C200.897 454.201 129.968 416.74 59.0397 379.279Z" fill="white"/>
<path d="M262.109 511.501C262.033 511.501 261.448 511.354 261.448 511.354L48.2253 398.59C45.2479 394.494 45.004 389.144 47.6054 384.947C49.8715 381.289 53.926 379.104 58.4378 379.267L58.9865 379.414L272.23 492.209C273.739 494.404 277.016 500.069 274.775 505.176C272.21 511.024 264.527 511.501 262.109 511.501ZM50.1153 396.862L262.353 508.961C264.248 508.93 270.548 508.488 272.454 504.154C274.14 500.318 271.442 495.614 270.309 493.906L58.0669 381.807C54.6932 381.792 51.5075 383.484 49.7647 386.294C47.7883 389.469 47.9356 393.681 50.1153 396.862Z" fill="#232996"/>
<path d="M269.679 505.775C268.729 505.764 266.895 505.475 265.736 504.433C264.766 503.564 264.39 502.249 264.781 501.095C265.172 499.957 266.229 499.185 267.54 499.088C268.658 499.012 269.831 499.408 270.614 499.759C271.254 500.043 271.544 500.795 271.254 501.436C270.97 502.076 270.218 502.365 269.578 502.076C268.851 501.751 268.145 501.563 267.728 501.624C267.555 501.634 267.261 501.69 267.179 501.913C267.134 502.055 267.169 502.31 267.423 502.543C267.896 502.97 269.069 503.255 269.674 503.234C270.472 503.234 270.71 502.929 271.208 501.766C271.925 500.094 272.169 499.23 271.295 498.468C270.111 497.432 267.621 497.091 266.25 497.208C265.289 497.305 264.603 497.676 264.161 498.336C263.399 499.485 263.384 501.517 264.126 503.925C264.329 504.596 263.953 505.307 263.282 505.516C262.617 505.719 261.905 505.343 261.692 504.672C260.706 501.446 260.828 498.768 262.048 496.934C262.906 495.638 264.273 494.856 265.995 494.688C267.667 494.515 271.041 494.881 272.966 496.558C275.324 498.621 274.165 501.319 273.546 502.772C273.098 503.819 272.265 505.775 269.679 505.775Z" fill="#232996"/>
<path d="M173.554 458.513C161.268 449.627 144.964 435.273 131.601 413.502C120.982 396.196 115.465 379.501 112.462 366.494C110.074 360.194 112.645 352.532 118.467 347.796C125.525 342.065 136.194 341.577 142.114 347.502C162.351 378.012 182.593 408.528 202.83 439.038L173.554 458.513Z" fill="#FF9292"/>
<path d="M208.502 484.026C213.41 474.23 214.324 466.36 214.212 460.903C214.085 454.826 212.917 448.714 215.676 447.144C217.48 446.118 220.203 447.484 222.179 448.755C222.367 447.124 222.865 441.271 219.324 438.385C216.855 436.373 213.481 436.225 207.033 437.379C203.944 437.932 200.86 438.486 197.771 439.04C188.58 444.7 179.388 450.355 170.202 456.015C169.023 459.633 167.652 465.811 170.746 470.414C173.332 474.261 177.63 475.028 186.552 477.294C191.755 478.615 199.3 480.723 208.502 484.026Z" fill="#FF9292"/>
<path d="M197.968 162.76C194.432 165.732 186.983 171.997 187.822 180.517C188.284 185.192 191.038 188.57 192.699 190.278C196.81 186.355 198.928 182.611 200.117 179.74C201.088 177.387 201.753 174.847 203.242 174.664C204.736 174.486 205.488 176.879 207.535 178.373C208.877 179.354 211.819 180.71 220.446 177.982C228.458 175.452 239.433 171.981 239.54 166.418C239.646 160.9 229.022 155.667 220.446 154.854C208.694 153.741 200.224 160.865 197.968 162.76Z" fill="#232996"/>
<path d="M402.784 309.864C402.586 309.864 402.388 309.818 402.2 309.722C400.157 308.66 396.428 306.165 394.442 301.318C392.933 297.655 393.09 294.296 393.486 292.117C393.608 291.426 394.238 290.968 394.965 291.095C395.656 291.222 396.113 291.883 395.986 292.574C395.651 294.413 395.513 297.258 396.789 300.353C398.531 304.605 401.971 306.744 403.369 307.466C403.988 307.786 404.232 308.553 403.907 309.178C403.689 309.61 403.242 309.864 402.784 309.864Z" fill="#F74F4F"/>
<path d="M367.483 743.748H419.003L419.003 148.058H367.483L367.483 743.748Z" fill="#FFCA22"/>
<path d="M367.476 148.061C368.3 150.688 369.671 153.624 372.014 154.234C375.352 155.098 377.12 150.301 381.82 150.068C387.002 149.814 388.562 155.458 393.384 154.849C397.408 154.346 397.55 150.256 401.726 149.758C406.106 149.239 407.991 153.482 412.264 152.999C415.308 152.654 417.569 150.134 418.996 148.061C415.353 136.06 411.756 124.028 408.037 112.022C403.54 97.5062 399.14 82.9953 394.735 68.4792C393.145 68.5809 391.549 68.6774 390.051 68.774C385.93 83.1883 381.81 97.6027 377.78 112.017C374.31 124.069 370.845 136.014 367.476 148.061Z" fill="#84DBEF"/>
<path d="M377.798 112.022H408.055C403.558 97.5062 399.158 82.9953 394.753 68.4792C393.163 68.5809 391.568 68.6774 390.069 68.774C385.948 83.1934 381.828 97.6078 377.798 112.022Z" fill="#232996"/>
<path d="M376.657 771.908H409.82C416.181 771.908 421.338 766.751 421.338 760.389V743.526C421.338 737.165 416.181 732.008 409.82 732.008H376.657C370.295 732.008 365.138 737.165 365.138 743.526V760.389C365.138 766.751 370.295 771.908 376.657 771.908Z" fill="#232996"/>
<path d="M361.22 737.754H425.316V685.919H361.22V737.754Z" fill="#232996"/>
<path d="M412.651 342.056C416.741 342.249 420.831 342.447 424.921 342.641C427.309 340.349 429.875 337.179 431.679 332.982C438.309 317.516 428.605 301.775 427.289 299.707C422.02 299.087 416.751 298.473 411.483 297.853C411.142 298.371 409.76 300.591 410.314 303.416C410.847 306.165 413.007 308.421 415.877 309.269C410.766 309.178 407.011 312.328 406.803 315.123C406.569 318.247 410.649 322.531 416.756 322.149C410.675 322.343 406.239 323.664 405.924 325.66C405.655 327.403 408.556 329.491 410.609 330.345C413.5 331.544 416.147 330.899 417.046 330.64C413.047 330.604 409.958 333.398 409.73 336.493C409.481 339.734 412.478 341.934 412.651 342.056Z" fill="#FF9292"/>
<path d="M742.555 435.043H727.592C726.997 432.233 726.347 429.424 725.753 426.614C725.158 429.424 724.62 432.233 724.025 435.043H699.337C698.204 431.801 697.015 428.509 695.826 425.267C695.72 428.509 695.557 431.801 695.45 435.043H676.382C676.489 431.314 676.651 427.589 676.763 423.916C674.761 427.589 672.82 431.314 670.818 435.043H492.018C489.696 432.884 487.969 430.343 488.126 427.696C488.614 419.861 504.817 419.541 508.815 408.79C512.758 398.202 500.117 390.423 502.495 378.163C504.766 366.767 517.458 364.876 526.802 356.554C553.38 333.004 523.723 284.167 541.226 229.609C545.331 216.805 554.081 197.361 575.42 176.509C582.661 177.373 589.896 178.292 597.08 179.156C628.683 246.731 657.903 267.908 679.893 273.741C687.184 275.687 707.766 279.63 714.087 294.43C719.112 306.152 710.413 313.555 715.87 325.922C722.836 341.804 741.366 339.533 744.714 352.931C747.468 364.165 735.371 368.865 737.474 382.639C739.471 395.55 750.979 397.602 752.813 409.649C753.682 415.812 752.005 424.185 742.555 435.043Z" fill="#FF2468"/>
<path d="M748.699 436.306C748.399 436.306 748.1 436.2 747.861 435.986C747.332 435.524 747.282 434.716 747.749 434.193C755.467 425.449 758.815 417.253 757.707 409.835C756.879 404.272 753.8 400.944 750.549 397.412C747.043 393.612 743.415 389.679 742.368 382.83C741.225 375.367 744.045 370.357 746.525 365.942C748.852 361.811 750.858 358.239 749.624 353.224C748.11 347.168 743.161 344.582 737.43 341.594C731.394 338.444 724.56 334.877 720.856 326.428C717.919 319.777 718.859 314.518 719.759 309.437C720.592 304.753 721.379 300.327 719.063 294.926C713.438 281.803 695.95 277.489 687.546 275.421L685.722 274.969C655.887 267.282 625.016 236.563 593.957 183.656C593.606 183.051 593.804 182.274 594.409 181.918C595.014 181.567 595.786 181.766 596.152 182.37C626.855 234.667 657.208 264.995 686.362 272.505L688.161 272.952C696.961 275.121 715.287 279.633 721.405 293.926C724.027 300.028 723.132 305.037 722.269 309.884C721.39 314.813 720.567 319.462 723.188 325.406C726.537 333.038 732.674 336.249 738.614 339.348C744.629 342.488 750.31 345.456 752.098 352.625C753.572 358.62 751.123 362.979 748.75 367.197C746.352 371.454 743.877 375.859 744.883 382.454C745.818 388.531 749.024 392.011 752.424 395.695C755.792 399.353 759.283 403.133 760.222 409.464C761.447 417.66 757.896 426.546 749.66 435.88C749.395 436.164 749.05 436.306 748.699 436.306Z" fill="#FF2468"/>
<path d="M639.543 407.419C630.073 410.843 612.33 415.827 590.031 413.561C571.145 411.641 556.782 405.31 548.342 400.783C542.357 355.777 536.372 310.776 530.386 265.769C534.101 262.005 555.857 240.66 588.095 242.367C605.08 243.266 617.65 250.181 623.986 254.332C629.168 305.359 634.356 356.386 639.543 407.419Z" fill="#FF9292"/>
<path d="M580.367 411.718L586.469 494.394L588.639 523.782L589.848 540.401L591.22 560.181L591.702 567.289L591.835 568.407C591.901 568.585 618.463 566.608 618.463 566.608L654.349 564.053C654.441 563.976 653.623 553.012 653.623 553.012L649.893 501.7C649.812 501.69 648.135 478.562 648.135 478.562L645.117 437.692C643.263 427.632 641.408 417.566 639.559 407.42L593.298 410.773L580.367 411.718Z" fill="#FF9292"/>
<path d="M548.291 306.886C546.116 310.168 543.982 313.557 541.772 316.91C539.816 319.954 537.824 323.063 535.832 326.178C535.106 327.387 534.349 328.494 533.551 329.668C531.483 333.093 529.237 336.517 527.063 339.977C525.757 341.948 524.563 343.884 523.257 345.856C521.626 348.447 520 350.871 518.369 353.462C518.263 353.497 518.298 353.599 518.258 353.67C517.059 355.606 515.722 357.471 514.564 359.34C512.496 362.592 510.398 365.737 508.406 369.024C507.938 369.573 507.679 370.234 507.176 370.854C497.502 364.345 487.823 357.831 478.149 351.323C480.238 347.019 482.468 342.619 484.729 338.321L490.059 328.2C491.187 326.223 492.279 324.145 493.448 322.103C496.766 315.97 499.677 310.772 502.187 306.342C511.896 289.585 516.149 283.859 516.149 283.859C518.354 280.424 520.981 276.766 524.101 273.027C530.33 265.563 536.762 259.923 542.356 255.737C540.624 261.01 538.063 271.177 539.912 283.798C541.472 294.448 545.522 302.364 548.291 306.886Z" fill="#FF9292"/>
<path d="M587.468 729.711L650.13 731.398L651.146 695.674L651.4 686.214V683.932L651.654 674.726L651.741 672.023L651.995 662.562L652.081 659.859L652.335 650.739L652.422 648.123L652.676 639.17L652.762 636.381L653.016 626.92C652.762 626.244 652.762 625.736 653.016 625.233L653.356 614.508V613.324L654.032 589.845L654.454 574.135L591.792 572.448L591.705 574.73L591.451 584.947L587.468 729.711Z" fill="#FF9292"/>
<path d="M591.277 574.259C590.896 576.856 590.921 579.513 591.267 582.216C591.556 584.746 592.267 587.256 593.233 589.72C593.416 590.162 593.614 590.523 593.878 590.975C600.758 606.248 619.313 613.118 635.897 606.35C648.147 601.432 655.986 590.396 656.957 578.68L657.064 574.549C657.089 574.386 657.109 574.224 657.054 574.051C656.855 570.87 656.164 567.7 654.955 564.621C654.406 563.295 653.771 561.959 653.034 560.775C651.109 557.508 648.629 554.652 645.733 552.325C645.063 551.812 644.311 551.289 643.549 550.842C634.789 544.994 623.068 543.52 612.215 547.981C608.425 549.5 605.137 551.583 602.272 554.149C596.185 559.474 592.313 566.618 591.277 574.259Z" fill="#FF9292"/>
<path d="M646.298 584.295C645.496 584.295 644.688 584.168 643.905 583.909C640.344 582.715 638.118 579.001 638.626 575.083C638.667 574.738 638.977 574.494 639.338 574.534C639.683 574.58 639.932 574.9 639.886 575.246C639.46 578.564 641.319 581.704 644.312 582.704C646.751 583.522 649.525 582.75 651.384 580.733C651.623 580.479 652.02 580.459 652.284 580.692C652.543 580.931 652.558 581.333 652.319 581.592C650.714 583.334 648.514 584.295 646.298 584.295Z" fill="#F25353"/>
<path d="M597.212 580.499C597.059 580.499 596.902 580.443 596.775 580.326L591.038 574.93C590.784 574.691 590.769 574.29 591.013 574.036C591.252 573.782 591.653 573.766 591.912 574.01L597.649 579.406C597.903 579.645 597.918 580.046 597.674 580.3C597.552 580.432 597.379 580.499 597.212 580.499Z" fill="#F25353"/>
<path d="M594.263 245.629C582.1 255.933 569.687 257.874 564.876 253.144C564.032 252.387 561.751 249.765 562.427 243.012C562.594 242.926 562.681 239.974 562.681 239.801C562.681 239.715 562.767 238.618 562.848 236.677V236.169C563.016 233.806 563.27 230.595 563.438 226.962C563.524 225.865 563.524 224.681 563.605 223.497C563.86 218.431 564.195 213.193 564.449 209.392C564.535 208.041 564.617 206.776 564.703 205.511L579.061 199.937C579.148 200.191 579.316 200.272 579.316 200.526C579.905 201.456 580.413 202.554 581.002 203.483C581.089 203.651 581.089 203.737 581.256 203.905C582.943 209.225 584.635 214.377 586.322 219.442C588.603 226.368 590.885 233.379 593.161 240.304C593.593 241.996 594.014 243.775 594.263 245.629Z" fill="#FF9292"/>
<path d="M586.336 219.443C585.492 223.919 583.124 231.774 576.286 237.348C573.923 239.289 570.458 242.165 567.166 241.235C565.306 240.645 563.787 238.953 562.857 236.672V236.164C563.025 233.801 563.279 230.59 563.446 226.958C563.533 225.86 563.533 224.676 563.614 223.492C566.993 218.086 573.999 216.989 575.015 216.903C580.594 216.151 584.898 218.518 586.336 219.443Z" fill="#FC6565"/>
<path d="M593.796 202.423C591.439 218.163 579.565 229.463 567.488 227.563C557.255 226.018 550.06 215.638 549.491 203.088C549.38 200.756 549.446 198.297 549.837 195.818C549.867 195.665 550.365 193.048 550.365 193.048C551.92 186.565 554.892 180.992 558.926 176.973C563.763 172.07 569.993 169.509 576.272 170.464L577.578 170.713C587.898 173.071 594.782 184.67 594.218 198.119C594.183 199.542 593.995 200.944 593.796 202.423Z" fill="#FF9292"/>
<path d="M581.82 214.624C584.972 214.624 587.526 212.069 587.526 208.918C587.526 205.767 584.972 203.212 581.82 203.212C578.669 203.212 576.115 205.767 576.115 208.918C576.115 212.069 578.669 214.624 581.82 214.624Z" fill="#FC6565"/>
<path d="M550.508 206.635C550.508 209.785 553.064 212.341 556.214 212.341C559.364 212.341 561.92 209.785 561.92 206.635C561.92 203.485 559.364 200.929 556.214 200.929C553.064 200.929 550.508 203.485 550.508 206.635Z" fill="#FC6565"/>
<path d="M577.008 198.37C576.577 198.37 576.155 198.147 575.916 197.75L573.203 193.198C572.847 192.593 573.045 191.816 573.645 191.455C574.234 191.094 575.027 191.288 575.388 191.897L578.101 196.45C578.456 197.054 578.258 197.832 577.659 198.192C577.455 198.309 577.232 198.37 577.008 198.37Z" fill="#232996"/>
<path d="M581.01 198.027C580.527 198.027 580.065 197.747 579.852 197.28L577.702 192.529C577.408 191.889 577.697 191.137 578.338 190.847C578.973 190.568 579.725 190.842 580.014 191.482L582.164 196.233C582.458 196.873 582.169 197.625 581.528 197.915C581.361 197.991 581.183 198.027 581.01 198.027Z" fill="#232996"/>
<path d="M575.639 206.691C575.522 206.691 575.4 206.675 575.289 206.64C574.613 206.442 574.227 205.741 574.42 205.065L575.223 202.301C575.421 201.625 576.157 201.244 576.798 201.437C577.473 201.63 577.859 202.336 577.666 203.012L576.864 205.781C576.696 206.335 576.193 206.691 575.639 206.691Z" fill="#232996"/>
<path d="M580.484 207.192C579.803 207.192 579.244 206.658 579.214 205.972L579.097 203.214C579.066 202.512 579.615 201.923 580.311 201.893C581.048 201.893 581.607 202.426 581.637 203.112L581.754 205.871C581.785 206.572 581.236 207.161 580.54 207.192C580.52 207.192 580.499 207.192 580.484 207.192Z" fill="#232996"/>
<path d="M584.837 201.293C584.181 203.097 581.143 203.427 578.765 203.178C578.435 203.178 578.109 203.097 577.86 203.097L577.368 203.016C576.463 202.853 575.315 202.442 574.253 201.868C572.856 201.131 571.794 200.145 571.794 199.078C571.713 197.193 574.665 194.978 577.866 194.729H578.44C579.176 194.729 579.588 194.81 580.243 194.973C581.554 195.384 582.789 196.284 583.688 197.351C584.755 198.667 585.329 200.226 584.837 201.293Z" fill="white"/>
<path d="M580.243 199.078C580.243 200.638 579.669 202.111 578.765 203.178C578.435 203.178 578.109 203.097 577.86 203.097L577.368 203.016C576.463 202.853 575.315 202.442 574.253 201.868C572.856 201.131 571.794 200.145 571.794 199.078C571.713 197.193 574.665 194.978 577.866 194.729H578.44C579.583 195.796 580.243 197.356 580.243 199.078Z" fill="#232996"/>
<path d="M554.844 196.532C554.412 196.532 553.99 196.308 553.752 195.912L551.039 191.359C550.683 190.755 550.881 189.977 551.481 189.617C552.075 189.261 552.857 189.449 553.223 190.059L555.937 194.611C556.292 195.216 556.094 195.993 555.495 196.354C555.291 196.476 555.068 196.532 554.844 196.532Z" fill="#232996"/>
<path d="M558.841 196.194C558.359 196.194 557.896 195.915 557.688 195.448L555.544 190.697C555.254 190.057 555.539 189.305 556.179 189.015C556.814 188.726 557.571 189.01 557.856 189.65L560 194.401C560.289 195.041 560.005 195.793 559.365 196.083C559.197 196.159 559.019 196.194 558.841 196.194Z" fill="#232996"/>
<path d="M553.483 204.866C553.371 204.866 553.249 204.85 553.132 204.815C552.456 204.617 552.07 203.915 552.263 203.24L553.061 200.476C553.254 199.805 553.94 199.394 554.636 199.607C555.312 199.805 555.698 200.506 555.505 201.182L554.707 203.946C554.545 204.5 554.031 204.866 553.483 204.866Z" fill="#232996"/>
<path d="M558.315 205.357C557.634 205.357 557.075 204.824 557.044 204.138L556.933 201.379C556.902 200.678 557.451 200.088 558.147 200.058C558.884 200.058 559.443 200.591 559.473 201.277L559.585 204.036C559.615 204.737 559.067 205.327 558.371 205.357C558.35 205.357 558.33 205.357 558.315 205.357Z" fill="#232996"/>
<path d="M562.675 199.465C562.019 201.269 558.981 201.599 556.603 201.35C556.273 201.35 555.948 201.269 555.699 201.269L555.206 201.188C554.301 201.025 553.153 200.613 552.091 200.039C550.694 199.303 549.632 198.317 549.632 197.25C549.551 195.365 552.503 193.15 555.704 192.901H556.278C557.015 192.901 557.426 192.982 558.082 193.145C559.393 193.556 560.622 194.455 561.527 195.522C562.588 196.838 563.163 198.398 562.675 199.465Z" fill="white"/>
<path d="M558.082 197.25C558.082 198.81 557.508 200.283 556.603 201.35C556.273 201.35 555.948 201.269 555.699 201.269L555.206 201.188C554.301 201.025 553.153 200.613 552.091 200.039C550.694 199.303 549.632 198.317 549.632 197.25C549.551 195.365 552.503 193.15 555.704 192.901H556.278C557.426 193.968 558.082 195.527 558.082 197.25Z" fill="#232996"/>
<path d="M571.489 215.197C571.275 215.527 569.309 218.484 566.113 218.591C562.8 218.702 559.437 215.71 558.929 211.34C560.331 212.184 562.165 213.108 564.406 213.85C567.16 214.76 569.624 215.09 571.489 215.197Z" fill="white"/>
<path d="M607.076 413.862L581.996 492.88L573.08 520.967L568.055 536.854L562.141 555.781L560.022 562.584L559.636 563.641C559.529 563.798 534.15 555.725 534.15 555.725L499.829 544.933C499.758 544.836 503.091 534.36 503.091 534.36L518.598 485.304C518.679 485.314 525.665 463.202 525.665 463.202L538.062 424.141C542.198 414.782 546.334 405.418 550.475 395.978L594.699 409.95L607.076 413.862Z" fill="#FF9292"/>
<path d="M502.703 729.006C495.133 731.134 445.29 744.797 437.46 730.134C435.931 727.273 434.96 721.374 443.273 709.063C447.048 697.763 450.818 686.464 454.593 675.164L457.606 666.191L458.388 664.052L461.315 655.318L462.163 652.752L465.176 643.784L466.025 641.219L468.921 632.566L469.739 630.076L472.574 621.581L473.453 618.934L476.466 609.966C476.933 609.417 477.111 608.945 477.045 608.381L480.414 598.194L480.82 597.081L488.254 574.802C490.388 568.928 492.516 563.055 494.65 557.186C513.993 564.742 533.341 572.292 552.684 579.847L551.983 582.016L548.711 591.701L502.703 729.006Z" fill="#FF9292"/>
<path d="M558.838 572.311C558.305 574.882 557.37 577.367 556.11 579.79C554.967 582.066 553.437 584.18 551.684 586.161C551.359 586.512 551.054 586.781 550.648 587.117C538.942 599.097 519.152 599.174 505.906 587.122C496.095 578.296 492.523 565.239 495.632 553.903L496.948 549.986C496.984 549.823 497.014 549.666 497.131 549.518C498.406 546.602 500.149 543.863 502.339 541.384C503.315 540.327 504.366 539.291 505.469 538.432C508.401 536.024 511.713 534.2 515.229 533.001C516.037 532.752 516.921 532.513 517.79 532.36C528.023 529.881 539.541 532.523 548.204 540.439C551.242 543.162 553.615 546.256 555.424 549.645C559.311 556.743 560.49 564.776 558.838 572.311Z" fill="#FF9292"/>
<path d="M499.987 572.678C496.705 572.592 493.916 570.6 492.676 567.608C492.544 567.282 492.696 566.912 493.016 566.774C493.347 566.647 493.718 566.795 493.845 567.12C494.891 569.65 497.233 571.332 499.809 571.403C502.929 571.469 505.79 569.183 506.526 565.916C506.613 565.58 506.948 565.357 507.283 565.438C507.624 565.519 507.837 565.86 507.766 566.2C506.913 569.986 503.661 572.678 499.987 572.678Z" fill="#F25353"/>
<path d="M545.029 585.561C544.78 585.561 544.547 585.419 544.445 585.175C544.313 584.85 544.46 584.479 544.78 584.342L552.026 581.247C552.346 581.12 552.722 581.258 552.859 581.578C552.991 581.903 552.844 582.274 552.524 582.411L545.278 585.505C545.197 585.546 545.111 585.561 545.029 585.561Z" fill="#F25353"/>
<path d="M570.15 757.203C570.241 759.921 572.024 761.979 573.523 763.387C622.98 766.196 672.534 769.006 721.996 771.912C723.215 768.727 723.871 765.82 724.242 763.295C724.897 758.987 724.43 755.425 723.774 752.803C723.866 752.712 723.774 752.615 723.774 752.524C717.967 747.28 710.752 741.656 701.947 736.412C684.337 725.829 667.57 721.053 655.391 718.711C655.483 718.523 651.082 718.523 651.082 718.523C649.304 718.431 647.429 718.431 645.651 718.431C643.121 718.431 640.596 718.523 638.065 718.431H634.6C620.643 718.34 606.594 718.34 592.637 718.243H586.83C586.738 719.366 586.454 720.494 586.363 721.52C584.676 732.292 582.151 739.222 579.524 743.536C579.336 743.912 579.056 744.283 578.777 744.755C578.401 745.319 578.121 745.786 577.745 746.254C576.902 747.285 575.967 748.129 575.215 748.876C574.184 749.811 571.283 752.249 570.531 755.247C570.241 755.892 570.15 756.548 570.15 757.203Z" fill="#FF9292"/>
<path d="M570.15 757.198C570.241 759.916 572.025 761.974 573.523 763.382C622.981 766.191 672.534 769.001 721.996 771.907C723.216 768.722 723.871 765.815 724.242 763.29C724.897 758.982 724.43 755.42 723.775 752.798C723.866 752.707 723.775 752.61 723.775 752.519C722.098 750.41 719.659 747.6 716.412 744.613C710.762 739.41 705.687 736.458 702.557 734.66C688.585 726.637 671.594 722.476 666.696 721.343C645.382 738.145 633.315 738.724 626.166 735.848C619.739 733.262 596.179 719.366 592.633 718.238C590.57 717.583 588.7 717.583 586.825 718.238C580.266 721.048 579.331 733.791 579.519 743.531C579.331 743.907 579.051 744.278 578.772 744.75C578.396 745.314 578.117 745.781 577.741 746.249C576.897 747.28 575.962 748.124 575.21 748.871C574.179 749.806 571.278 752.244 570.526 755.242C570.241 755.887 570.15 756.543 570.15 757.198Z" fill="#FF2468"/>
<path d="M570.522 771.874H724.172C725.89 771.874 727.282 770.482 727.282 768.764V763.16C727.282 761.443 725.89 760.051 724.172 760.051H570.522C568.805 760.051 567.413 761.443 567.413 763.16V768.764C567.418 770.482 568.81 771.874 570.522 771.874Z" fill="#84DBEF"/>
<path d="M524.112 757.203C524.016 759.921 522.237 761.979 520.738 763.387C471.281 766.196 421.728 769.006 372.266 771.912C371.046 768.727 370.391 765.82 370.02 763.295C369.365 758.987 369.832 755.425 370.487 752.803C370.396 752.712 370.487 752.615 370.487 752.524C376.295 747.28 383.51 741.656 392.315 736.412C409.925 725.829 426.692 721.053 438.871 718.711C438.779 718.523 443.179 718.523 443.179 718.523C444.957 718.431 446.832 718.431 448.611 718.431C451.141 718.431 453.666 718.523 456.196 718.431H459.662C473.619 718.34 487.672 718.34 501.629 718.243H507.437C507.528 719.366 507.813 720.494 507.904 721.52C509.591 732.292 512.116 739.222 514.743 743.536C514.931 743.912 515.211 744.283 515.49 744.755C515.866 745.319 516.145 745.786 516.521 746.254C517.365 747.285 518.3 748.129 519.052 748.876C520.083 749.811 522.984 752.249 523.736 755.247C524.016 755.892 524.112 756.548 524.112 757.203Z" fill="#FF9292"/>
<path d="M524.101 757.198C524.004 759.916 522.226 761.974 520.727 763.382C471.27 766.191 421.716 769.001 372.254 771.907C371.035 768.722 370.379 765.815 370.008 763.29C369.353 758.982 369.82 755.42 370.476 752.798C370.384 752.707 370.476 752.61 370.476 752.519C372.153 750.41 374.591 747.6 377.838 744.613C383.488 739.41 388.564 736.458 391.693 734.66C405.666 726.637 422.661 722.476 427.554 721.343C448.868 738.145 460.935 738.724 468.084 735.848C474.511 733.262 498.071 719.366 501.618 718.238C503.681 717.583 505.55 717.583 507.425 718.238C513.985 721.048 514.919 733.791 514.732 743.531C514.919 743.907 515.199 744.278 515.478 744.75C515.854 745.314 516.134 745.781 516.51 746.249C517.353 747.28 518.288 748.124 519.04 748.871C520.071 749.806 522.973 752.244 523.725 755.242C524.004 755.887 524.101 756.543 524.101 757.198Z" fill="#FF2468"/>
<path d="M523.715 771.874H370.065C368.347 771.874 366.955 770.482 366.955 768.764V763.16C366.955 761.443 368.347 760.051 370.065 760.051H523.715C525.432 760.051 526.824 761.443 526.824 763.16V768.764C526.824 770.482 525.432 771.874 523.715 771.874Z" fill="#84DBEF"/>
<path d="M616.4 301.887C618.935 304.9 621.45 308.02 624.031 311.094C626.323 313.888 628.665 316.749 631.002 319.614C631.861 320.732 632.745 321.743 633.67 322.82C636.119 325.986 638.746 329.126 641.306 332.311C642.826 334.115 644.243 335.904 645.762 337.712C647.683 340.1 649.578 342.316 651.499 344.704C651.605 344.724 651.585 344.831 651.631 344.897C653.043 346.685 654.583 348.382 655.955 350.099C658.383 353.092 660.827 355.973 663.19 359.006C663.718 359.499 664.053 360.124 664.622 360.683C673.483 353.097 682.339 345.517 691.2 337.931C688.629 333.897 685.906 329.781 683.162 325.772L676.7 316.332C675.353 314.503 674.027 312.562 672.63 310.667C668.626 304.956 665.136 300.134 662.128 296.019C650.548 280.492 645.661 275.294 645.661 275.294C643.008 272.139 639.97 268.821 636.515 265.452C631.795 260.854 627.166 257.018 622.888 253.833C623.31 260.473 623.29 268.684 622.05 277.977C620.795 287.447 618.6 295.511 616.4 301.887Z" fill="#FF9292"/>
<path d="M580.764 693.473C605.94 692.299 631.115 691.131 656.286 689.962C661.001 645.779 663.191 592.73 658.552 533.106C655.092 488.664 648.471 448.728 640.759 414.057C622.32 425.819 603.887 437.581 585.448 449.343C583.889 530.718 582.324 612.098 580.764 693.473Z" fill="#84DBEF"/>
<path d="M446.912 676.892C472.153 684.696 497.39 692.505 522.632 700.31C547.35 617.827 572.068 535.339 596.787 452.857C611.689 441.008 626.591 429.16 641.488 417.311C640.701 412.561 639.908 407.805 639.12 403.054C607.573 402.48 576.031 401.911 544.484 401.337C511.962 493.194 479.434 585.04 446.912 676.892Z" fill="#84DBEF"/>
<path d="M539.798 411.287C545.026 415.133 575.11 436.523 612.977 428.267C631.329 424.263 644.164 414.904 651.033 408.945C644.982 377.525 638.935 346.105 632.884 314.685C619.643 289.89 606.403 265.1 593.162 240.306C581.811 241.485 570.466 242.663 559.115 243.842C551.352 271.284 543.593 298.726 535.83 326.167C537.156 354.549 538.477 382.92 539.798 411.287Z" fill="#232996"/>
<path d="M557.377 248.73C570.745 246.992 584.112 245.249 597.485 243.512C596.931 238.355 596.378 233.198 595.824 228.041C582.944 229.534 570.064 231.033 557.184 232.527C557.245 237.928 557.311 243.329 557.377 248.73Z" fill="#232996"/>
<path d="M422.496 283.033C425.352 297.925 431.464 318.772 445.543 340.086C456.731 357.026 469.53 369.088 480.042 377.314C484.742 382.14 492.774 383.055 499.522 379.778C507.702 375.81 512.656 366.344 509.79 358.474C490.701 327.232 471.613 295.984 452.524 264.737L422.496 283.033Z" fill="#FF9292"/>
<path d="M543.049 179.188C551.508 187.073 557.107 188.064 560.74 187.353C562.585 186.992 565.242 186.006 569.378 186.184C573.265 186.352 576.135 187.673 576.694 187.942C581.348 190.152 583.884 194.049 587.527 199.796C590.672 204.76 591.21 207.813 592.78 207.778C594.548 207.737 595.9 203.926 596.748 200.822C597.912 198.561 599.533 194.608 599.527 189.553C599.517 179.066 592.526 172.212 591.037 170.819C583.421 167.41 576.816 166.028 572.304 165.403C563.27 164.153 553.734 162.832 547.779 168.614C544.37 171.917 543.379 176.347 543.049 179.188Z" fill="#FF2468"/>
<path d="M587.346 201.425C587.346 204.936 589.769 207.776 592.757 207.776C595.744 207.776 598.168 204.931 598.168 201.425C598.168 197.914 595.744 195.074 592.757 195.074C589.769 195.074 587.346 197.919 587.346 201.425Z" fill="#FF9292"/>
<path d="M579.416 472.222C579.024 472.197 578.755 471.897 578.781 471.546L581.316 434.466C581.346 434.116 581.641 433.836 581.997 433.877C582.342 433.897 582.612 434.202 582.586 434.553L580.051 471.633C580.025 471.968 579.751 472.222 579.416 472.222Z" fill="white"/>
<path d="M588.89 479.74C588.768 479.74 588.641 479.704 588.529 479.628L579.002 473.079C578.713 472.88 578.642 472.484 578.845 472.195C579.038 471.905 579.424 471.834 579.729 472.032L589.255 478.581C589.545 478.779 589.616 479.176 589.413 479.465C589.296 479.643 589.093 479.74 588.89 479.74Z" fill="white"/>
<path d="M585.327 493.468C584.824 493.362 584.621 493.011 584.712 492.671L588.289 478.942C588.381 478.607 588.736 478.414 589.062 478.49C589.402 478.581 589.605 478.927 589.519 479.267L585.942 492.996C585.871 493.28 585.612 493.468 585.327 493.468Z" fill="white"/>
<path d="M593.424 469.596C593.013 469.561 592.759 469.251 592.794 468.9L595.944 436.992C595.975 436.642 596.209 436.367 596.641 436.423C596.986 436.459 597.24 436.769 597.204 437.119L594.054 469.027C594.024 469.347 593.75 469.596 593.424 469.596Z" fill="white"/>
<path d="M582.82 680.942C582.479 680.942 582.195 680.668 582.184 680.323C582.174 679.972 582.454 679.682 582.804 679.672L654.424 677.914C654.78 677.914 655.064 678.189 655.074 678.534C655.085 678.885 654.805 679.174 654.455 679.185L582.835 680.942H582.82Z" fill="white"/>
<path d="M522.501 690.013C522.298 689.978 455.555 667.144 455.555 667.144C455.225 667.033 455.042 666.672 455.159 666.336C455.271 666.006 455.662 665.828 455.962 665.94L522.704 688.774C523.034 688.885 523.217 689.246 523.1 689.581C523.014 689.851 522.765 690.013 522.501 690.013Z" fill="white"/>
<path d="M558.18 352.85H584.819C587.756 352.85 590.139 350.467 590.139 347.531V297.378C590.139 294.441 587.756 292.058 584.819 292.058H558.18C555.244 292.058 552.861 294.441 552.861 297.378V347.531C552.861 350.467 555.244 352.85 558.18 352.85Z" fill="#FF2468"/>
<path d="M561.89 304.718C564.09 304.718 565.873 302.935 565.873 300.735C565.873 298.535 564.09 296.751 561.89 296.751C559.69 296.751 557.907 298.535 557.907 300.735C557.907 302.935 559.69 304.718 561.89 304.718Z" fill="white"/>
<path d="M571.792 349.754C584.931 357.325 604.706 366.318 630.039 369.59C650.175 372.191 667.668 370.383 680.761 367.796C687.488 367.395 693.423 361.908 695.354 354.657C697.696 345.873 693.763 335.94 685.934 332.962C649.809 326.997 613.684 321.027 577.559 315.062L571.792 349.754Z" fill="#FF9292"/>
<path d="M632.311 321.136C617.287 318.499 602.258 315.867 587.234 313.23C585.476 329.332 583.723 345.433 581.965 361.529C599.626 364.847 617.287 368.165 634.948 371.482C667.486 381.405 693.546 373.504 698.764 359.771C699.48 357.886 702.138 349.746 693.495 336.059C685.472 317.092 667.567 282.847 630.558 257.605C618.822 249.603 607.339 243.983 597.106 239.99C591.964 241.372 586.817 242.759 581.676 244.141C598.549 269.809 615.433 295.473 632.311 321.136Z" fill="#232996"/>
<path d="M636.993 323.519C636.892 323.514 586.932 315.684 586.932 315.684C586.586 315.628 586.353 315.303 586.403 314.958C586.454 314.617 586.744 314.389 587.13 314.429L637.095 322.259C637.441 322.315 637.674 322.64 637.619 322.985C637.578 323.295 637.303 323.519 636.993 323.519Z" fill="white"/>
<path d="M637.017 323.523C636.687 323.523 636.407 323.264 636.382 322.929C636.362 322.578 636.626 322.278 636.976 322.253L650.238 321.384C650.502 321.369 650.888 321.623 650.913 321.974C650.934 322.324 650.669 322.624 650.319 322.649L637.058 323.518C637.048 323.523 637.032 323.523 637.017 323.523Z" fill="white"/>
<path d="M636.988 323.522C636.754 323.522 636.53 323.395 636.424 323.172L615.846 282.19C615.689 281.875 615.811 281.494 616.131 281.336C616.441 281.184 616.827 281.316 616.979 281.621L637.557 322.603C637.714 322.918 637.592 323.299 637.272 323.456C637.181 323.502 637.084 323.522 636.988 323.522Z" fill="white"/>
<path d="M644.28 374.532C636.46 374.466 628.646 373.653 621.05 372.109C607.403 369.339 594.319 364.233 582.181 356.937C581.876 356.759 581.785 356.368 581.963 356.068C582.141 355.763 582.532 355.672 582.837 355.855C594.853 363.075 607.794 368.125 621.299 370.869C628.824 372.398 636.557 373.201 644.285 373.267C644.635 373.272 644.92 373.557 644.915 373.907C644.91 374.253 644.625 374.532 644.28 374.532Z" fill="white"/>
<path d="M550.915 345.425C557.865 346.863 564.821 348.306 571.771 349.744C576.182 338.592 580.587 327.439 584.997 316.287C587.004 311.8 589.011 307.314 591.023 302.833C591.627 300.693 591.577 299.332 590.875 298.732C588.99 297.137 582.406 301.09 571.116 310.586C564.237 309.366 557.357 308.147 550.478 306.928C549.726 311.998 549.187 317.852 549.162 324.345C549.126 332.378 549.893 339.486 550.915 345.425Z" fill="#FF9292"/>
<path d="M602.443 746.465C605.103 746.465 607.259 744.309 607.259 741.649C607.259 738.989 605.103 736.832 602.443 736.832C599.782 736.832 597.626 738.989 597.626 741.649C597.626 744.309 599.782 746.465 602.443 746.465Z" fill="#082C7C"/>
<path d="M491.804 741.649C491.804 744.311 493.958 746.465 496.621 746.465C499.283 746.465 501.437 744.311 501.437 741.649C501.437 738.986 499.283 736.832 496.621 736.832C493.958 736.832 491.804 738.991 491.804 741.649Z" fill="#082C7C"/>
<path d="M452.508 264.743C442.499 270.84 432.489 276.942 422.48 283.039C420.986 268.259 419.493 253.483 417.994 238.703C417.76 235.558 416.327 215.153 420.59 214.147C425.229 213.055 434.004 235.543 434.872 237.804C440.751 246.782 446.629 255.765 452.508 264.743Z" fill="#FF9292"/>
<path d="M429.476 262.107C427.144 269.083 424.812 276.059 422.48 283.035C421.001 282.593 417.16 281.232 414.167 277.416C410.143 272.279 410.651 266.502 410.789 265.262C410.24 255.568 410.347 248.104 410.565 242.978C410.646 241.083 410.763 238.984 411.688 238.7C413.578 238.126 417.511 245.508 420.691 252.205C423.623 255.502 426.549 258.805 429.476 262.107Z" fill="#FF9292"/>
<path d="M509.028 375.547C499.4 383.935 491.55 385.525 486.388 385.535C461.177 385.596 434.578 348.217 424.168 290.828C433.212 280.128 442.255 269.428 451.294 258.728C463.793 280.535 476.297 302.347 488.796 324.154C495.127 311.192 501.346 300.767 506.254 293.145C527.898 259.53 542.308 251.95 548.186 249.277C551.9 247.59 555.117 246.544 557.301 245.914C551.336 273.371 545.371 300.827 539.406 328.279C529.285 344.04 519.154 359.796 509.028 375.547Z" fill="#232996"/>
<path d="M536 330.561C535.669 330.561 535.385 330.302 535.365 329.967L533.993 307.997C533.972 307.647 534.237 307.347 534.587 307.322C534.973 307.357 535.243 307.565 535.263 307.916L536.635 329.886C536.655 330.236 536.391 330.536 536.04 330.561C536.025 330.561 536.015 330.561 536 330.561Z" fill="white"/>
</svg>
