<svg width="299" height="199" viewBox="0 0 299 199" fill="none" xmlns="http://www.w3.org/2000/svg">
<path opacity="0.2" d="M147.67 198.258C228.854 198.258 294.667 194.99 294.667 190.957C294.667 186.925 228.854 183.656 147.67 183.656C66.4864 183.656 0.673828 186.925 0.673828 190.957C0.673828 194.99 66.4864 198.258 147.67 198.258Z" fill="#8651F5"/>
<path opacity="0.3" d="M58.0364 105.726V99.3466L53.0435 98.9798C52.6181 97.0328 51.851 95.2148 50.8085 93.5892L54.0812 89.7976L49.5706 85.287L45.779 88.5597C44.1534 87.5172 42.3354 86.7496 40.3884 86.3247L40.0216 81.3318H33.6423L33.2755 86.3247C31.3284 86.7501 29.5105 87.5172 27.8849 88.5602L24.0932 85.2875L19.5826 89.7981L22.8553 93.5897C21.8128 95.2154 21.0452 97.0333 20.6204 98.9803L15.6274 99.3472V105.726L20.6204 106.093C21.0457 108.04 21.8128 109.858 22.8558 111.484L19.5831 115.275L24.0938 119.786L27.8854 116.513C29.511 117.556 31.329 118.323 33.276 118.748L33.6428 123.741H40.0216L40.3884 118.748C42.3354 118.323 44.1534 117.556 45.779 116.513L49.5706 119.786L54.0812 115.275L50.8085 111.484C51.8515 109.858 52.6186 108.04 53.0435 106.093L58.0364 105.726ZM48.1838 102.536C48.1838 108.806 43.1015 113.888 36.8319 113.888C30.5624 113.888 25.4801 108.806 25.4801 102.536C25.4801 96.2667 30.5624 91.1844 36.8319 91.1844C43.1015 91.1844 48.1838 96.2667 48.1838 102.536Z" fill="white"/>
<path opacity="0.3" d="M35.4773 75.6289V73.1374L33.5272 72.9942C33.361 72.2339 33.0616 71.5238 32.654 70.8889L33.9321 69.408L32.1706 67.6465L30.6897 68.9246C30.0548 68.5176 29.3447 68.2176 28.5844 68.0515L28.4412 66.1013H25.9497L25.8065 68.0515C25.0462 68.2176 24.3361 68.5171 23.7012 68.9246L22.2203 67.6465L20.4587 69.408L21.7369 70.8889C21.3298 71.5238 21.0299 72.2339 20.8637 72.9942L18.9136 73.1374V75.6289L20.8637 75.7721C21.0299 76.5324 21.3293 77.2426 21.7369 77.8775L20.4587 79.3584L22.2203 81.1199L23.7012 79.8417C24.3361 80.2488 25.0462 80.5487 25.8065 80.7149L25.9497 82.6651H28.4412L28.5844 80.7149C29.3447 80.5487 30.0548 80.2493 30.6897 79.8417L32.1706 81.1199L33.9321 79.3584L32.654 77.8775C33.061 77.2426 33.361 76.5324 33.5272 75.7721L35.4773 75.6289ZM31.6293 74.3832C31.6293 76.8318 29.6441 78.8165 27.196 78.8165C24.7473 78.8165 22.7627 76.8313 22.7627 74.3832C22.7627 71.9345 24.7478 69.9499 27.196 69.9499C29.6446 69.9499 31.6293 71.935 31.6293 74.3832Z" fill="white"/>
<path d="M44.893 154.745C38.324 149.418 33.6284 142.008 30.746 134.057C27.8636 126.106 26.7182 117.612 26.458 109.158C26.3921 107.021 26.4193 104.745 27.5762 102.948C28.7331 101.15 31.442 100.199 33.0693 101.585C34.2387 102.581 34.407 104.294 34.4911 105.828C35.0152 115.406 35.1835 125.082 36.065 134.633C36.7888 142.472 39.6184 149.901 45.3544 155.466" fill="url(#paint0_linear_1_4051)"/>
<g opacity="0.4">
<path d="M34.8222 140.442C34.7072 140.442 34.6017 140.365 34.5698 140.249C31.4591 128.852 30.0884 117.086 30.4966 105.279C30.5023 105.135 30.6293 105.028 30.7672 105.027C30.9109 105.032 31.0238 105.153 31.0191 105.298C30.6126 117.052 31.9769 128.765 35.0741 140.112C35.1117 140.252 35.0302 140.395 34.8907 140.433C34.8682 140.439 34.8447 140.442 34.8222 140.442Z" fill="#40AFBF"/>
</g>
<path d="M21.9953 122.688C21.618 121.144 21.2872 119.529 21.6326 117.978C21.978 116.427 23.182 114.958 24.7632 114.804C26.2556 114.66 27.6529 115.721 28.3787 117.033C29.1045 118.344 29.3026 119.873 29.5116 121.357C31.1315 132.86 34.2062 144.158 38.6395 154.895C37.7867 152.857 35.3166 150.969 33.9904 149.146C32.0862 146.528 30.4235 143.698 28.9091 140.84C25.8694 135.105 23.5368 128.993 21.9953 122.688Z" fill="url(#paint1_linear_1_4051)"/>
<g opacity="0.5">
<path d="M33.7685 145.339C33.6728 145.339 33.5814 145.287 33.5354 145.196C29.2098 136.594 26.2349 127.416 24.6944 117.914C24.6709 117.772 24.7681 117.638 24.9102 117.615C25.0503 117.59 25.1867 117.689 25.2097 117.831C26.7423 127.28 29.7004 136.408 34.0015 144.961C34.0663 145.09 34.0146 145.247 33.8855 145.312C33.8479 145.33 33.8082 145.339 33.7685 145.339Z" fill="#40AFBF"/>
</g>
<path d="M25.4209 173.779C23.2256 169.98 23.3406 165.029 20.5653 161.631C18.3001 158.858 14.4405 157.581 12.6273 154.493C9.5056 149.177 14.2007 142.05 11.8545 136.349C10.0052 131.856 4.31043 129.675 2.95598 125.009C2.05145 121.893 3.64366 118.243 6.54276 116.786C9.44185 115.329 13.3207 116.23 15.2813 118.815C17.6798 121.978 17.3741 127.056 20.7284 129.179C22.9252 130.569 25.9946 130.113 28.0299 131.731C30.5397 133.727 30.1222 137.594 31.2535 140.594C32.5693 144.084 35.9523 146.266 38.5154 148.975C42.3937 153.075 44.5216 158.779 44.2754 164.418C44.0826 168.845 41.936 176.395 37.7216 178.807C33.6567 181.132 27.4645 177.316 25.4209 173.779Z" fill="url(#paint2_linear_1_4051)"/>
<path d="M18.7004 170.954C16.4717 169.367 13.1598 169.53 11.3727 167.458C9.76426 165.593 10.1264 162.781 9.35562 160.442C8.64182 158.275 6.97228 156.58 5.36231 154.964C3.75234 153.347 2.09429 151.635 1.41446 149.457C0.734624 147.279 1.38572 144.504 3.44404 143.52C5.86814 142.36 8.70662 144.191 10.3061 146.35C11.9057 148.51 13.0088 151.154 15.2322 152.663C17.5685 154.25 20.8355 154.343 22.7459 156.423C24.3042 158.119 24.4876 160.637 25.4726 162.72C26.7189 165.355 29.1769 167.166 31.4401 169.003C36.4372 173.062 39.4894 180.793 31.3445 183.289C21.8085 186.212 23.9807 174.715 18.7004 170.954Z" fill="url(#paint3_linear_1_4051)"/>
<g opacity="0.5">
<path d="M31.5727 177.939C31.5026 177.939 31.4321 177.911 31.3814 177.855C22.5995 168.382 13.8536 158.635 5.38463 148.885C5.29005 148.775 5.30207 148.611 5.41076 148.516C5.51997 148.421 5.68458 148.433 5.77968 148.542C14.2444 158.288 22.9872 168.032 31.7639 177.5C31.8627 177.606 31.8559 177.772 31.7503 177.869C31.7002 177.916 31.6364 177.939 31.5727 177.939Z" fill="white"/>
<path d="M18.7633 163.908C18.6222 163.908 18.5067 163.796 18.502 163.655L18.3097 157.648C18.305 157.504 18.4184 157.383 18.5626 157.378C18.7063 157.383 18.8276 157.488 18.8323 157.631L19.0246 163.638C19.0293 163.782 18.9159 163.903 18.7716 163.908C18.769 163.908 18.7659 163.908 18.7633 163.908Z" fill="white"/>
<path d="M21.0074 166.394C20.8631 166.394 20.7461 166.277 20.7461 166.133V159.895C20.7461 159.751 20.8631 159.634 21.0074 159.634C21.1516 159.634 21.2686 159.751 21.2686 159.895V166.133C21.2686 166.277 21.1521 166.394 21.0074 166.394Z" fill="white"/>
<path d="M16.0773 160.904C16.0632 160.904 16.0486 160.903 16.0339 160.9L11.5338 160.153C11.3911 160.129 11.2955 159.994 11.319 159.852C11.343 159.71 11.4742 159.612 11.6195 159.637L16.1196 160.385C16.2618 160.408 16.3579 160.543 16.3344 160.685C16.313 160.813 16.2027 160.904 16.0773 160.904Z" fill="white"/>
<path d="M10.0865 154.141C9.94539 154.141 9.82938 154.028 9.8252 153.887L9.70763 149.674C9.70345 149.53 9.81737 149.41 9.96159 149.405C10.1095 149.402 10.226 149.515 10.2302 149.659L10.3478 153.872C10.3519 154.016 10.238 154.137 10.0938 154.141C10.0907 154.141 10.0891 154.141 10.0865 154.141Z" fill="white"/>
<path d="M28.3134 174.414C28.2956 174.414 28.2778 174.412 28.259 174.408L22.6296 173.233C22.4885 173.204 22.3981 173.066 22.4274 172.924C22.4566 172.782 22.5941 172.691 22.7367 172.722L28.3661 173.896C28.5072 173.926 28.5976 174.064 28.5684 174.206C28.5428 174.329 28.4341 174.414 28.3134 174.414Z" fill="white"/>
</g>
<g opacity="0.4">
<path d="M36.8371 170.03C36.7467 170.03 36.6584 169.983 36.6098 169.899L8.88545 121.31C8.81386 121.185 8.85775 121.025 8.98316 120.954C9.10753 120.884 9.26795 120.926 9.34006 121.051L37.0644 169.639C37.136 169.764 37.0921 169.924 36.9667 169.996C36.9259 170.019 36.881 170.03 36.8371 170.03Z" fill="#40AFBF"/>
<path d="M27.3452 153.4C27.3264 153.4 27.3071 153.398 27.2878 153.393L16.7929 151.025C16.6518 150.993 16.564 150.853 16.5959 150.712C16.6272 150.571 16.7662 150.483 16.9084 150.515L27.4032 152.883C27.5443 152.915 27.6326 153.055 27.6002 153.196C27.5731 153.318 27.4654 153.4 27.3452 153.4Z" fill="#40AFBF"/>
<path d="M23.5118 146.677C23.5034 146.677 23.4961 146.677 23.4882 146.676C23.3445 146.664 23.2385 146.536 23.251 146.393L24.2789 134.819C24.2914 134.674 24.4247 134.572 24.5621 134.582C24.7058 134.594 24.8124 134.722 24.7993 134.865L23.7715 146.439C23.7594 146.575 23.6455 146.677 23.5118 146.677Z" fill="#40AFBF"/>
<path d="M20.2033 140.89C20.1934 140.89 20.184 140.889 20.174 140.888C20.0309 140.872 19.9269 140.743 19.9431 140.6L20.7431 133.359C20.7588 133.215 20.8889 133.11 21.0315 133.128C21.1747 133.143 21.2787 133.272 21.2625 133.416L20.4625 140.657C20.4478 140.791 20.3345 140.89 20.2033 140.89Z" fill="#40AFBF"/>
<path d="M13.1133 128.455C13.0871 128.455 13.061 128.451 13.0354 128.443L7.92278 126.838C7.78483 126.795 7.70853 126.648 7.75191 126.511C7.79475 126.373 7.94159 126.298 8.07902 126.34L13.1916 127.944C13.3296 127.988 13.4059 128.135 13.363 128.272C13.3275 128.384 13.2246 128.455 13.1133 128.455Z" fill="#40AFBF"/>
</g>
<path opacity="0.4" d="M245.761 113.946C243.921 113.946 242.424 115.442 242.424 117.282C242.424 119.122 243.921 120.619 245.761 120.619C247.601 120.619 249.098 119.122 249.098 117.282C249.098 115.442 247.601 113.946 245.761 113.946ZM245.761 119.566C244.502 119.566 243.478 118.542 243.478 117.282C243.478 116.023 244.502 114.999 245.761 114.999C247.02 114.999 248.044 116.023 248.044 117.282C248.044 118.542 247.02 119.566 245.761 119.566ZM252.888 122.919L251.4 121.431C251.125 121.156 250.736 121.069 250.386 121.162L249.892 120.668C250.65 119.746 251.105 118.567 251.105 117.282C251.105 114.336 248.708 111.939 245.761 111.939C242.814 111.939 240.417 114.336 240.417 117.282C240.417 120.229 242.814 122.626 245.761 122.626C247.045 122.626 248.224 122.171 249.147 121.413L249.64 121.907C249.548 122.257 249.635 122.646 249.91 122.921L251.398 124.409C251.603 124.615 251.873 124.718 252.143 124.718C252.413 124.718 252.682 124.615 252.888 124.409C253.299 123.998 253.299 123.331 252.888 122.919ZM241.471 117.282C241.471 114.917 243.396 112.992 245.761 112.992C248.127 112.992 250.051 114.916 250.051 117.282C250.051 119.648 248.127 121.573 245.761 121.573C243.396 121.573 241.471 119.648 241.471 117.282Z" fill="#8F50F2"/>
<path d="M226.631 165.009V165.706H274.319C275.245 165.706 275.995 164.956 275.995 164.03V161.798C275.995 160.872 275.245 160.121 274.319 160.121H226.631V160.819H227.088V165.008L226.631 165.009Z" fill="#FFD054"/>
<path d="M227.088 160.819H266.579C267.354 160.819 267.983 161.448 267.983 162.223V163.605C267.983 164.38 267.354 165.009 266.579 165.009H227.088V160.819Z" fill="white"/>
<path d="M223.542 172.759V173.457H279.611C280.537 173.457 281.288 172.707 281.288 171.781V167.383C281.288 166.457 280.537 165.707 279.611 165.707H223.542V166.405H224V172.759H223.542V172.759Z" fill="#FF647E"/>
<path d="M280.061 166.099H272.653C273.019 166.406 273.253 166.868 273.253 167.383V171.781C273.253 172.313 273.004 172.786 272.617 173.093H280.026C280.413 172.786 280.661 172.313 280.661 171.781V167.383C280.661 166.868 280.428 166.407 280.061 166.099Z" fill="#F35370"/>
<path d="M224 166.405H260.991C261.767 166.405 262.395 167.034 262.395 167.809V171.355C262.395 172.131 261.767 172.759 260.991 172.759H224V166.405Z" fill="white"/>
<path d="M225.1 190.22V190.958H284.401C285.38 190.958 286.173 190.164 286.173 189.185V183.83C286.173 182.85 285.38 182.057 284.401 182.057H225.1V182.795H225.583V190.221H225.1V190.22Z" fill="#BAB7F6"/>
<path d="M284.877 182.47H277.042C277.429 182.795 277.676 183.283 277.676 183.829V189.184C277.676 189.747 277.413 190.248 277.004 190.573H284.84C285.249 190.248 285.512 189.747 285.512 189.184V183.829C285.512 183.283 285.265 182.796 284.877 182.47Z" fill="#A39EE9"/>
<path d="M225.586 182.794H264.71C265.53 182.794 266.195 183.459 266.195 184.279V188.735C266.195 189.555 265.531 190.22 264.71 190.22H225.586V182.794Z" fill="white"/>
<path d="M272.66 164.194H274.611V161.634H272.66V164.194Z" fill="white"/>
<path d="M271.318 164.194H271.856V161.634H271.318V164.194Z" fill="white"/>
<path d="M220.344 181.358V182.056H276.413C277.339 182.056 278.089 181.305 278.089 180.379V175.137C278.089 174.211 277.339 173.46 276.413 173.46H220.344V174.158H220.801V181.357H220.344V181.358Z" fill="#E3E9FF"/>
<path d="M220.801 174.158H257.793C258.568 174.158 259.197 174.787 259.197 175.562V179.954C259.197 180.729 258.568 181.358 257.793 181.358H220.801V174.158Z" fill="white"/>
<path d="M269.104 180.163H276.485V176.03H269.104V180.163Z" fill="#BAB7F6"/>
<path d="M45.98 72.323L22.2375 187.187C21.8351 189.132 23.3212 190.957 25.308 190.957H98.8592L45.98 72.323Z" fill="#7733D6"/>
<path d="M49.1069 72.323L25.3644 187.187C24.9621 189.132 26.4482 190.957 28.4349 190.957H101.986L49.1069 72.323Z" fill="url(#paint4_linear_1_4051)"/>
<path opacity="0.4" d="M83.4045 149.269L82.5553 147.364H33.5946L33.2012 149.269H83.4045Z" fill="#381475"/>
<path opacity="0.4" d="M40.5185 113.865L40.125 115.77H68.4722L67.6231 113.865H40.5185Z" fill="#381475"/>
<path d="M266.078 190.956H96.332C93.202 190.956 89.6904 188.419 88.4886 185.289L46.3869 75.6107C45.185 72.4806 46.3529 68.9121 49.4835 68.9121H219.23C222.36 68.9121 225.872 71.4496 227.073 74.5797L269.57 185.289C270.772 188.419 269.208 190.956 266.078 190.956Z" fill="url(#paint5_linear_1_4051)"/>
<path d="M268.607 190.956H98.8608C95.7307 190.956 92.2192 188.419 91.0173 185.289L48.52 74.5797C47.3187 71.4496 48.8816 68.9121 52.0122 68.9121H221.758C224.888 68.9121 228.4 71.4496 229.602 74.5797L272.099 185.289C273.301 188.419 271.737 190.956 268.607 190.956Z" fill="#361371"/>
<path d="M245.92 129.934C246.76 132.124 245.667 133.899 243.477 133.899C241.287 133.899 238.83 132.124 237.989 129.934C237.149 127.744 238.242 125.969 240.432 125.969C242.622 125.969 245.079 127.744 245.92 129.934Z" fill="#7733D6"/>
<path d="M254.7 184.257H97.3188L80.2263 139.73L55.6143 75.6084H212.99L228.468 115.928L254.7 184.257Z" fill="url(#paint6_linear_1_4051)"/>
<g opacity="0.2">
<path d="M138.593 110.569H75.9422L64.9468 81.9248H127.597L138.593 110.569Z" fill="#D9B4F4"/>
<path d="M221.887 110.569H185.51L174.515 81.9248H210.891L221.887 110.569Z" fill="#D9B4F4"/>
<path d="M179.162 110.569H144.914L133.919 81.9248H168.167L179.162 110.569Z" fill="#D9B4F4"/>
<path d="M116.283 138.976H86.8467L78.0229 115.99H107.459L116.283 138.976Z" fill="#D9B4F4"/>
<path d="M127.346 167.793H97.9097L89.0859 144.806H118.522L127.346 167.793Z" fill="#D9B4F4"/>
<path d="M184.926 167.675H133.241L113.401 115.99H165.086L184.926 167.675Z" fill="#D9B4F4"/>
<path d="M226.582 122.8H174.349L171.734 115.99H223.967L226.582 122.8Z" fill="#D9B4F4"/>
<path d="M231.215 134.864H178.982L176.368 128.054H228.602L231.215 134.864Z" fill="#D9B4F4"/>
<path d="M235.845 146.928H183.612L180.998 140.117H233.231L235.845 146.928Z" fill="#D9B4F4"/>
<path d="M243.811 167.675H191.578L185.631 152.182H237.864L243.811 167.675Z" fill="#D9B4F4"/>
</g>
<path opacity="0.3" d="M164.207 131.999C162.621 130.477 160.689 129.438 158.806 129.04C158.376 127.611 157.887 126.122 157.267 124.508C156.959 123.705 156.06 123.056 155.258 123.056H128.969C128.167 123.056 127.767 123.705 128.074 124.508C128.694 126.122 129.348 127.611 130.016 129.04C128.437 129.438 127.304 130.477 126.886 131.999C126.346 133.967 127.075 136.438 128.839 138.604L129.936 139.95C131.437 141.795 133.53 143.209 135.678 143.832C136.473 144.062 137.247 144.175 137.975 144.175C138.892 144.175 139.734 143.993 140.451 143.638C143.911 146.587 147.368 148.084 150.409 148.447L151.482 151.242H145.642C144.84 151.242 144.44 151.891 144.747 152.694L147.391 159.581H145.746C144.944 159.581 144.544 160.23 144.851 161.032C145.159 161.835 146.058 162.484 146.861 162.484H149.958H164.539H167.637C168.438 162.484 168.839 161.834 168.531 161.032C168.223 160.23 167.324 159.581 166.523 159.581H164.878L162.234 152.694C161.926 151.891 161.027 151.242 160.225 151.242H154.386L153.313 148.447C156.075 148.084 158.382 146.586 159.579 143.638C160.569 143.993 161.55 144.175 162.467 144.175C163.195 144.175 163.882 144.062 164.5 143.832C166.17 143.209 167.177 141.794 167.262 139.95L167.325 138.604C167.425 136.437 166.259 133.967 164.207 131.999ZM135.519 141.072C134.264 140.707 133.04 139.881 132.162 138.802L131.065 137.455C130.02 136.171 129.604 134.764 129.925 133.596C130.146 132.789 130.703 132.239 131.477 131.965C133.483 135.713 135.636 138.739 137.837 141.118C137.162 141.315 136.365 141.315 135.519 141.072ZM164.217 137.455L164.154 138.802C164.104 139.881 163.515 140.707 162.54 141.072C161.882 141.316 161.085 141.316 160.257 141.118C160.632 138.739 160.463 135.713 159.59 131.964C160.575 132.239 161.553 132.788 162.394 133.595C163.612 134.764 164.276 136.171 164.217 137.455Z" fill="white"/>
<path opacity="0.3" d="M210.644 160.121C211.943 163.506 215.741 166.25 219.126 166.25C222.511 166.25 224.201 163.506 222.902 160.121C221.603 156.736 217.805 153.992 214.42 153.992C211.035 153.992 209.345 156.736 210.644 160.121Z" fill="white"/>
<path d="M215.465 158.251L216.901 161.992C217.073 162.441 216.848 162.806 216.399 162.806C215.95 162.806 215.445 162.441 215.272 161.992L213.836 158.251C213.664 157.802 213.889 157.437 214.338 157.437C214.787 157.437 215.292 157.802 215.465 158.251ZM217.15 157.437C216.701 157.437 216.476 157.802 216.649 158.251L218.085 161.992C218.257 162.441 218.762 162.806 219.211 162.806C219.66 162.806 219.885 162.441 219.713 161.992L218.277 158.251C218.104 157.802 217.599 157.437 217.15 157.437Z" fill="white"/>
<path opacity="0.3" d="M207.013 160.12C207.965 162.602 206.726 164.613 204.244 164.613C201.763 164.613 198.979 162.601 198.027 160.12C197.074 157.639 198.313 155.627 200.795 155.627C203.277 155.627 206.06 157.639 207.013 160.12Z" fill="white"/>
<path d="M203.188 158.375C203.008 158.31 202.845 158.346 202.772 158.464L202.012 159.698L201.651 158.757C201.587 158.589 201.428 158.439 201.25 158.375C201.07 158.31 200.907 158.346 200.834 158.464L199.993 159.828C199.894 159.989 199.994 160.251 200.218 160.412L202.104 161.775C202.214 161.854 202.335 161.897 202.443 161.897C202.496 161.897 202.546 161.887 202.589 161.865C202.718 161.801 202.761 161.65 202.697 161.484L202.336 160.543L204.043 161.776C204.152 161.855 204.274 161.897 204.381 161.897C204.435 161.897 204.484 161.887 204.527 161.866C204.657 161.802 204.699 161.651 204.636 161.484L203.589 158.757C203.525 158.589 203.366 158.439 203.188 158.375Z" fill="white"/>
<path opacity="0.3" d="M226.542 160.12C227.494 162.602 230.278 164.613 232.759 164.613C235.241 164.613 236.481 162.601 235.528 160.12C234.575 157.639 231.792 155.627 229.31 155.627C226.829 155.627 225.589 157.639 226.542 160.12Z" fill="white"/>
<path d="M233.338 159.828L231.451 158.464C231.287 158.346 231.097 158.31 230.967 158.375C230.837 158.439 230.794 158.59 230.858 158.757L231.22 159.698L229.513 158.464C229.349 158.346 229.159 158.31 229.028 158.375C228.899 158.439 228.856 158.59 228.92 158.757L229.966 161.484C230.031 161.651 230.189 161.801 230.368 161.865C230.427 161.887 230.485 161.897 230.538 161.897C230.646 161.897 230.735 161.855 230.784 161.775L231.543 160.542L231.905 161.483C231.969 161.65 232.128 161.801 232.306 161.865C232.366 161.886 232.423 161.896 232.477 161.896C232.584 161.896 232.674 161.854 232.722 161.775L233.563 160.412C233.661 160.251 233.561 159.989 233.338 159.828Z" fill="white"/>
<path opacity="0.3" d="M96.5058 124.091L95.5945 121.716H96.0757C96.6046 121.716 96.8684 121.288 96.6652 120.759C96.4624 120.23 95.8693 119.802 95.3405 119.802H91.7793C91.2505 119.802 90.9866 120.23 91.1894 120.759C91.3921 121.288 91.9852 121.716 92.5141 121.716H92.9953L93.9066 124.091C91.7078 124.675 90.7442 126.856 91.7433 129.458C92.9143 132.508 96.336 134.981 99.3861 134.981C102.436 134.981 103.96 132.508 102.789 129.458C101.791 126.856 99.1536 124.675 96.5058 124.091ZM92.1556 127.241C92.3176 126.04 93.0842 125.126 94.3456 124.791L94.8457 124.658L93.7164 121.716H94.8744L96.0036 124.658L96.6056 124.791C98.1241 125.126 99.5925 126.04 100.677 127.241H92.1556Z" fill="white"/>
<path opacity="0.3" d="M210.632 100.251L207.388 98.9385C208.005 98.011 208.378 96.354 207.272 93.4727C205.635 89.2113 202.169 87.3035 199.458 87.3035C196.749 87.3035 194.747 89.2113 196.383 93.4727C197.489 96.3545 199.133 98.011 200.463 98.939L199.417 99.553C199.094 99.3513 198.769 99.1705 198.439 99.0368L196.379 98.2038C196.768 97.4759 196.937 96.2688 196.184 94.3061C194.949 91.0904 192.322 89.6508 190.265 89.6508C188.21 89.6508 186.687 91.0899 187.922 94.3061C188.675 96.2688 189.77 97.4759 190.718 98.2038L189.297 99.0368C188.176 99.6952 187.829 101.104 188.414 102.629C188.562 103.013 188.992 103.324 189.376 103.324H196.71C196.735 103.851 196.844 104.405 197.063 104.976C197.21 105.36 197.641 105.671 198.025 105.671H214.994C215.378 105.671 215.57 105.36 215.422 104.976C214.653 102.972 212.773 101.117 210.632 100.251ZM198.252 104.282C198.159 103.813 198.165 103.369 198.257 102.967C198.288 102.829 198.332 102.699 198.384 102.574C198.401 102.534 198.421 102.495 198.44 102.456C198.483 102.365 198.532 102.279 198.586 102.197C198.614 102.155 198.642 102.114 198.672 102.074C198.731 101.998 198.795 101.927 198.863 101.859C198.896 101.826 198.926 101.791 198.962 101.76C199.059 101.674 199.164 101.597 199.278 101.527C199.289 101.52 199.297 101.512 199.308 101.506L199.784 101.226L200.161 101.006C200.161 101.006 200.161 101.005 200.162 101.004L202.384 99.7004C202.574 99.5891 202.638 99.3576 202.548 99.0995C202.459 98.8413 202.232 98.5999 201.959 98.4708C200.173 97.6275 198.687 95.8524 197.773 93.4721C196.42 89.9486 198.032 88.6934 199.991 88.6934C201.952 88.6934 204.528 89.9486 205.881 93.4721C206.794 95.8518 206.67 97.6269 205.532 98.4708C205.358 98.5999 205.317 98.8424 205.426 99.0995C205.535 99.3576 205.776 99.588 206.051 99.7004L210.513 101.505C211.834 102.039 213.021 103.087 213.701 104.281L198.252 104.282Z" fill="white"/>
<path d="M71.8191 124.774C71.9628 125.149 71.7757 125.453 71.4005 125.453C71.0253 125.453 70.6047 125.149 70.461 124.774C70.3173 124.399 70.5044 124.095 70.8796 124.095C71.2547 124.095 71.6754 124.4 71.8191 124.774Z" fill="#7733D6"/>
<path d="M75.3606 135.774C74.9854 135.774 74.5647 135.47 74.421 135.095L71.7837 128.225C71.64 127.85 71.8271 127.546 72.2023 127.546C72.5775 127.546 72.9982 127.85 73.1419 128.225L75.7792 135.095C75.9229 135.47 75.7353 135.774 75.3606 135.774Z" fill="#7733D6"/>
<path d="M287.895 111.295C289.587 143.365 287.148 188.088 287.148 188.088L289.716 190.958H279.629L279.713 117.713C279.713 117.296 279.349 116.972 278.935 117.021C278.644 117.056 278.406 117.268 278.34 117.553L261.417 190.958H249.855L254.663 188.088L270.612 111.604L287.895 111.295Z" fill="#481C95"/>
<path d="M287.649 82.7912C286.939 82.3026 284.893 81.9525 282.754 81.7304C280.623 81.5094 272.802 81.743 271.081 82.0623C268.95 82.4568 267.369 82.9673 266.354 83.3843C264.906 84.0082 263.846 85.2911 263.507 86.831L262.168 92.9219C264.066 94.9729 265.782 97.3013 266.715 99.8535L267.867 93.2469L269.847 115.213L287.033 111.481L289.285 113.938C289.285 113.938 298.938 100.23 299.001 99.2259C299.064 98.2221 289.947 84.3719 287.649 82.7912ZM287.507 106.646L286.323 92.2493L291.964 99.5122L287.507 106.646Z" fill="url(#paint7_linear_1_4051)"/>
<g opacity="0.2">
<path d="M271.427 113.516C271.335 113.516 271.253 113.45 271.235 113.356C271.215 113.25 271.284 113.148 271.391 113.127L284.803 110.548C284.907 110.527 285.012 110.598 285.032 110.704C285.053 110.81 284.983 110.913 284.877 110.934L271.464 113.512C271.452 113.514 271.439 113.516 271.427 113.516Z" fill="#323B72"/>
</g>
<path d="M284.372 108.941C284.372 108.941 287.061 107.367 287.733 107.923C288.405 108.479 288.318 109.436 288.353 109.759C288.389 110.083 289.51 110.464 289.634 111.491C289.757 112.519 290.601 113.104 290.555 113.962C290.509 114.821 289.104 115.212 288.74 115.304C288.375 115.397 287.785 113.557 287.785 113.557C287.785 113.557 286.857 113.668 286.667 113.41C286.476 113.153 285.828 111.625 285.828 111.625C285.828 111.625 284.66 111.215 284.509 111.011C284.358 110.807 284.194 110.195 284.194 110.195L284.854 109.788L284.372 108.941Z" fill="#F5BA9A"/>
<path d="M278.21 80.035C278.21 80.035 279.071 79.85 279.466 80.2895C279.86 80.7289 280.064 85.0493 279.369 85.1706C278.728 85.2824 276.645 82.9043 276.645 82.9043C276.645 82.9043 274.536 85.5223 273.866 85.239C273.249 84.9783 274.055 80.1311 275.436 80.1285C276.816 80.1254 278.21 80.035 278.21 80.035Z" fill="#481C95"/>
<path d="M269.541 69.2252C269.541 69.2252 269.569 71.4152 270.426 72.4158L270.593 68.781L269.541 69.2252Z" fill="url(#paint8_linear_1_4051)"/>
<path d="M276.645 82.5642C277.227 82.5056 277.724 82.4304 278.048 81.8948C278.645 80.9082 278.321 79.6499 278.94 78.6848C279.229 78.2328 279.617 77.8529 279.952 77.4338C280.473 76.7827 280.692 75.9952 280.889 75.1983C281.776 71.6079 280.431 64.0707 275.101 64.7928C269.771 65.515 270.151 71.5055 270.659 74.2175C270.856 75.2689 271.143 76.3845 271.699 77.3287C271.983 77.8111 272.341 78.2594 272.802 78.5839C273.303 78.9366 273.895 78.9993 274.42 79.2925C275.129 79.6886 274.994 80.6934 275.073 81.379C275.174 82.2637 275.766 82.6519 276.645 82.5642Z" fill="#F5BA9A"/>
<path d="M281.303 71.5843C280.624 71.8921 280.326 73.4478 280.326 73.4478L279.668 73.2398L280.063 70.383C280.063 70.383 278.258 69.8986 278.455 67.2294C278.455 67.2294 277.222 69.5522 274.226 69.2799L275.078 67.7144C275.078 67.7144 266.275 74.5153 264.989 68.7459L270.123 67.0168C270.123 67.0168 266.439 67.9924 264.989 65.318L270.065 64.6507L267.019 63.8736C267.019 63.8736 279.158 60.7425 279.553 64.0978C279.553 64.0978 280.711 63.0731 282.065 64.5597C283.156 65.7579 281.98 71.415 281.98 71.415L281.303 71.5843Z" fill="#481C95"/>
<path d="M280.337 73.0664C280.423 73.9082 281.176 74.5207 282.018 74.4339C282.86 74.3477 283.472 73.5947 283.385 72.7529C283.299 71.9111 282.547 71.2986 281.705 71.3854C280.863 71.4721 280.25 72.2246 280.337 73.0664Z" fill="#F5BA9A"/>
<path d="M268.606 74.0967C268.692 74.9385 269.445 75.5509 270.287 75.4642C271.129 75.3775 271.741 74.625 271.654 73.7832C271.568 72.9413 270.815 72.3289 269.974 72.4157C269.132 72.5024 268.52 73.2549 268.606 74.0967Z" fill="#F5BA9A"/>
<path d="M274.227 75.1099C274.155 75.1099 274.088 75.0932 274.028 75.0535C273.959 75.007 273.877 74.9124 273.883 74.7243C273.894 74.3548 274.11 73.941 274.283 73.6081C274.359 73.4634 274.43 73.327 274.45 73.2549C274.495 73.0918 274.475 72.8954 274.451 72.724C274.437 72.6168 274.512 72.5181 274.619 72.504C274.724 72.4873 274.825 72.5651 274.84 72.6722C274.868 72.8818 274.893 73.1258 274.828 73.3599C274.797 73.4717 274.724 73.6123 274.631 73.79C274.488 74.0638 274.294 74.4358 274.276 74.7128C274.371 74.6914 274.539 74.6151 274.648 74.5659C274.777 74.5074 274.907 74.4494 275.021 74.4144C275.124 74.3841 275.234 74.44 275.266 74.5435C275.298 74.6469 275.24 74.7567 275.137 74.7891C275.037 74.8199 274.923 74.8722 274.81 74.9234C274.591 75.0211 274.394 75.1099 274.227 75.1099Z" fill="#F08F78"/>
<path d="M275.095 76.1982C274.979 76.1982 274.864 76.1893 274.749 76.1705C274.641 76.1538 274.568 76.0529 274.586 75.9463C274.602 75.8392 274.707 75.7666 274.81 75.7838C275.219 75.8491 275.642 75.7718 276.001 75.5664C276.36 75.3611 276.642 75.0361 276.794 74.6504C276.833 74.549 276.945 74.4999 277.048 74.5396C277.148 74.5793 277.198 74.6933 277.158 74.7936C276.974 75.2618 276.632 75.6568 276.195 75.9061C275.86 76.0989 275.479 76.1982 275.095 76.1982Z" fill="#F08F78"/>
<path d="M270.768 74.9396C270.674 74.9396 270.591 74.8727 270.575 74.7771L270.276 73.0537C270.258 72.9471 270.329 72.8457 270.436 72.8269C270.551 72.8102 270.644 72.8807 270.663 72.9868L270.961 74.7102C270.98 74.8168 270.908 74.9182 270.802 74.937C270.79 74.9385 270.779 74.9396 270.768 74.9396Z" fill="#F08F78"/>
<path d="M270.543 73.952C270.525 73.952 270.507 73.9494 270.488 73.9442C270.235 73.871 269.973 73.8334 269.708 73.8319C269.599 73.8313 269.512 73.7435 269.513 73.6354C269.513 73.5277 269.601 73.4399 269.709 73.4399H269.71C270.01 73.441 270.309 73.4844 270.598 73.5674C270.701 73.5978 270.762 73.7064 270.731 73.8099C270.706 73.8961 270.628 73.952 270.543 73.952Z" fill="#F08F78"/>
<path d="M281.103 73.4959C281.028 73.4959 280.958 73.4536 280.925 73.3825C280.732 72.9655 280.887 72.4205 281.271 72.1681C281.655 71.9168 282.217 71.9894 282.523 72.3322C282.595 72.4127 282.588 72.537 282.508 72.6086C282.427 72.6812 282.303 72.6745 282.231 72.5929C282.053 72.3933 281.712 72.3473 281.487 72.4957C281.261 72.6436 281.167 72.9739 281.28 73.2179C281.326 73.3161 281.283 73.4327 281.185 73.4781C281.158 73.4902 281.13 73.4959 281.103 73.4959Z" fill="#F08F78"/>
<path d="M276.119 79.6061C275.948 79.6061 275.777 79.5972 275.605 79.5794C275.498 79.5684 275.42 79.4718 275.431 79.3641C275.442 79.2565 275.533 79.1771 275.646 79.1891C276.442 79.2711 277.249 79.1441 277.981 78.8202C278.08 78.7768 278.196 78.8207 278.239 78.92C278.283 79.0187 278.238 79.1347 278.14 79.1786C277.503 79.4613 276.813 79.6061 276.119 79.6061Z" fill="#F08F78"/>
<path d="M275.069 70.5425C275.025 70.5425 274.98 70.5273 274.943 70.4965C274.86 70.4265 274.85 70.3032 274.92 70.2206C275.247 69.8324 275.746 69.5935 276.254 69.5821C276.758 69.5732 277.27 69.7869 277.614 70.161C277.688 70.2405 277.683 70.3648 277.603 70.438C277.523 70.5111 277.398 70.5064 277.326 70.4265C277.057 70.1344 276.677 69.963 276.262 69.974C275.866 69.9828 275.475 70.1694 275.22 70.473C275.181 70.5185 275.125 70.5425 275.069 70.5425Z" fill="#30386F"/>
<path d="M271.376 71.3414C271.348 71.3414 271.318 71.3352 271.291 71.3216C271.194 71.2745 271.153 71.1575 271.2 71.0598C271.414 70.6172 271.827 70.2817 272.304 70.1615C272.78 70.0413 273.303 70.1422 273.702 70.4311C273.789 70.4949 273.809 70.6172 273.745 70.7044C273.682 70.7927 273.56 70.8126 273.472 70.7483C273.166 70.5268 272.766 70.4489 272.399 70.5419C272.034 70.6339 271.717 70.8915 271.553 71.2306C271.519 71.3007 271.449 71.3414 271.376 71.3414Z" fill="#30386F"/>
<path d="M275.349 72.3175C275.385 72.6127 275.653 72.8233 275.948 72.7883C276.243 72.7533 276.454 72.4852 276.419 72.19C276.384 71.8947 276.116 71.6841 275.82 71.7191C275.526 71.7547 275.314 72.0222 275.349 72.3175Z" fill="url(#paint9_linear_1_4051)"/>
<path d="M272.492 72.7796C272.527 73.0749 272.795 73.2854 273.09 73.2504C273.386 73.2154 273.596 72.9474 273.561 72.6521C273.526 72.3569 273.258 72.1463 272.963 72.1813C272.668 72.2168 272.457 72.4844 272.492 72.7796Z" fill="url(#paint10_linear_1_4051)"/>
<path d="M266.71 89.483L256.819 91.6307C256.149 91.7765 255.73 92.4459 255.893 93.1121L259.263 106.929C259.42 107.573 260.063 107.974 260.71 107.831L270.115 105.764C270.768 105.62 271.184 104.979 271.048 104.324L268.163 90.4278C268.025 89.7637 267.373 89.3393 266.71 89.483Z" fill="#481C95"/>
<path d="M259.239 99.0059C259.239 99.0059 256.521 99.3042 256.339 100.048C256.156 100.791 256.718 101.42 256.862 101.666C257.007 101.912 256.416 102.768 256.867 103.557C257.317 104.345 257.029 105.199 257.51 105.78C257.992 106.361 259.187 105.901 259.492 105.776C259.797 105.651 259.25 104.046 259.25 104.046C259.25 104.046 259.962 103.638 259.961 103.357C259.961 103.077 259.618 101.66 259.618 101.66C259.618 101.66 260.226 100.761 260.226 100.537C260.226 100.314 260.021 99.7975 260.021 99.7975L259.343 99.8555L259.239 99.0059Z" fill="#F5BA9A"/>
<path opacity="0.3" d="M187.585 13.5204C186.825 13.5204 186.085 13.5988 185.365 13.7336C184.188 5.96228 177.499 0 169.4 0C160.471 0 153.232 7.23834 153.232 16.1676C153.232 16.7848 153.274 17.3909 153.342 17.9898C152.738 17.8743 152.115 17.8084 151.477 17.8084C146.028 17.8084 141.61 22.2261 141.61 27.6752C141.61 33.1243 146.028 37.542 151.477 37.542H187.585C194.218 37.542 199.596 32.1644 199.596 25.5307C199.596 18.898 194.218 13.5204 187.585 13.5204Z" fill="white"/>
<path opacity="0.3" d="M264.141 21.3933C263.764 21.3933 263.397 21.4325 263.04 21.4988C262.456 17.6456 259.14 14.6885 255.123 14.6885C250.696 14.6885 247.106 18.2779 247.106 22.7054C247.106 23.0111 247.127 23.3121 247.161 23.6089C246.861 23.5514 246.553 23.519 246.236 23.519C243.534 23.519 241.344 25.7095 241.344 28.4116C241.344 31.1137 243.534 33.3043 246.236 33.3043H264.141C267.43 33.3043 270.097 30.6377 270.097 27.3483C270.097 24.0588 267.43 21.3933 264.141 21.3933Z" fill="white"/>
<g opacity="0.3">
<path d="M170.603 64.0371C170.458 64.0371 170.341 63.9201 170.341 63.7759V62.7308C170.341 62.5865 170.458 62.4695 170.603 62.4695C170.747 62.4695 170.864 62.5865 170.864 62.7308V63.7759C170.864 63.9201 170.747 64.0371 170.603 64.0371ZM170.603 60.3793C170.458 60.3793 170.341 60.2622 170.341 60.118V59.0729C170.341 58.9287 170.458 58.8116 170.603 58.8116C170.747 58.8116 170.864 58.9287 170.864 59.0729V60.118C170.864 60.2622 170.747 60.3793 170.603 60.3793ZM170.603 56.7215C170.458 56.7215 170.341 56.6044 170.341 56.4602V55.4151C170.341 55.2709 170.458 55.1538 170.603 55.1538C170.747 55.1538 170.864 55.2709 170.864 55.4151V56.4602C170.864 56.6044 170.747 56.7215 170.603 56.7215ZM170.603 53.0636C170.458 53.0636 170.341 52.9466 170.341 52.8023V51.7572C170.341 51.613 170.458 51.496 170.603 51.496C170.747 51.496 170.864 51.613 170.864 51.7572V52.8023C170.864 52.9466 170.747 53.0636 170.603 53.0636ZM170.603 49.4058C170.458 49.4058 170.341 49.2887 170.341 49.1445V48.0994C170.341 47.9552 170.458 47.8381 170.603 47.8381C170.747 47.8381 170.864 47.9552 170.864 48.0994V49.1445C170.864 49.2887 170.747 49.4058 170.603 49.4058ZM170.603 45.7479C170.458 45.7479 170.341 45.6309 170.341 45.4867V44.4416C170.341 44.2973 170.458 44.1803 170.603 44.1803C170.747 44.1803 170.864 44.2973 170.864 44.4416V45.4867C170.864 45.6309 170.747 45.7479 170.603 45.7479ZM170.603 42.0901C170.458 42.0901 170.341 41.9731 170.341 41.8288V40.7837C170.341 40.6395 170.458 40.5225 170.603 40.5225C170.747 40.5225 170.864 40.6395 170.864 40.7837V41.8288C170.864 41.9731 170.747 42.0901 170.603 42.0901Z" fill="white"/>
</g>
<g opacity="0.3">
<path d="M235.728 29.1324H234.683C234.538 29.1324 234.421 29.0154 234.421 28.8711C234.421 28.7269 234.538 28.6099 234.683 28.6099H235.728C235.872 28.6099 235.989 28.7269 235.989 28.8711C235.989 29.0159 235.873 29.1324 235.728 29.1324ZM232.07 29.1324H231.025C230.881 29.1324 230.764 29.0154 230.764 28.8711C230.764 28.7269 230.881 28.6099 231.025 28.6099H232.07C232.214 28.6099 232.331 28.7269 232.331 28.8711C232.331 29.0159 232.215 29.1324 232.07 29.1324ZM228.412 29.1324H227.367C227.223 29.1324 227.106 29.0154 227.106 28.8711C227.106 28.7269 227.223 28.6099 227.367 28.6099H228.412C228.556 28.6099 228.673 28.7269 228.673 28.8711C228.673 29.0159 228.557 29.1324 228.412 29.1324ZM224.754 29.1324H223.709C223.565 29.1324 223.448 29.0154 223.448 28.8711C223.448 28.7269 223.565 28.6099 223.709 28.6099H224.754C224.898 28.6099 225.016 28.7269 225.016 28.8711C225.016 29.0159 224.899 29.1324 224.754 29.1324ZM221.096 29.1324H220.051C219.907 29.1324 219.79 29.0154 219.79 28.8711C219.79 28.7269 219.907 28.6099 220.051 28.6099H221.096C221.241 28.6099 221.358 28.7269 221.358 28.8711C221.358 29.0159 221.241 29.1324 221.096 29.1324ZM217.439 29.1324H216.393C216.249 29.1324 216.132 29.0154 216.132 28.8711C216.132 28.7269 216.249 28.6099 216.393 28.6099H217.439C217.583 28.6099 217.7 28.7269 217.7 28.8711C217.7 29.0159 217.583 29.1324 217.439 29.1324ZM213.781 29.1324H212.736C212.591 29.1324 212.474 29.0154 212.474 28.8711C212.474 28.7269 212.591 28.6099 212.736 28.6099H213.781C213.925 28.6099 214.042 28.7269 214.042 28.8711C214.042 29.0159 213.925 29.1324 213.781 29.1324ZM210.123 29.1324H209.078C208.934 29.1324 208.817 29.0154 208.817 28.8711C208.817 28.7269 208.934 28.6099 209.078 28.6099H210.123C210.267 28.6099 210.384 28.7269 210.384 28.8711C210.384 29.0159 210.268 29.1324 210.123 29.1324ZM206.465 29.1324H205.42C205.276 29.1324 205.159 29.0154 205.159 28.8711C205.159 28.7269 205.276 28.6099 205.42 28.6099H206.465C206.609 28.6099 206.726 28.7269 206.726 28.8711C206.726 29.0159 206.61 29.1324 206.465 29.1324Z" fill="white"/>
</g>
<path d="M213.222 183.459H85.7549V190.958H213.222V183.459Z" fill="url(#paint11_linear_1_4051)"/>
<path d="M213.222 175.961H85.7549V183.459H213.222V175.961Z" fill="#FFF29F"/>
<path d="M213.221 168.463H85.7539V175.961H213.221V168.463Z" fill="url(#paint12_linear_1_4051)"/>
<path d="M213.204 168.445C211.134 168.445 209.455 170.124 209.455 172.194C209.455 174.264 211.133 175.943 213.204 175.943C211.134 175.943 209.455 177.621 209.455 179.692C209.455 181.762 211.133 183.441 213.204 183.441C211.134 183.441 209.455 185.119 209.455 187.19C209.455 189.26 211.133 190.938 213.204 190.938C213.187 190.921 243.477 179.709 243.477 179.709L213.204 168.445Z" fill="white"/>
<path d="M237.979 181.745C241.234 180.54 243.477 179.71 243.477 179.71L237.979 177.664V181.745Z" fill="url(#paint13_linear_1_4051)"/>
<path d="M85.7561 168.463H80.4429V190.94H85.7561V168.463Z" fill="white"/>
<path d="M67.0724 190.94H80.4413V168.463H67.0724C60.8656 168.463 55.834 173.494 55.834 179.701C55.834 185.908 60.8656 190.94 67.0724 190.94Z" fill="url(#paint14_linear_1_4051)"/>
<path d="M98.1353 39.8072L117.834 20.7859L97.6733 34.6852L98.1353 39.8072Z" fill="#DEC3F7"/>
<path d="M95.7298 33.3793L117.836 20.7864L89.396 29.1283L95.7298 33.3793Z" fill="white"/>
<path d="M97.6753 34.6856L104.67 39.3802L117.836 20.7864L97.6753 34.6856Z" fill="white"/>
<path d="M95.7261 33.3788L98.134 39.8072L97.672 34.6852L117.832 20.7859L95.7261 33.3788Z" fill="#E6D1F9"/>
<g opacity="0.3">
<path d="M7.39375 106.653C7.3232 106.653 7.25266 106.624 7.20145 106.568C6.96735 106.314 6.73847 106.055 6.51534 105.792C6.42233 105.682 6.43592 105.517 6.54617 105.424C6.65591 105.331 6.82051 105.344 6.91457 105.454C7.133 105.713 7.35769 105.966 7.58657 106.216C7.68429 106.322 7.67749 106.487 7.57089 106.585C7.52021 106.63 7.45698 106.653 7.39375 106.653ZM5.12746 103.81C5.04489 103.81 4.96338 103.771 4.91269 103.698C4.71255 103.408 4.51817 103.114 4.33005 102.817C4.25323 102.695 4.28929 102.533 4.41104 102.456C4.53175 102.38 4.69374 102.415 4.7716 102.537C4.95554 102.829 5.14627 103.116 5.34223 103.4C5.42427 103.519 5.395 103.682 5.27586 103.763C5.2304 103.796 5.17867 103.81 5.12746 103.81ZM3.26092 100.668C3.16581 100.668 3.07384 100.616 3.02786 100.525C2.86848 100.211 2.71537 99.8945 2.56906 99.5752C2.50897 99.444 2.56592 99.2888 2.69708 99.2287C2.82668 99.1676 2.98344 99.2256 3.04353 99.3568C3.18724 99.6703 3.33773 99.9807 3.49397 100.289C3.55929 100.418 3.50756 100.575 3.37849 100.641C3.34139 100.659 3.30063 100.668 3.26092 100.668ZM1.82704 97.3058C1.7194 97.3058 1.61854 97.2383 1.5804 97.1312C1.46335 96.7989 1.35309 96.4655 1.24911 96.1295C1.20626 95.9915 1.28307 95.8452 1.42102 95.8024C1.56211 95.7606 1.70529 95.8369 1.74814 95.9748C1.85003 96.304 1.9582 96.6317 2.07316 96.9577C2.12124 97.0941 2.04965 97.243 1.91326 97.2911C1.88557 97.301 1.85578 97.3058 1.82704 97.3058ZM0.840992 93.7848C0.720806 93.7848 0.612116 93.7007 0.585989 93.5774C0.513355 93.2335 0.446993 92.8881 0.3869 92.5417C0.36234 92.3996 0.457965 92.2642 0.600098 92.2397C0.740141 92.2161 0.877573 92.3102 0.902132 92.4528C0.960135 92.7925 1.02545 93.1316 1.09704 93.4697C1.12683 93.6108 1.03643 93.7493 0.895339 93.7791C0.877572 93.7833 0.859804 93.7848 0.840992 93.7848ZM0.321581 90.1667C0.186241 90.1667 0.0718025 90.0622 0.0613515 89.9253C0.0347016 89.5752 0.0143199 89.224 0.000211085 88.8729C-0.00553695 88.7286 0.106813 88.6069 0.251036 88.6011C0.409891 88.586 0.517011 88.7083 0.522759 88.8514C0.535823 89.1963 0.556205 89.5407 0.582855 89.885C0.593829 90.0287 0.485662 90.1547 0.341961 90.1656C0.335691 90.1667 0.328897 90.1667 0.321581 90.1667ZM0.285003 86.5125C0.279777 86.5125 0.274552 86.5125 0.269849 86.512C0.126149 86.5036 0.0158903 86.3798 0.024251 86.2361C0.0446304 85.8849 0.0723246 85.5343 0.105768 85.1842C0.119876 85.0405 0.257305 84.936 0.391078 84.9496C0.534779 84.9632 0.640336 85.0912 0.626227 85.2349C0.592261 85.5782 0.566134 85.9226 0.545755 86.2669C0.537394 86.4054 0.422956 86.5125 0.285003 86.5125ZM0.750071 82.8871C0.731781 82.8871 0.712968 82.8855 0.694679 82.8813C0.553068 82.8505 0.464237 82.7115 0.494545 82.5709L0.510743 82.4905C0.574494 82.1728 0.645561 81.8577 0.721853 81.5441C0.755818 81.4041 0.896382 81.3179 1.03695 81.3518C1.17751 81.3858 1.26321 81.5274 1.22872 81.6674C1.154 81.9742 1.08554 82.2825 1.02232 82.5924L1.00403 82.6812C0.978424 82.8035 0.869734 82.8871 0.750071 82.8871ZM1.72044 79.3635C1.69118 79.3635 1.66244 79.3588 1.6337 79.3489C1.49732 79.3008 1.42625 79.1514 1.4738 79.0155C1.59085 78.6842 1.71417 78.3545 1.84376 78.0274C1.89758 77.8931 2.04965 77.8278 2.1829 77.8811C2.31719 77.9344 2.38251 78.0864 2.32921 78.2202C2.20171 78.541 2.081 78.864 1.96656 79.189C1.92894 79.2966 1.82808 79.3635 1.72044 79.3635ZM3.16581 76.0067C3.12558 76.0067 3.08481 75.9973 3.04667 75.9779C2.91812 75.9121 2.86691 75.7548 2.93276 75.6263C3.09318 75.3133 3.25935 75.0034 3.43126 74.6967C3.50181 74.5707 3.66119 74.5258 3.78712 74.5969C3.91305 74.6674 3.95799 74.8268 3.88745 74.9527C3.71867 75.2537 3.55511 75.5578 3.39782 75.8651C3.35184 75.955 3.26039 76.0067 3.16581 76.0067ZM5.0428 72.8704C4.99107 72.8704 4.93986 72.8552 4.8944 72.8238C4.77526 72.7418 4.746 72.5793 4.82804 72.4607C5.02765 72.1717 5.23301 71.8859 5.44412 71.6042C5.53034 71.4887 5.69494 71.4647 5.80991 71.5514C5.92539 71.6377 5.9489 71.8017 5.86268 71.9172C5.65575 72.1936 5.45457 72.4743 5.25809 72.7575C5.20688 72.8312 5.12537 72.8704 5.0428 72.8704ZM7.31171 70.0047C7.249 70.0047 7.18682 69.9827 7.13666 69.9373C7.02953 69.8401 7.02117 69.6755 7.11784 69.5684C7.35351 69.3076 7.59441 69.051 7.83948 68.7992C7.93981 68.6957 8.10651 68.6936 8.20893 68.794C8.31239 68.8948 8.31448 69.0599 8.21415 69.1634C7.97325 69.4106 7.73759 69.6624 7.50558 69.9185C7.45437 69.9754 7.3833 70.0047 7.31171 70.0047ZM9.93386 67.4578C9.85965 67.4578 9.7865 67.4264 9.73477 67.3658C9.64123 67.2561 9.65481 67.091 9.76507 66.9974C10.0331 66.7696 10.3049 66.547 10.5813 66.3291C10.6942 66.2397 10.8582 66.2586 10.9481 66.3725C11.0375 66.4859 11.0181 66.6499 10.9048 66.7393C10.6335 66.953 10.3671 67.172 10.1032 67.3951C10.0535 67.4374 9.99343 67.4578 9.93386 67.4578ZM12.869 65.2803C12.7833 65.2803 12.6992 65.238 12.649 65.1602C12.5712 65.0389 12.6062 64.8769 12.7274 64.7991C13.0232 64.6094 13.3236 64.4249 13.6272 64.2467C13.7495 64.1736 13.911 64.2149 13.9846 64.3398C14.0583 64.4641 14.016 64.624 13.8916 64.6977C13.5943 64.8728 13.3001 65.053 13.0101 65.2396C12.9667 65.2673 12.9176 65.2803 12.869 65.2803ZM16.0748 63.5251C15.9756 63.5251 15.881 63.4687 15.8371 63.3725C15.7775 63.2414 15.835 63.0862 15.9662 63.0261L16.1093 62.9607C16.3821 62.8374 16.657 62.7188 16.9329 62.6044C17.0666 62.5495 17.2192 62.6127 17.2741 62.7455C17.329 62.8787 17.2657 63.0318 17.1325 63.0867C16.8613 63.199 16.5922 63.3156 16.3236 63.4363L16.183 63.5005C16.148 63.5173 16.1114 63.5251 16.0748 63.5251ZM19.4845 62.2156C19.3737 62.2156 19.2707 62.1445 19.2352 62.0332C19.1913 61.8958 19.2681 61.749 19.405 61.7051C19.7395 61.599 20.076 61.4987 20.4141 61.403C20.5526 61.3638 20.6973 61.4448 20.7365 61.5833C20.7757 61.7223 20.6947 61.8665 20.5557 61.9057C20.2228 61.9998 19.8921 62.0985 19.5634 62.2031C19.5372 62.2114 19.5106 62.2156 19.4845 62.2156ZM23.0216 61.2949C22.9009 61.2949 22.7922 61.2102 22.7666 61.0874C22.7368 60.9463 22.8272 60.8078 22.9688 60.7781C23.3121 60.7059 23.6565 60.638 24.0029 60.5748C24.1466 60.5466 24.2809 60.6422 24.3076 60.7843C24.3337 60.9259 24.2397 61.0623 24.098 61.0885C23.7563 61.1517 23.4156 61.2186 23.0765 61.2891C23.0577 61.2933 23.0394 61.2949 23.0216 61.2949ZM26.6314 60.6877C26.5023 60.6877 26.3899 60.592 26.3727 60.4603C26.3544 60.3177 26.4547 60.186 26.5979 60.1672C26.9454 60.1217 27.2934 60.0789 27.6425 60.0387C27.781 60.0188 27.9147 60.1249 27.932 60.2681C27.9482 60.4112 27.8452 60.5408 27.7021 60.5575C27.3561 60.5973 27.0113 60.6396 26.6669 60.685C26.6544 60.6866 26.6429 60.6877 26.6314 60.6877ZM30.274 60.3093C30.1392 60.3093 30.0248 60.2059 30.0143 60.069C30.0028 59.9253 30.11 59.7988 30.2537 59.7873C30.6027 59.7596 30.9518 59.7335 31.3009 59.7094C31.4487 59.7 31.57 59.8077 31.5799 59.9519C31.5898 60.0956 31.4817 60.2205 31.3374 60.231C30.9894 60.255 30.6424 60.2806 30.2955 60.3083C30.2882 60.3093 30.2808 60.3093 30.274 60.3093ZM33.9282 60.0778C33.7897 60.0778 33.6743 59.9692 33.6675 59.8296C33.6596 59.6854 33.7709 59.5626 33.9152 59.5553L34.9613 59.5051C35.1019 59.4947 35.2283 59.6102 35.2346 59.7544C35.2414 59.8986 35.1301 60.0209 34.9859 60.0277L33.9418 60.0778C33.9366 60.0778 33.9324 60.0778 33.9282 60.0778ZM37.5845 59.9153C37.445 59.9153 37.3295 59.8056 37.3232 59.665C37.3175 59.5208 37.4293 59.3991 37.5735 59.3928L38.6171 59.3489C38.7576 59.3379 38.8835 59.4545 38.8898 59.5987C38.8961 59.7429 38.7843 59.8646 38.6395 59.8709L37.5949 59.9153C37.5918 59.9153 37.5882 59.9153 37.5845 59.9153ZM41.2382 59.7471C41.0997 59.7471 40.9847 59.6389 40.9774 59.4999C40.9696 59.3557 41.0798 59.2329 41.2246 59.225C41.5715 59.2068 41.918 59.1869 42.2639 59.1655C42.405 59.1561 42.532 59.2663 42.5403 59.4106C42.5492 59.5543 42.4395 59.6786 42.2953 59.687C41.9483 59.7079 41.6008 59.7283 41.2517 59.7471C41.2476 59.7471 41.2429 59.7471 41.2382 59.7471ZM44.8855 59.4957C44.7518 59.4957 44.6373 59.3933 44.6258 59.2575C44.6128 59.1137 44.7194 58.9868 44.8631 58.9742C45.2095 58.9434 45.5549 58.911 45.8998 58.876C46.0388 58.8645 46.1715 58.9659 46.1862 59.1096C46.2008 59.2533 46.0963 59.3813 45.9531 59.3959C45.6061 59.4309 45.2576 59.4639 44.9091 59.4947C44.9012 59.4957 44.8929 59.4957 44.8855 59.4957ZM48.5193 59.0787C48.3918 59.0787 48.2805 58.9852 48.2612 58.8551C48.2403 58.7124 48.3391 58.5797 48.4822 58.5588C48.8256 58.5086 49.1683 58.4548 49.509 58.3979C49.6538 58.3723 49.786 58.47 49.81 58.6126C49.8341 58.7553 49.7374 58.8896 49.5958 58.9136C49.2509 58.9711 48.9055 59.0254 48.558 59.0761C48.5449 59.0782 48.5319 59.0787 48.5193 59.0787ZM52.1134 58.4067C51.9943 58.4067 51.8872 58.3252 51.8589 58.205C51.826 58.0645 51.9133 57.9239 52.0544 57.891C52.3919 57.8121 52.7269 57.7285 53.0608 57.6407C53.2024 57.6041 53.3435 57.6872 53.3801 57.8267C53.4167 57.9662 53.3336 58.1094 53.1946 58.146C52.856 58.2353 52.5153 58.32 52.173 58.3999C52.1526 58.4046 52.1328 58.4067 52.1134 58.4067ZM55.6213 57.3862C55.5137 57.3862 55.4133 57.3193 55.3747 57.2122C55.3266 57.0763 55.3976 56.9269 55.534 56.8788C55.8591 56.7633 56.1815 56.6421 56.5018 56.5151C56.6356 56.4608 56.7876 56.5271 56.8409 56.6609C56.8942 56.7952 56.8289 56.9467 56.6946 57C56.3685 57.1296 56.0399 57.2535 55.7086 57.371C55.6803 57.3815 55.6506 57.3862 55.6213 57.3862ZM58.9714 55.9351C58.8768 55.9351 58.7858 55.8839 58.7399 55.794C58.673 55.666 58.7231 55.5082 58.8512 55.4418C59.1563 55.2835 59.4578 55.1183 59.7567 54.9459C59.8816 54.8733 60.0415 54.9166 60.1142 55.0421C60.1863 55.1669 60.1434 55.3268 60.018 55.399C59.7118 55.5751 59.403 55.7444 59.0915 55.9058C59.0534 55.9257 59.0121 55.9351 58.9714 55.9351ZM66.7761 54.4411C66.773 54.4411 66.7699 54.4411 66.7667 54.4406C66.413 54.4286 66.0602 54.4066 65.7096 54.3748C65.5664 54.3617 65.4598 54.2342 65.4734 54.091C65.486 53.9468 65.6156 53.8438 65.7577 53.8543C66.0984 53.8856 66.4422 53.9066 66.7855 53.9191C66.9298 53.9238 67.0426 54.045 67.0374 54.1893C67.0322 54.3303 66.9167 54.4411 66.7761 54.4411ZM69.3863 54.3732C69.252 54.3732 69.1375 54.2697 69.1266 54.1328C69.1145 53.9891 69.2222 53.8627 69.3654 53.8512C69.7087 53.8235 70.0515 53.7874 70.3943 53.7451C70.5327 53.7242 70.6675 53.8292 70.6858 53.9724C70.7036 54.1156 70.6022 54.2462 70.4591 54.264C70.1095 54.3074 69.7594 54.3439 69.4087 54.3727C69.4009 54.3732 69.3936 54.3732 69.3863 54.3732ZM62.0716 54.009C61.9922 54.009 61.9128 53.9724 61.8621 53.9034C61.7759 53.7874 61.8004 53.6238 61.9164 53.5376C61.9217 53.5334 61.9274 53.5293 61.9326 53.5256C61.8945 53.4624 61.883 53.384 61.9081 53.3082C61.953 53.1708 62.0983 53.0945 62.2383 53.1421C62.2833 53.1567 62.3292 53.1719 62.3747 53.186C62.4933 53.0924 62.6109 52.9973 62.7274 52.9006C62.8387 52.8092 63.0033 52.8238 63.0953 52.9346C63.1878 53.0454 63.1721 53.2105 63.0613 53.3025C63.0357 53.3239 63.0101 53.3448 62.985 53.3657C63.0645 53.3871 63.1444 53.408 63.2239 53.4284C63.3644 53.4639 63.4491 53.6061 63.413 53.7456C63.3785 53.8851 63.2364 53.9693 63.0963 53.9348C62.8899 53.8825 62.6841 53.8261 62.4813 53.7655C62.3977 53.8303 62.313 53.8935 62.2284 53.9567C62.1808 53.9917 62.1265 54.009 62.0716 54.009ZM73.0007 53.8292C72.8805 53.8292 72.7713 53.7451 72.7457 53.6223C72.7159 53.4807 72.8063 53.3422 72.9474 53.3124C73.1141 53.2774 73.2803 53.2403 73.4454 53.2027C73.6168 53.1635 73.7882 53.1238 73.9586 53.082C74.1012 53.0475 74.2407 53.1342 74.2742 53.2743C74.3087 53.4143 74.2224 53.5559 74.0824 53.5899C73.9089 53.6322 73.7354 53.673 73.5614 53.7122C73.3937 53.7503 73.2244 53.7879 73.0556 53.8235C73.0373 53.8271 73.019 53.8292 73.0007 53.8292ZM76.5363 52.8944C76.4255 52.8944 76.3226 52.8233 76.287 52.712C76.2437 52.5746 76.32 52.4272 76.4574 52.3838C76.7871 52.2793 77.1158 52.1701 77.4424 52.0567C77.5793 52.0097 77.7277 52.0813 77.7753 52.2182C77.8223 52.3546 77.7502 52.503 77.6138 52.5505C77.282 52.6655 76.9496 52.7758 76.6147 52.8813C76.5885 52.8907 76.5624 52.8944 76.5363 52.8944ZM59.7735 52.5918C59.7285 52.5918 59.6836 52.5808 59.6423 52.5568C59.334 52.3781 59.0314 52.1853 58.743 51.9831C58.6244 51.9005 58.5956 51.7375 58.6782 51.6194C58.7613 51.5007 58.9248 51.473 59.0419 51.5551C59.3188 51.7484 59.6089 51.9334 59.9041 52.1048C60.0285 52.1774 60.0713 52.3368 59.9992 52.4622C59.9511 52.5453 59.8633 52.5918 59.7735 52.5918ZM79.9658 51.6277C79.8644 51.6277 79.7672 51.5681 79.7249 51.4683C79.669 51.3356 79.7311 51.182 79.8644 51.1261C80.1826 50.9913 80.4998 50.8523 80.8144 50.7086C80.9461 50.649 81.1007 50.707 81.1603 50.8382C81.2199 50.9693 81.1624 51.1245 81.0307 51.1846C80.712 51.3299 80.3906 51.471 80.0671 51.6079C80.0342 51.6209 80.0003 51.6277 79.9658 51.6277ZM64.7727 51.5509C64.711 51.5509 64.6494 51.5295 64.5992 51.4856C64.4916 51.3894 64.4811 51.2243 64.5772 51.1167C64.8072 50.8564 65.0277 50.5905 65.2315 50.3255C65.3198 50.2106 65.4833 50.1897 65.5978 50.2775C65.7122 50.3658 65.7337 50.5293 65.6459 50.6438C65.4347 50.9181 65.2064 51.194 64.9681 51.4631C64.9169 51.5206 64.8448 51.5509 64.7727 51.5509ZM56.9261 50.3161C56.8556 50.3161 56.785 50.2879 56.7338 50.232C56.4913 49.9686 56.2604 49.6927 56.0466 49.4132C55.9589 49.2987 55.9813 49.1346 56.0958 49.0469C56.2107 48.9596 56.3738 48.981 56.4621 49.096C56.6664 49.363 56.8869 49.6264 57.1189 49.8777C57.2161 49.9838 57.2098 50.1494 57.1038 50.2471C57.0526 50.2931 56.9893 50.3161 56.9261 50.3161ZM83.2631 50.0465C83.17 50.0465 83.0796 49.9969 83.0331 49.9091C82.9647 49.7821 83.0127 49.6237 83.1397 49.5553C83.4444 49.3912 83.7469 49.2235 84.0469 49.0516C84.1718 48.98 84.3322 49.0223 84.4038 49.1482C84.4759 49.2731 84.4325 49.433 84.3071 49.5046C84.003 49.6791 83.6962 49.8495 83.3864 50.0157C83.3472 50.0366 83.3049 50.0465 83.2631 50.0465ZM66.8221 48.5348C66.7834 48.5348 66.7443 48.5264 66.7072 48.5081C66.5776 48.4449 66.5237 48.2881 66.587 48.1585C66.7375 47.8513 66.8744 47.5367 66.9925 47.2232C67.0437 47.0883 67.1926 47.0199 67.3295 47.0711C67.4649 47.1223 67.5328 47.2728 67.4816 47.4081C67.3572 47.7368 67.214 48.0671 67.0567 48.389C67.0113 48.4815 66.9188 48.5348 66.8221 48.5348ZM86.3989 48.1658C86.3142 48.1658 86.2317 48.1246 86.181 48.0488C86.1015 47.9286 86.1345 47.7666 86.2546 47.6867C86.5436 47.4954 86.8289 47.3 87.1116 47.1009C87.2302 47.0183 87.3928 47.0455 87.4758 47.1641C87.5584 47.2822 87.5307 47.4452 87.4126 47.5283C87.1257 47.7306 86.8368 47.9286 86.5436 48.1225C86.4987 48.1517 86.449 48.1658 86.3989 48.1658ZM54.9435 47.2639C54.8416 47.2639 54.7439 47.2033 54.7021 47.103C54.5631 46.7701 54.444 46.4289 54.3463 46.0892C54.3066 45.9502 54.3865 45.806 54.5255 45.7663C54.665 45.7261 54.8093 45.8071 54.8484 45.9455C54.9404 46.2659 55.0538 46.5877 55.185 46.9023C55.2398 47.0356 55.1771 47.1882 55.0439 47.2441C55.0115 47.2571 54.977 47.2639 54.9435 47.2639ZM89.3466 46.002C89.2703 46.002 89.195 45.969 89.1433 45.9048C89.0524 45.7924 89.0696 45.6283 89.182 45.5374C89.4511 45.3195 89.717 45.0985 89.9799 44.8738C90.0901 44.7808 90.2547 44.7928 90.3483 44.9025C90.4423 45.0123 90.4293 45.1769 90.3195 45.2709C90.0525 45.4988 89.7834 45.7229 89.5101 45.944C89.462 45.9826 89.404 46.002 89.3466 46.002ZM67.8432 45.0431C67.8338 45.0431 67.8254 45.0426 67.8165 45.0415C67.6728 45.0269 67.5678 44.8989 67.5829 44.7557C67.6075 44.5111 67.6195 44.2624 67.6195 44.0152C67.6195 43.9259 67.618 43.8365 67.6148 43.7472C67.6101 43.6029 67.723 43.4822 67.8672 43.4775C68.0323 43.4619 68.1321 43.5862 68.1374 43.7299C68.1405 43.825 68.1421 43.9207 68.1421 44.0152C68.1421 44.2796 68.129 44.5467 68.1024 44.8079C68.0893 44.9428 67.9754 45.0431 67.8432 45.0431ZM54.2763 43.697C54.2726 43.697 54.2684 43.697 54.2648 43.6965C54.1205 43.6897 54.0092 43.5674 54.0155 43.4237C54.0312 43.0689 54.0751 42.7073 54.1461 42.3488C54.1738 42.2072 54.3123 42.1142 54.4529 42.1429C54.594 42.1712 54.6865 42.3081 54.6588 42.4497C54.5934 42.7825 54.5527 43.118 54.5375 43.4472C54.5313 43.5878 54.4153 43.697 54.2763 43.697ZM92.0769 43.57C92.0089 43.57 91.9415 43.5439 91.8903 43.4916C91.7895 43.3887 91.7916 43.223 91.8945 43.1217C92.1417 42.8797 92.3852 42.6341 92.6255 42.3854C92.7253 42.2825 92.891 42.2783 92.995 42.3786C93.0984 42.4789 93.1016 42.6441 93.0013 42.7481C92.7577 43.0004 92.5111 43.2492 92.2598 43.4953C92.2091 43.5455 92.1427 43.57 92.0769 43.57ZM67.3833 41.4433C67.2757 41.4433 67.1754 41.3769 67.1372 41.2698C67.0243 40.9536 66.8911 40.6396 66.7411 40.3375C66.6768 40.2085 66.7291 40.0517 66.8587 39.9874C66.9867 39.9232 67.1451 39.9754 67.2088 40.105C67.3687 40.4259 67.5098 40.7592 67.6295 41.0952C67.6781 41.2311 67.607 41.3805 67.4711 41.4291C67.4424 41.4385 67.4126 41.4433 67.3833 41.4433ZM55.3344 40.233C55.2895 40.233 55.2435 40.2215 55.2022 40.197C55.0778 40.1238 55.036 39.9639 55.1087 39.8396C55.29 39.5307 55.4927 39.2297 55.7112 38.946C55.7995 38.831 55.963 38.8101 56.0775 38.8984C56.1919 38.9862 56.2133 39.1503 56.1256 39.2647C55.9197 39.5312 55.7295 39.8134 55.5596 40.1034C55.511 40.1865 55.4238 40.233 55.3344 40.233ZM65.4609 38.3675C65.394 38.3675 65.3276 38.3425 65.2764 38.2912C65.036 38.0524 64.7795 37.8335 64.5135 37.6391C64.397 37.5539 64.3719 37.3904 64.4565 37.2738C64.5422 37.1573 64.7058 37.1322 64.8218 37.2169C65.1092 37.4264 65.3856 37.6631 65.6448 37.9208C65.7467 38.0221 65.7472 38.1878 65.6459 38.2902C65.5947 38.3414 65.5278 38.3675 65.4609 38.3675ZM57.8202 37.5916C57.7355 37.5916 57.6519 37.5503 57.6018 37.4735C57.5228 37.3527 57.5563 37.1913 57.677 37.1119C57.9837 36.9107 58.3025 36.7335 58.6249 36.5862C58.754 36.5266 58.9113 36.5836 58.9714 36.7152C59.0309 36.8464 58.9734 37.0016 58.8423 37.0617C58.5439 37.1981 58.2476 37.3622 57.9634 37.5492C57.9189 37.578 57.8693 37.5916 57.8202 37.5916ZM62.3021 36.6358C62.2848 36.6358 62.2681 36.6342 62.2503 36.6306C62.1636 36.6133 62.0758 36.5977 61.9875 36.5851C61.7477 36.5496 61.5031 36.5303 61.2606 36.5282C61.1169 36.5266 61.0004 36.4085 61.002 36.2648C61.0035 36.1211 61.1201 36.0056 61.2632 36.0056C61.2632 36.0056 61.2648 36.0056 61.2659 36.0056C61.5318 36.0082 61.8004 36.0291 62.0643 36.0683C62.1615 36.0829 62.2571 36.0997 62.3522 36.1185C62.4933 36.1467 62.5853 36.2841 62.5576 36.4257C62.533 36.5496 62.4238 36.6358 62.3021 36.6358Z" fill="white"/>
</g>
<path opacity="0.4" d="M181.969 52.4063C181.969 53.2319 181.467 53.942 180.753 54.2493V59.6901C180.753 60.1264 180.399 60.4802 179.963 60.4802C179.526 60.4802 179.173 60.1264 179.173 59.6901V54.2493C178.458 53.9415 177.956 53.2319 177.956 52.4063C177.956 51.5806 178.458 50.8705 179.173 50.5632V48.8221C179.173 48.3858 179.526 48.032 179.963 48.032C180.399 48.032 180.753 48.3858 180.753 48.8221V50.5632C181.467 50.871 181.969 51.5806 181.969 52.4063ZM185.003 54.8298V48.8216C185.003 48.3853 184.649 48.0315 184.213 48.0315C183.777 48.0315 183.423 48.3853 183.423 48.8216V54.8298C182.709 55.1376 182.206 55.8472 182.206 56.6729C182.206 57.4985 182.709 58.2086 183.423 58.5159V59.6895C183.423 60.1259 183.777 60.4796 184.213 60.4796C184.649 60.4796 185.003 60.1259 185.003 59.6895V58.5159C185.717 58.2081 186.22 57.4985 186.22 56.6729C186.22 55.8472 185.717 55.1376 185.003 54.8298ZM190.47 54.5189C190.47 53.6933 189.968 52.9832 189.254 52.6759V48.8221C189.254 48.3858 188.9 48.032 188.463 48.032C188.027 48.032 187.673 48.3858 187.673 48.8221V52.6759C186.959 52.9837 186.457 53.6933 186.457 54.5189C186.457 55.3446 186.959 56.0547 187.673 56.362V59.6901C187.673 60.1264 188.027 60.4802 188.463 60.4802C188.9 60.4802 189.254 60.1264 189.254 59.6901V56.362C189.968 56.0547 190.47 55.3446 190.47 54.5189Z" fill="#8F50F2"/>
<path opacity="0.4" d="M38.3764 35.6792H33.593C33.5851 35.6792 33.5783 35.6834 33.5705 35.6839C33.5344 35.686 33.4994 35.6928 33.4649 35.7053C33.4529 35.7095 33.4414 35.7126 33.4299 35.7179C33.3897 35.7367 33.3521 35.7602 33.3197 35.7921C33.3192 35.7926 33.3181 35.7931 33.3176 35.7936L30.7038 38.4079C30.7033 38.4085 30.7028 38.409 30.7022 38.4095C30.6698 38.4419 30.6463 38.4795 30.628 38.5198C30.6223 38.5318 30.6191 38.5438 30.615 38.5563C30.6035 38.5898 30.5967 38.6238 30.5941 38.6588C30.5935 38.6671 30.5894 38.6744 30.5894 38.6828V46.7489C30.5894 46.9636 30.7634 47.1376 30.9781 47.1376H38.3758C38.5906 47.1376 38.7646 46.9636 38.7646 46.7489V36.068C38.7651 35.8532 38.5911 35.6792 38.3764 35.6792ZM33.2042 37.0065V38.294H31.9172L33.2042 37.0065ZM37.9876 46.3601H31.3674V39.0711H33.593C33.8077 39.0711 33.9817 38.897 33.9817 38.6823V36.4562H37.9876V46.3601Z" fill="#8F50F2"/>
<path opacity="0.4" d="M14.4692 182.912C14.4692 183.12 14.3015 183.288 14.0935 183.288H12.6267H11.3919H9.72551H8.49125H6.82485H5.59006H4.12327C3.91582 183.288 3.74756 183.12 3.74756 182.912V174.51C3.74756 174.302 3.91582 174.134 4.12327 174.134C4.33072 174.134 4.49898 174.302 4.49898 174.51V182.537H5.21487V178.271C5.21487 178.064 5.38313 177.895 5.59059 177.895H6.82537C7.03282 177.895 7.20108 178.064 7.20108 178.271V182.537H8.11658V179.996C8.11658 179.789 8.28485 179.62 8.4923 179.62H9.72656C9.93401 179.62 10.1023 179.789 10.1023 179.996V182.537H11.0173V177.409C11.0173 177.201 11.1855 177.033 11.393 177.033H12.6277C12.8352 177.033 13.0035 177.201 13.0035 177.409V182.537H14.0945C14.3015 182.537 14.4692 182.705 14.4692 182.912Z" fill="#8F50F2"/>
<path d="M104.908 147.401H70.5874V168.461H104.908V147.401Z" fill="url(#paint15_linear_1_4051)"/>
<path d="M87.5501 136.793L54.3066 147.401L87.5501 158.01L120.794 147.401L87.5501 136.793Z" fill="url(#paint16_linear_1_4051)"/>
<path d="M65.6905 160.299C65.377 160.299 65.123 160.045 65.123 159.731V151.036C65.123 150.78 65.295 150.555 65.5421 150.488L87.3982 144.57C87.7013 144.49 88.0117 144.667 88.0938 144.969C88.1753 145.271 87.9971 145.582 87.6945 145.664L66.2575 151.469V159.73C66.258 160.045 66.0041 160.299 65.6905 160.299Z" fill="url(#paint17_linear_1_4051)"/>
<path d="M67.0159 165.638H64.4648V159.996C64.4648 159.292 65.036 158.721 65.7404 158.721C66.4448 158.721 67.0159 159.292 67.0159 159.996V165.638Z" fill="url(#paint18_linear_1_4051)"/>
<g opacity="0.3">
<path d="M255.466 79.6782C255.322 79.6782 255.205 79.5612 255.205 79.417V78.3719C255.205 78.2277 255.322 78.1106 255.466 78.1106C255.61 78.1106 255.727 78.2277 255.727 78.3719V79.417C255.727 79.5617 255.61 79.6782 255.466 79.6782ZM255.466 76.0204C255.322 76.0204 255.205 75.9034 255.205 75.7591V74.714C255.205 74.5698 255.322 74.4528 255.466 74.4528C255.61 74.4528 255.727 74.5698 255.727 74.714V75.7591C255.727 75.9039 255.61 76.0204 255.466 76.0204ZM255.466 72.3626C255.322 72.3626 255.205 72.2455 255.205 72.1013V71.0562C255.205 70.912 255.322 70.7949 255.466 70.7949C255.61 70.7949 255.727 70.912 255.727 71.0562V72.1013C255.727 72.246 255.61 72.3626 255.466 72.3626ZM255.466 68.7047C255.322 68.7047 255.205 68.5877 255.205 68.4435V67.3984C255.205 67.2541 255.322 67.1371 255.466 67.1371C255.61 67.1371 255.727 67.2541 255.727 67.3984V68.4435C255.727 68.5882 255.61 68.7047 255.466 68.7047ZM255.466 65.0469C255.322 65.0469 255.205 64.9298 255.205 64.7856V63.7405C255.205 63.5963 255.322 63.4793 255.466 63.4793C255.61 63.4793 255.727 63.5963 255.727 63.7405V64.7856C255.727 64.9304 255.61 65.0469 255.466 65.0469ZM255.466 61.3891C255.322 61.3891 255.205 61.272 255.205 61.1278V60.0827C255.205 59.9385 255.322 59.8214 255.466 59.8214C255.61 59.8214 255.727 59.9385 255.727 60.0827V61.1278C255.727 61.2725 255.61 61.3891 255.466 61.3891ZM255.466 57.7312C255.322 57.7312 255.205 57.6142 255.205 57.4699V56.4249C255.205 56.2806 255.322 56.1636 255.466 56.1636C255.61 56.1636 255.727 56.2806 255.727 56.4249V57.4699C255.727 57.6147 255.61 57.7312 255.466 57.7312ZM255.466 54.0734C255.322 54.0734 255.205 53.9563 255.205 53.8121V52.767C255.205 52.6228 255.322 52.5057 255.466 52.5057C255.61 52.5057 255.727 52.6228 255.727 52.767V53.8121C255.727 53.9569 255.61 54.0734 255.466 54.0734ZM255.466 50.4155C255.322 50.4155 255.205 50.2985 255.205 50.1543V49.1092C255.205 48.965 255.322 48.8479 255.466 48.8479C255.61 48.8479 255.727 48.965 255.727 49.1092V50.1543C255.727 50.299 255.61 50.4155 255.466 50.4155ZM255.466 46.7577C255.322 46.7577 255.205 46.6407 255.205 46.4964V45.4513C255.205 45.3071 255.322 45.1901 255.466 45.1901C255.61 45.1901 255.727 45.3071 255.727 45.4513V46.4964C255.727 46.6412 255.61 46.7577 255.466 46.7577ZM255.466 43.0999C255.322 43.0999 255.205 42.9828 255.205 42.8386V41.7935C255.205 41.6493 255.322 41.5322 255.466 41.5322C255.61 41.5322 255.727 41.6493 255.727 41.7935V42.8386C255.727 42.9833 255.61 43.0999 255.466 43.0999ZM255.466 39.442C255.322 39.442 255.205 39.325 255.205 39.1808V38.1357C255.205 37.9914 255.322 37.8744 255.466 37.8744C255.61 37.8744 255.727 37.9914 255.727 38.1357V39.1808C255.727 39.3255 255.61 39.442 255.466 39.442ZM255.466 35.7842C255.322 35.7842 255.205 35.6671 255.205 35.5229V34.4778C255.205 34.3336 255.322 34.2166 255.466 34.2166C255.61 34.2166 255.727 34.3336 255.727 34.4778V35.5229C255.727 35.6677 255.61 35.7842 255.466 35.7842Z" fill="white"/>
</g>
<path d="M150.477 54.5894H95.526C92.1404 54.5894 89.396 57.3338 89.396 60.7194V87.4864C89.396 90.872 92.1404 93.6164 95.526 93.6164H98.6284C100.088 93.6164 101.272 94.8 101.272 96.2605V99.5489C101.272 100.691 102.653 101.263 103.46 100.455L109.525 94.3908C110.021 93.8949 110.693 93.6164 111.395 93.6164H150.477C153.862 93.6164 156.607 90.872 156.607 87.4864V60.7194C156.607 57.3343 153.862 54.5894 150.477 54.5894Z" fill="white"/>
<path d="M133.357 65.4565H99.2325C98.6922 65.4565 98.2554 65.0192 98.2554 64.4794C98.2554 63.9391 98.6922 63.5022 99.2325 63.5022H133.357C133.897 63.5022 134.334 63.9391 134.334 64.4794C134.334 65.0197 133.897 65.4565 133.357 65.4565Z" fill="#E6D1F9"/>
<path d="M119.319 72.2905H99.2325C98.6922 72.2905 98.2554 71.8531 98.2554 71.3133C98.2554 70.773 98.6922 70.3362 99.2325 70.3362H119.319C119.86 70.3362 120.296 70.773 120.296 71.3133C120.296 71.8531 119.859 72.2905 119.319 72.2905Z" fill="#E6D1F9"/>
<path d="M135.008 79.1242H99.2325C98.6922 79.1242 98.2554 78.6869 98.2554 78.1471C98.2554 77.6068 98.6922 77.1699 99.2325 77.1699H135.008C135.548 77.1699 135.985 77.6073 135.985 78.1471C135.985 78.6874 135.548 79.1242 135.008 79.1242Z" fill="#E6D1F9"/>
<path d="M103.355 85.958H99.2325C98.6922 85.958 98.2554 85.5211 98.2554 84.9808C98.2554 84.4405 98.6922 84.0037 99.2325 84.0037H103.355C103.896 84.0037 104.333 84.4405 104.333 84.9808C104.333 85.5211 103.896 85.958 103.355 85.958Z" fill="#E6D1F9"/>
<path d="M126.006 72.2905H123.499C122.959 72.2905 122.522 71.8531 122.522 71.3133C122.522 70.773 122.959 70.3362 123.499 70.3362H126.006C126.547 70.3362 126.983 70.773 126.983 71.3133C126.983 71.8531 126.547 72.2905 126.006 72.2905Z" fill="#E6D1F9"/>
<path d="M146.774 72.2905H130.391C129.85 72.2905 129.414 71.8531 129.414 71.3133C129.414 70.773 129.851 70.3362 130.391 70.3362H146.774C147.314 70.3362 147.751 70.773 147.751 71.3133C147.751 71.8531 147.313 72.2905 146.774 72.2905Z" fill="#E6D1F9"/>
<path d="M146.769 65.4565H137.616C137.076 65.4565 136.639 65.0192 136.639 64.4794C136.639 63.9391 137.076 63.5022 137.616 63.5022H146.769C147.31 63.5022 147.746 63.9391 147.746 64.4794C147.746 65.0197 147.309 65.4565 146.769 65.4565Z" fill="#E6D1F9"/>
<path d="M111.615 85.958H107.492C106.952 85.958 106.515 85.5211 106.515 84.9808C106.515 84.4405 106.953 84.0037 107.492 84.0037H111.615C112.156 84.0037 112.592 84.4405 112.592 84.9808C112.592 85.5211 112.156 85.958 111.615 85.958Z" fill="#E6D1F9"/>
<defs>
<linearGradient id="paint0_linear_1_4051" x1="35.7931" y1="130.459" x2="34.4185" y2="104.538" gradientUnits="userSpaceOnUse">
<stop stop-color="#2975AA"/>
<stop offset="1" stop-color="#7FFFC5"/>
</linearGradient>
<linearGradient id="paint1_linear_1_4051" x1="30.9734" y1="142.146" x2="26.2606" y2="118.582" gradientUnits="userSpaceOnUse">
<stop offset="0.0039" stop-color="#1A2350"/>
<stop offset="1" stop-color="#2B449A"/>
</linearGradient>
<linearGradient id="paint2_linear_1_4051" x1="34.6992" y1="166.709" x2="5.89046" y2="117.841" gradientUnits="userSpaceOnUse">
<stop stop-color="#278FBD"/>
<stop offset="1" stop-color="#7FFFC5"/>
</linearGradient>
<linearGradient id="paint3_linear_1_4051" x1="30.9293" y1="182.807" x2="2.97406" y2="137.78" gradientUnits="userSpaceOnUse">
<stop offset="0.0039" stop-color="#F1C06B"/>
<stop offset="1" stop-color="#7FFFC5"/>
</linearGradient>
<linearGradient id="paint4_linear_1_4051" x1="-46.1515" y1="173.788" x2="61.3313" y2="136.563" gradientUnits="userSpaceOnUse">
<stop stop-color="#401784"/>
<stop offset="0.4137" stop-color="#4F1EA3"/>
<stop offset="0.5732" stop-color="#4B1C9B"/>
<stop offset="0.8206" stop-color="#401785"/>
<stop offset="1" stop-color="#361371"/>
</linearGradient>
<linearGradient id="paint5_linear_1_4051" x1="45.923" y1="129.934" x2="269.975" y2="129.934" gradientUnits="userSpaceOnUse">
<stop stop-color="#401784"/>
<stop offset="0.4137" stop-color="#4F1EA3"/>
<stop offset="0.5732" stop-color="#4B1C9B"/>
<stop offset="0.8206" stop-color="#401785"/>
<stop offset="1" stop-color="#361371"/>
</linearGradient>
<linearGradient id="paint6_linear_1_4051" x1="155.157" y1="175.758" x2="155.157" y2="64.934" gradientUnits="userSpaceOnUse">
<stop stop-color="#F3CFF7"/>
<stop offset="0.2017" stop-color="#ECC8F6"/>
<stop offset="0.5024" stop-color="#D9B3F4"/>
<stop offset="0.8633" stop-color="#B992F1"/>
<stop offset="1" stop-color="#AB84EF"/>
</linearGradient>
<linearGradient id="paint7_linear_1_4051" x1="265.624" y1="121.021" x2="283.433" y2="88.9651" gradientUnits="userSpaceOnUse">
<stop stop-color="#FFCE3D"/>
<stop offset="1" stop-color="#FFEF55"/>
</linearGradient>
<linearGradient id="paint8_linear_1_4051" x1="269.54" y1="70.5985" x2="270.593" y2="70.5985" gradientUnits="userSpaceOnUse">
<stop stop-color="#293267"/>
<stop offset="0.999" stop-color="#3B467E"/>
</linearGradient>
<linearGradient id="paint9_linear_1_4051" x1="275.346" y1="72.254" x2="276.423" y2="72.254" gradientUnits="userSpaceOnUse">
<stop stop-color="#293267"/>
<stop offset="0.999" stop-color="#3B467E"/>
</linearGradient>
<linearGradient id="paint10_linear_1_4051" x1="272.488" y1="72.7161" x2="273.565" y2="72.7161" gradientUnits="userSpaceOnUse">
<stop stop-color="#293267"/>
<stop offset="0.999" stop-color="#3B467E"/>
</linearGradient>
<linearGradient id="paint11_linear_1_4051" x1="85.7547" y1="187.209" x2="213.221" y2="187.209" gradientUnits="userSpaceOnUse">
<stop stop-color="#FFCE3D"/>
<stop offset="1" stop-color="#FFEF55"/>
</linearGradient>
<linearGradient id="paint12_linear_1_4051" x1="85.7537" y1="172.212" x2="213.22" y2="172.212" gradientUnits="userSpaceOnUse">
<stop stop-color="#FFCE3D"/>
<stop offset="1" stop-color="#FFEF55"/>
</linearGradient>
<linearGradient id="paint13_linear_1_4051" x1="237.932" y1="184.28" x2="242.392" y2="175.36" gradientUnits="userSpaceOnUse">
<stop stop-color="#481C95"/>
<stop offset="1" stop-color="#7733D6"/>
</linearGradient>
<linearGradient id="paint14_linear_1_4051" x1="55.8341" y1="179.701" x2="80.4413" y2="179.701" gradientUnits="userSpaceOnUse">
<stop stop-color="#481C95"/>
<stop offset="1" stop-color="#7733D6"/>
</linearGradient>
<linearGradient id="paint15_linear_1_4051" x1="87.7476" y1="156.186" x2="87.7476" y2="169.186" gradientUnits="userSpaceOnUse">
<stop stop-color="#481C95"/>
<stop offset="1" stop-color="#7733D6"/>
</linearGradient>
<linearGradient id="paint16_linear_1_4051" x1="87.5501" y1="133.886" x2="87.5501" y2="153.485" gradientUnits="userSpaceOnUse">
<stop stop-color="#481C95"/>
<stop offset="1" stop-color="#7733D6"/>
</linearGradient>
<linearGradient id="paint17_linear_1_4051" x1="80.4648" y1="144.581" x2="66.8372" y2="156.969" gradientUnits="userSpaceOnUse">
<stop stop-color="#FFCE3D"/>
<stop offset="1" stop-color="#FFEF89"/>
</linearGradient>
<linearGradient id="paint18_linear_1_4051" x1="82.7387" y1="147.082" x2="69.111" y2="159.471" gradientUnits="userSpaceOnUse">
<stop stop-color="#FFCE3D"/>
<stop offset="1" stop-color="#FFEF89"/>
</linearGradient>
</defs>
</svg>
