<svg width="276" height="238" viewBox="0 0 276 238" fill="none" xmlns="http://www.w3.org/2000/svg">
<path d="M41.0659 225.392L35.9213 228.362C35.9654 225.552 35.7778 220.231 34.2874 213.314C30.876 197.461 23.9539 194.706 20.5812 188.535C17.0373 182.043 21.5913 178.152 25.8859 178.82C29.7223 179.41 35.7998 184.13 38.8414 193.873C42.8544 206.718 41.8663 219.535 41.0659 225.392Z" fill="#BA68C8"/>
<path opacity="0.5" d="M41.0659 225.392L35.9213 228.362C35.9654 225.552 35.7778 220.231 34.2874 213.314C30.876 197.461 23.9539 194.706 20.5812 188.535C17.0373 182.043 21.5913 178.152 25.8859 178.82C29.7223 179.41 35.7998 184.13 38.8414 193.873C42.8544 206.718 41.8663 219.535 41.0659 225.392Z" fill="white"/>
<path d="M38.0308 224.133C37.8829 224.112 37.7808 223.976 37.8017 223.828C40.5297 204.745 32.0201 188.303 25.1063 182.723C24.9904 182.628 24.9722 182.459 25.0654 182.342C25.1604 182.225 25.3293 182.208 25.4458 182.301C32.4584 187.962 41.0939 204.612 38.3361 223.905C38.3151 224.052 38.1788 224.155 38.0308 224.133Z" fill="white"/>
<path d="M38.4999 226.885L35.9331 228.364L35.5136 228.607C34.6691 224.77 32.4114 220.768 28.1334 216.479C23.1157 211.451 16.1219 206.753 17.3583 202.53C18.5893 198.308 24.2363 199.423 28.1334 201.923C31.7926 204.275 39.5874 212.947 38.4999 226.885Z" fill="#BA68C8"/>
<path opacity="0.65" d="M38.4999 226.885L35.9331 228.364L35.5136 228.607C34.6691 224.77 32.4114 220.768 28.1334 216.479C23.1157 211.451 16.1219 206.753 17.3583 202.53C18.5893 198.308 24.2363 199.423 28.1334 201.923C31.7926 204.275 39.5874 212.947 38.4999 226.885Z" fill="white"/>
<path d="M37.1401 225.696C37.0137 225.678 36.9138 225.572 36.9088 225.44C36.5505 216.088 26.2883 203.983 21.4015 201.997C21.2629 201.941 21.1967 201.783 21.253 201.645C21.3082 201.507 21.4644 201.439 21.6046 201.497C26.7288 203.579 37.0766 215.699 37.4487 225.419C37.4547 225.568 37.3383 225.694 37.1892 225.699C37.1727 225.7 37.1566 225.699 37.1401 225.696Z" fill="white"/>
<path d="M57.5629 253.983L102.105 186.348L72.0601 169.001L27.5181 236.637L57.5629 253.983Z" fill="#BA68C8"/>
<path opacity="0.2" d="M57.5629 253.983L102.105 186.348L72.0601 169.001L27.5181 236.637L57.5629 253.983Z" fill="white"/>
<path d="M102.103 186.353L57.5615 253.988L75.5882 243.58L108.073 194.447L102.103 186.353Z" fill="#BA68C8"/>
<path opacity="0.2" d="M102.103 186.353L57.5615 253.988L75.5882 243.58L108.073 194.447L102.103 186.353Z" fill="black"/>
<path d="M182.929 39.6948L185.873 52.8694L197.972 59.9488L194.961 46.6412L182.929 39.6948Z" fill="#BA68C8"/>
<path opacity="0.2" d="M182.929 39.6948L185.873 52.8694L197.972 59.9488L194.961 46.6412L182.929 39.6948Z" fill="black"/>
<path d="M156.843 104.669L194.958 46.6432L182.926 39.6968L228.674 26.7905L237.007 70.9202L225.003 63.9898L186.888 122.016L156.843 104.669Z" fill="#BA68C8"/>
<path opacity="0.2" d="M156.843 104.669L194.958 46.6432L182.926 39.6968L228.674 26.7905L237.007 70.9202L225.003 63.9898L186.888 122.016L156.843 104.669Z" fill="white"/>
<path d="M225.003 63.9883L186.907 122.014L193.654 129.682L228.06 77.318L240.033 84.234L237.007 70.9186L225.003 63.9883Z" fill="#BA68C8"/>
<path opacity="0.2" d="M225.003 63.9883L186.907 122.014L193.654 129.682L228.06 77.318L240.033 84.234L237.007 70.9186L225.003 63.9883Z" fill="black"/>
<path d="M163.591 112.392L156.844 104.723L186.908 122.013L193.655 129.682L163.591 112.392Z" fill="#BA68C8"/>
<path opacity="0.4" d="M163.591 112.392L156.844 104.723L186.908 122.013L193.655 129.682L163.591 112.392Z" fill="black"/>
<path opacity="0.2" d="M228.062 77.318L225.004 63.9883L237.008 70.9186L240.034 84.234L228.062 77.318Z" fill="black"/>
<path d="M181.583 218.38C181.583 221.568 181.557 225.883 181.574 228.63C181.578 229.228 181.582 229.964 181.582 230.942C181.587 230.946 181.587 230.95 181.582 230.955C181.143 233.827 179.02 236.631 175.212 238.831C166.6 243.801 152.638 243.801 144.026 238.831C139.587 236.268 137.438 232.882 137.58 229.525V229.5C137.605 229.216 137.635 228.919 137.672 228.61C137.672 228.597 137.676 228.585 137.676 228.576C138.048 225.311 138.316 222.045 138.5 218.981C138.793 214.119 138.752 211.979 138.712 209.361C138.663 206.132 137.321 203.594 133.914 200.731C130.507 197.863 123.735 188.073 123.735 188.073L168.653 164.985L181.424 205.434C181.424 205.433 181.583 215.19 181.583 218.38Z" fill="#FFA8A7"/>
<path d="M168.988 156.62C168.988 156.62 168.141 160.023 164.127 155.522C160.113 151.021 153.547 144.141 146.627 137.522C143.311 134.349 130.021 123.658 121.104 115.579C118.263 112.649 114.226 110.596 111.452 112.729C108.677 114.861 108.669 120.1 110.417 122.696C111.964 124.995 115.278 128.186 117.808 130.478C117.792 130.616 117.777 130.753 117.76 130.892C117.281 135.069 116.426 139.766 116.021 144.831C115.779 147.847 112.142 151.649 112.192 154.746C113.261 159.145 119.106 163.896 123.239 167.196C127.373 170.497 129.172 171.84 129.126 172.882C129.054 174.479 122.36 168.671 119.382 166.626C119.548 176.105 113.491 177.246 113.491 177.246C114.401 179.071 119.566 183.09 126.908 192.49C129.807 196.201 159.306 171.782 159.306 171.782L166.311 167.286L171.24 159.13L168.988 156.62Z" fill="#FFA8A7"/>
<path d="M166.542 164.984C163.775 168.458 152.906 179.557 161.459 194.268C160.539 193.394 160.055 192.725 159.858 192.461C158.629 190.84 157.668 189.013 156.982 187.098C156.957 187.027 156.936 186.96 156.911 186.893C154.967 181.292 155.632 175.594 159.256 170.778C162.111 166.995 167.307 163.321 168.001 159.24C168.027 159.09 168.043 158.943 168.051 158.797C168.172 160.068 168.315 162.765 166.542 164.984Z" fill="#F28F8F"/>
<path opacity="0.5" d="M109.873 114.823C108.783 117.317 109.106 120.749 110.417 122.697C111.963 124.995 115.278 128.186 117.808 130.478C117.795 130.589 117.783 130.699 117.77 130.809C118.886 131.766 120.085 132.781 121.401 133.939C124.569 136.727 128.759 140.324 131.921 143.117C133.504 144.515 141.03 150.569 143.759 153.005C139.557 148.397 130.121 140.033 125.373 135.358C121.788 131.828 116.505 126.905 114.783 124.944C113.061 122.984 112.057 121.641 111.452 120.901C109.341 118.314 109.806 115.328 109.873 114.823Z" fill="#F28F8F"/>
<path d="M117.926 181.332C119.414 181.196 121.324 180.095 122.096 178.816C123.206 176.976 123.417 175.546 123.117 172.676C123.04 171.942 122.858 170.618 122.306 168.721C121.321 168.012 120.297 167.251 119.384 166.625C119.549 176.104 113.492 177.245 113.492 177.245C113.905 178.072 115.192 179.351 117.156 181.374C117.414 181.368 117.671 181.355 117.926 181.332Z" fill="#F28F8F"/>
<path d="M113.074 143.033C112.837 143.251 116.192 146.483 116.545 146.68C117.788 147.373 120.163 146.51 121.191 145.651C121.839 145.109 122.313 144.379 122.641 143.6C123.759 140.946 123.213 137.92 122.646 135.097C122.557 134.654 122.43 134.158 122.037 133.938C121.971 135.415 120.668 136.059 119.703 136.945C118.782 137.791 117.862 138.637 116.941 139.482C115.652 140.665 114.363 141.849 113.074 143.033Z" fill="#F28F8F"/>
<path d="M120.699 144.771L138.265 162.501L117.757 145.311L120.699 144.771Z" fill="#F28F8F"/>
<path d="M118.307 159.919C120.008 159.369 121.426 157.999 122.017 156.312C122.52 154.874 122.434 153.305 122.337 151.785C122.254 150.492 122.163 149.174 121.685 147.97L113.468 150.759C112.756 152.137 112.175 153.498 112.195 154.745C112.631 156.538 113.771 158.356 115.379 160.103C116.318 160.262 117.401 160.211 118.307 159.919Z" fill="#F28F8F"/>
<path d="M116.113 130.339C119.724 130.01 121.618 131.594 122.426 134.831C122.732 136.056 122.764 137.997 122.426 140.404C122.088 142.812 119.808 145.695 116.873 145.264C116.826 145.256 116.779 145.249 116.731 145.241C111.986 144.47 111.449 141.921 111.449 137.807C111.449 133.693 112.9 130.632 116.113 130.339Z" fill="#FFA8A7"/>
<path opacity="0.5" d="M120.37 131.293C120.632 131.52 122.163 133.02 122.177 137.171C122.192 141.71 119.915 142.651 117.401 143.055C114.888 143.459 111.498 141.895 111.498 139.621L111.497 139.622C111.714 142.675 112.723 144.591 116.726 145.241C116.774 145.249 116.821 145.256 116.868 145.263C119.803 145.695 122.083 142.811 122.421 140.404C122.758 137.997 122.726 136.056 122.421 134.831C122.024 133.243 121.364 132.055 120.37 131.293Z" fill="#F28F8F"/>
<path d="M116.198 144.807C119.496 144.506 121.227 145.954 121.965 148.911C122.244 150.03 122.274 151.803 121.965 154.002C121.657 156.2 119.574 158.835 116.893 158.44C116.85 158.434 116.807 158.427 116.763 158.42C112.429 157.716 111.938 155.388 111.938 151.629C111.938 147.871 113.263 145.075 116.198 144.807Z" fill="#FFA8A7"/>
<path opacity="0.5" d="M120.793 146.373C121.258 147.063 121.595 148.76 121.322 151.331C120.963 154.699 120.242 156.336 117.295 156.548C114.241 156.768 112.365 155.354 112.042 153.867C112.333 156.317 113.366 157.869 116.761 158.421C116.805 158.428 116.848 158.435 116.891 158.441C119.572 158.836 121.654 156.201 121.963 154.002C122.272 151.804 122.242 150.03 121.963 148.912C121.704 147.875 121.32 147.029 120.793 146.373Z" fill="#F28F8F"/>
<path d="M116.378 165.214C119.801 164.902 122.362 166.528 122.362 169.473V174.756C122.362 177.568 119.881 179.772 117.099 179.362C117.054 179.356 117.009 179.349 116.964 179.341C112.466 178.611 112.52 174.502 112.466 172.344C112.412 170.187 113.332 165.492 116.378 165.214Z" fill="#FFA8A7"/>
<path opacity="0.5" d="M120.693 166.154C122.189 167.72 121.606 170.905 121.491 174.046C121.411 176.225 120.276 178.031 117.297 178.031C114.318 178.031 112.984 176.211 112.579 174.429L112.578 174.425C112.824 176.483 113.684 178.808 116.962 179.341C117.007 179.348 117.052 179.355 117.096 179.362C119.879 179.771 122.36 177.568 122.36 174.755V169.472C122.36 168.02 121.735 166.89 120.693 166.154Z" fill="#F28F8F"/>
<path d="M78.4316 164.171L152.064 108.344L182.128 125.69L108.476 181.517L78.4316 164.171Z" fill="#BA68C8"/>
<path d="M182.128 125.69L188.875 133.358L114.446 189.611L108.476 181.517L182.128 125.69Z" fill="#BA68C8"/>
<path opacity="0.2" d="M182.128 125.69L188.875 133.358L114.446 189.611L108.476 181.517L182.128 125.69Z" fill="black"/>
<path d="M78.4316 164.173L84.4015 172.268L114.446 189.613L108.476 181.518L78.4316 164.173Z" fill="#BA68C8"/>
<path opacity="0.4" d="M78.4316 164.173L84.4015 172.268L114.446 189.613L108.476 181.518L78.4316 164.173Z" fill="black"/>
<path d="M181.415 205.433C181.415 197.605 181.986 187.1 183.281 178.044C184.576 168.988 184.326 161.236 183.929 159.046C183.533 156.857 183.421 153.674 180.041 149.634C178.449 147.73 174.956 144.954 172.043 141.534C169.104 138.082 166.361 134.25 164.807 132.154C163.252 130.058 159.391 133.432 159.579 140.115C159.732 145.573 163.462 150.35 164.904 152.391C166.662 154.882 167.912 157.287 168.052 158.789C168.17 160.061 168.314 162.754 166.54 164.98C163.774 168.454 152.904 179.553 161.459 194.264V207.76L181.415 205.433Z" fill="#FFA8A7"/>
<path d="M165.508 136.239C165.508 136.239 168.825 140.739 169.885 141.318C170.945 141.896 171.246 140.577 171.246 140.577L171.243 140.571C169.719 138.43 166.877 134.536 164.809 132.153C165.075 132.602 165.682 134.248 165.508 136.239Z" fill="#FFA8A7"/>
<path opacity="0.6" d="M165.508 136.239C165.508 136.239 168.825 140.741 169.885 141.318C170.877 141.857 171.246 140.577 171.246 140.577L171.243 140.571C169.719 138.43 166.877 134.536 164.809 132.153C165.075 132.602 165.682 134.248 165.508 136.239Z" fill="white"/>
<path d="M171.243 140.577L171.24 140.571C171.243 140.577 170.921 140.065 170.747 139.881C170.898 140.936 170.133 141.424 170.133 141.424C171.006 141.68 171.243 140.577 171.243 140.577Z" fill="#F28F8F"/>
<path d="M138.665 237.443C137.721 235.85 136.151 234.353 133.949 233.082C126.238 228.63 113.735 228.63 106.024 233.082C103.822 234.353 102.252 235.85 101.307 237.443H100.241V241.478H100.255C100.396 244.283 102.316 247.063 106.024 249.204C113.735 253.656 126.237 253.656 133.949 249.204C137.656 247.063 139.59 244.283 139.732 241.478V241.478V237.443H138.665Z" fill="#BA68C8"/>
<path opacity="0.25" d="M138.665 237.443C137.721 235.85 136.151 234.353 133.949 233.082C126.238 228.63 113.735 228.63 106.024 233.082C103.822 234.353 102.252 235.85 101.307 237.443H100.241V241.478H100.255C100.396 244.283 102.316 247.063 106.024 249.204C113.735 253.656 126.237 253.656 133.949 249.204C137.656 247.063 139.59 244.283 139.732 241.478V241.478V237.443H138.665Z" fill="black"/>
<path opacity="0.1" d="M119.987 229.743C114.934 229.743 109.88 230.856 106.024 233.082C103.822 234.353 102.252 235.85 101.308 237.444H100.241V241.478H100.255C100.397 244.283 102.316 247.063 106.024 249.204C109.88 251.43 114.934 252.543 119.987 252.543V229.743Z" fill="black"/>
<path opacity="0.1" d="M109.202 231.594C108.078 232.017 107.011 232.512 106.024 233.082C103.822 234.353 102.252 235.85 101.308 237.444H100.241V241.478H100.255C100.397 244.283 102.316 247.063 106.024 249.204C107.011 249.774 108.079 250.268 109.202 250.692V231.594Z" fill="black"/>
<path opacity="0.5" d="M130.771 231.594C131.895 232.017 132.962 232.512 133.949 233.082C136.151 234.353 137.722 235.85 138.666 237.444H139.733V241.478V241.478C139.59 244.282 137.657 247.063 133.949 249.204C132.962 249.774 131.895 250.268 130.771 250.692V231.594Z" fill="#BA68C8"/>
<path d="M106.017 229.385C98.3056 233.837 98.3067 241.055 106.017 245.507C112.764 249.403 123.179 249.89 130.843 246.969L130.844 246.969C130.946 246.929 131.048 246.89 131.15 246.849C132.132 246.459 133.067 246.012 133.942 245.507C140.372 241.795 141.441 236.159 137.145 231.807C137.144 231.806 137.143 231.805 137.143 231.805C136.289 230.939 135.221 230.124 133.941 229.385C126.231 224.934 113.728 224.933 106.017 229.385Z" fill="#BA68C8"/>
<path opacity="0.2" d="M106.017 229.385C98.3056 233.837 98.3067 241.055 106.017 245.507C112.764 249.403 123.179 249.89 130.843 246.969L130.844 246.969C130.946 246.929 131.048 246.89 131.15 246.849C132.132 246.459 133.067 246.012 133.942 245.507C140.372 241.795 141.441 236.159 137.145 231.807C137.144 231.806 137.143 231.805 137.143 231.805C136.289 230.939 135.221 230.124 133.941 229.385C126.231 224.934 113.728 224.933 106.017 229.385Z" fill="black"/>
<path opacity="0.5" d="M137.145 231.807C137.227 231.9 139.925 234.746 139.21 238.841C138.527 242.759 133.041 246.056 131.15 246.849C132.131 246.459 133.067 246.012 133.941 245.507C140.372 241.794 141.44 236.159 137.145 231.807Z" fill="#F5F5F5"/>
<path opacity="0.5" d="M102.817 243.085C102.734 242.991 100.037 240.146 100.752 236.052C101.435 232.134 106.921 228.836 108.812 228.043C107.831 228.433 106.895 228.88 106.021 229.385C99.5905 233.097 98.5219 238.733 102.817 243.085Z" fill="#F5F5F5"/>
<path d="M132.96 244.923C140.128 240.784 140.128 234.074 132.96 229.936C125.792 225.797 114.17 225.797 107.002 229.936C99.8334 234.074 99.8334 240.784 107.002 244.923C114.17 249.061 125.792 249.061 132.96 244.923Z" fill="#BA68C8"/>
<path opacity="0.4" d="M132.96 244.923C140.128 240.784 140.128 234.074 132.96 229.936C125.792 225.797 114.17 225.797 107.002 229.936C99.8334 234.074 99.8334 240.784 107.002 244.923C114.17 249.061 125.792 249.061 132.96 244.923Z" fill="white"/>
<path opacity="0.2" d="M137.507 240.594C138.983 237.867 138.501 234.861 136.066 232.311C135.615 231.84 135.096 231.384 134.511 230.949C134.057 230.609 133.56 230.282 133.025 229.97C132.732 229.798 132.431 229.635 132.121 229.48C132.884 230.735 132.604 232.08 128.281 232.332C119.821 232.827 130.542 240.911 130.542 240.911C130.542 240.911 135.995 238.278 137.507 240.594Z" fill="white"/>
<path opacity="0.5" d="M136.633 238.356C137.903 238.214 138.532 236.909 138.039 235.44C137.545 233.972 136.116 232.897 134.847 233.039C133.577 233.181 132.948 234.487 133.441 235.955C133.935 237.424 135.364 238.498 136.633 238.356Z" fill="white"/>
<path d="M123.247 245.094C122.83 241.952 109.098 233.255 109.098 233.255C109.098 233.255 106.052 232.033 107.064 229.904C106.535 230.207 106.046 230.524 105.595 230.854C105.278 231.083 104.981 231.318 104.703 231.56C100.615 235.1 100.61 239.75 104.705 243.295C104.981 243.536 105.279 243.772 105.595 244.002C106.016 244.309 106.468 244.604 106.957 244.888C107.423 245.162 107.91 245.414 108.412 245.651C108.812 245.84 109.228 246.018 109.65 246.184C110.069 246.35 110.499 246.505 110.937 246.648C112.242 247.076 113.619 247.403 115.034 247.632C115.339 247.681 115.648 247.726 115.956 247.766C117.305 247.939 118.677 248.026 120.053 248.023C121.741 248.02 123.428 247.883 125.064 247.612C125.063 247.611 122.854 247.16 123.247 245.094Z" fill="#BA68C8"/>
<path opacity="0.3" d="M123.247 245.094C122.83 241.952 109.098 233.255 109.098 233.255C109.098 233.255 106.052 232.033 107.064 229.904C106.535 230.207 106.046 230.524 105.595 230.854C105.278 231.083 104.981 231.318 104.703 231.56C100.615 235.1 100.61 239.75 104.705 243.295C104.981 243.536 105.279 243.772 105.595 244.002C106.016 244.309 106.468 244.604 106.957 244.888C107.423 245.162 107.91 245.414 108.412 245.651C108.812 245.84 109.228 246.018 109.65 246.184C110.069 246.35 110.499 246.505 110.937 246.648C112.242 247.076 113.619 247.403 115.034 247.632C115.339 247.681 115.648 247.726 115.956 247.766C117.305 247.939 118.677 248.026 120.053 248.023C121.741 248.02 123.428 247.883 125.064 247.612C125.063 247.611 122.854 247.16 123.247 245.094Z" fill="white"/>
<path d="M110.305 231.847C105.183 234.804 104.975 239.523 109.68 242.625C109.88 242.756 110.09 242.886 110.307 243.012C115.648 246.096 124.303 246.096 129.644 243.012C134.985 239.929 134.986 234.93 129.646 231.847C129.428 231.722 129.202 231.601 128.974 231.485C123.602 228.768 115.428 228.89 110.305 231.847Z" fill="#BA68C8"/>
<path opacity="0.2" d="M110.305 231.847C105.183 234.804 104.975 239.523 109.68 242.625C109.88 242.756 110.09 242.886 110.307 243.012C115.648 246.096 124.303 246.096 129.644 243.012C134.985 239.929 134.986 234.93 129.646 231.847C129.428 231.722 129.202 231.601 128.974 231.485C123.602 228.768 115.428 228.89 110.305 231.847Z" fill="black"/>
<path d="M119.982 244.973C127.201 244.973 133.053 241.595 133.053 237.427C133.053 233.259 127.201 229.88 119.982 229.88C112.763 229.88 106.911 233.259 106.911 237.427C106.911 241.595 112.763 244.973 119.982 244.973Z" fill="#BA68C8"/>
<path opacity="0.5" d="M119.982 244.973C127.201 244.973 133.053 241.595 133.053 237.427C133.053 233.259 127.201 229.88 119.982 229.88C112.763 229.88 106.911 233.259 106.911 237.427C106.911 241.595 112.763 244.973 119.982 244.973Z" fill="black"/>
<path d="M110.735 234.197C115.839 231.25 124.115 231.25 129.22 234.197C131.308 235.402 132.54 236.913 132.92 238.48C132.54 240.048 131.307 241.559 129.22 242.764C124.116 245.711 115.84 245.711 110.735 242.764C108.648 241.559 107.415 240.048 107.035 238.48C107.415 236.913 108.648 235.402 110.735 234.197Z" fill="#BA68C8"/>
<path opacity="0.35" d="M110.735 234.197C115.839 231.25 124.115 231.25 129.22 234.197C131.308 235.402 132.54 236.913 132.92 238.48C132.54 240.048 131.307 241.559 129.22 242.764C124.116 245.711 115.84 245.711 110.735 242.764C108.648 241.559 107.415 240.048 107.035 238.48C107.415 236.913 108.648 235.402 110.735 234.197Z" fill="black"/>
<path d="M128.225 239.702C128.224 239.448 128.228 238.409 128.226 238.142C128.221 237.502 127.783 236.882 126.83 236.324C126.82 236.317 126.808 236.31 126.797 236.303C125.042 235.29 123.229 235.422 121.613 235.829C121.608 235.83 121.604 235.83 121.599 235.832C120.912 236.005 120.26 236.228 119.664 236.432C118.841 236.718 118.166 236.95 117.588 237.075C117.587 237.076 117.587 237.076 117.585 237.077C117.224 237.154 116.9 237.189 116.598 237.171C116.309 237.154 116.041 237.082 115.78 236.954C115.802 236.939 115.822 236.923 115.846 236.908C115.91 236.865 115.979 236.823 116.051 236.782C116.234 236.677 116.415 236.586 116.598 236.51C117.616 236.079 118.596 236.099 119.504 236.444L121.18 234.753V233.202C119.691 232.697 118.143 232.644 116.598 233.036C116.111 233.16 115.625 233.329 115.141 233.54L113.465 232.573L111.465 233.727V235.278L112.15 235.674C111.954 235.978 111.855 236.281 111.856 236.578C111.857 236.836 111.858 237.867 111.858 238.127C111.856 238.768 112.317 239.385 113.282 239.942C114.214 240.48 115.141 240.705 116.043 240.738L116.045 240.737C116.227 240.745 116.414 240.743 116.597 240.734C117.643 240.685 118.645 240.405 119.563 240.094C119.76 240.028 119.951 239.961 120.141 239.895L118.454 241.586V243.137C120.835 244.092 123.16 243.638 124.917 242.857L126.572 243.813L128.572 242.658V241.107L127.885 240.711C128.11 240.373 128.226 240.035 128.225 239.702ZM124.007 239.569C123.854 239.657 123.698 239.735 123.543 239.801C122.354 240.31 121.129 240.201 120.273 239.85C121.839 239.298 123.147 238.814 124.261 239.407C124.183 239.461 124.1 239.516 124.007 239.569Z" fill="#BA68C8"/>
<path d="M121.622 235.827C121.617 235.828 121.613 235.828 121.608 235.83C120.921 236.003 120.269 236.226 119.673 236.43C118.85 236.716 118.175 236.948 117.597 237.073C117.595 237.074 117.595 237.074 117.594 237.075C117.233 237.152 116.909 237.187 116.607 237.169C116.268 237.149 115.958 237.059 115.656 236.885C115.012 236.513 114.919 235.969 115.854 235.355C115.918 235.312 115.987 235.271 116.06 235.229C116.242 235.124 116.424 235.032 116.607 234.957C117.625 234.526 118.605 234.546 119.513 234.891L121.189 233.2C119.7 232.695 118.151 232.642 116.607 233.034C116.12 233.158 115.634 233.327 115.15 233.538L113.474 232.571L111.474 233.725L113.13 234.682C113.13 234.682 113.125 234.687 113.115 234.695C111.434 235.972 111.399 237.297 113.291 238.389C114.223 238.927 115.149 239.152 116.052 239.184L116.054 239.183C116.236 239.191 116.423 239.189 116.606 239.181C117.652 239.131 118.654 238.851 119.572 238.54C121.491 237.898 123.046 237.142 124.339 237.888C125.205 238.388 124.965 239.017 124.014 239.566C123.861 239.654 123.705 239.732 123.55 239.798C122.333 240.32 121.077 240.194 120.219 239.822L118.462 241.584C120.843 242.538 123.168 242.085 124.925 241.304L126.58 242.259L128.581 241.104L126.926 240.149C128.589 238.862 128.781 237.46 126.838 236.322C126.828 236.314 126.815 236.307 126.805 236.301C125.051 235.288 123.237 235.421 121.622 235.827Z" fill="#BA68C8"/>
<g opacity="0.3">
<path d="M121.622 235.826C121.617 235.827 121.613 235.827 121.608 235.829C120.922 236.002 120.269 236.225 119.674 236.429C118.85 236.715 118.175 236.947 117.597 237.072C117.596 237.073 117.596 237.073 117.594 237.074C117.233 237.151 116.909 237.187 116.607 237.168C116.269 237.148 115.958 237.058 115.656 236.884C115.012 236.513 114.919 235.968 115.855 235.354C115.919 235.311 115.988 235.27 116.06 235.228C116.243 235.123 116.424 235.032 116.607 234.956C117.625 234.525 118.605 234.545 119.513 234.89L121.189 233.199C119.7 232.694 118.152 232.641 116.607 233.033C116.12 233.157 115.634 233.326 115.15 233.537L113.475 232.57L111.474 233.724L113.131 234.681C113.131 234.681 113.126 234.686 113.115 234.694C111.434 235.971 111.4 237.296 113.291 238.388C114.223 238.926 115.15 239.151 116.052 239.183L116.054 239.182C116.237 239.19 116.423 239.188 116.606 239.18C117.652 239.13 118.655 238.85 119.573 238.539C121.492 237.897 123.047 237.141 124.339 237.887C125.206 238.387 124.966 239.016 124.014 239.565C123.861 239.653 123.705 239.731 123.55 239.797C122.334 240.319 121.077 240.193 120.219 239.821L118.462 241.583C120.844 242.537 123.169 242.084 124.926 241.303L126.581 242.258L128.581 241.104L126.926 240.148C128.59 238.861 128.782 237.459 126.838 236.321C126.828 236.313 126.816 236.306 126.806 236.3C125.052 235.287 123.238 235.42 121.622 235.826Z" fill="white"/>
</g>
<path opacity="0.45" d="M111.474 233.724L113.493 232.809L115.149 233.537L113.473 232.57L111.474 233.724Z" fill="#F5F5F5"/>
<path opacity="0.45" d="M116.378 233.095C117.457 232.861 119.201 232.795 120.677 233.24L119.516 234.888L121.192 233.198C119.408 232.629 117.828 232.667 116.378 233.095Z" fill="#F5F5F5"/>
<path opacity="0.45" d="M126.81 236.3C126.821 236.306 126.833 236.313 126.843 236.321C128.786 237.459 128.594 238.861 126.931 240.148C128.405 238.542 128.139 237.422 126.537 236.497C124.939 235.574 122.892 235.584 121.625 235.825C123.242 235.419 125.056 235.287 126.81 236.3Z" fill="#F5F5F5"/>
<path opacity="0.45" d="M117.593 237.075C116.836 237.372 115.748 237.322 115.197 236.848C114.619 236.351 114.99 235.818 115.853 235.355C114.917 235.969 115.01 236.514 115.654 236.885C115.956 237.059 116.267 237.149 116.605 237.169C116.908 237.188 117.232 237.152 117.593 237.075Z" fill="#F5F5F5"/>
<path opacity="0.45" d="M113.108 234.695C112.967 234.82 111.763 235.942 112.294 237.065C112.858 238.261 114.623 239.029 116.047 239.184L116.045 239.185C115.143 239.152 114.216 238.928 113.284 238.39C111.393 237.298 111.427 235.972 113.108 234.695Z" fill="#F5F5F5"/>
<path d="M142.413 231.761C141.469 230.167 139.899 228.67 137.697 227.399C129.986 222.947 117.484 222.947 109.772 227.399C107.57 228.67 106 230.167 105.055 231.761H103.989V235.796H104.003C104.144 238.6 106.064 241.381 109.772 243.521C117.483 247.973 129.985 247.973 137.697 243.521C141.404 241.381 143.338 238.6 143.48 235.795V235.796V231.761H142.413Z" fill="#BA68C8"/>
<path opacity="0.25" d="M142.413 231.761C141.469 230.167 139.899 228.67 137.697 227.399C129.986 222.947 117.484 222.947 109.772 227.399C107.57 228.67 106 230.167 105.055 231.761H103.989V235.796H104.003C104.144 238.6 106.064 241.381 109.772 243.521C117.483 247.973 129.985 247.973 137.697 243.521C141.404 241.381 143.338 238.6 143.48 235.795V235.796V231.761H142.413Z" fill="black"/>
<path opacity="0.1" d="M123.735 224.06C118.682 224.06 113.628 225.173 109.772 227.399C107.57 228.671 106 230.168 105.056 231.761H103.989V235.796H104.003C104.145 238.601 106.064 241.381 109.772 243.522C113.628 245.748 118.682 246.861 123.735 246.861V224.06Z" fill="black"/>
<path opacity="0.1" d="M112.95 225.911C111.826 226.335 110.759 226.83 109.772 227.399C107.57 228.671 106 230.168 105.056 231.761H103.989V235.796H104.003C104.145 238.601 106.064 241.381 109.772 243.522C110.759 244.091 111.826 244.586 112.95 245.01V225.911Z" fill="black"/>
<path opacity="0.5" d="M134.52 225.911C135.643 226.335 136.71 226.83 137.697 227.399C139.899 228.671 141.47 230.168 142.414 231.761H143.481V235.796V235.795C143.338 238.6 141.405 241.381 137.697 243.522C136.71 244.091 135.643 244.586 134.52 245.01V225.911Z" fill="#BA68C8"/>
<path d="M109.764 223.704C102.053 228.156 102.054 235.374 109.764 239.826C116.511 243.721 126.926 244.209 134.59 241.287L134.591 241.286C134.694 241.247 134.795 241.208 134.897 241.167C135.879 240.777 136.814 240.33 137.689 239.825C144.119 236.112 145.188 230.477 140.892 226.125C140.891 226.123 140.89 226.123 140.89 226.123C140.036 225.257 138.968 224.442 137.689 223.703C129.978 219.252 117.476 219.252 109.764 223.704Z" fill="#BA68C8"/>
<path opacity="0.2" d="M109.764 223.704C102.053 228.156 102.054 235.374 109.764 239.826C116.511 243.721 126.926 244.209 134.59 241.287L134.591 241.286C134.694 241.247 134.795 241.208 134.897 241.167C135.879 240.777 136.814 240.33 137.689 239.825C144.119 236.112 145.188 230.477 140.892 226.125C140.891 226.123 140.89 226.123 140.89 226.123C140.036 225.257 138.968 224.442 137.689 223.703C129.978 219.252 117.476 219.252 109.764 223.704Z" fill="black"/>
<path opacity="0.5" d="M140.892 226.123C140.975 226.216 143.672 229.062 142.957 233.156C142.274 237.074 136.788 240.372 134.897 241.165C135.879 240.775 136.815 240.328 137.689 239.823C144.119 236.11 145.188 230.475 140.892 226.123Z" fill="#F5F5F5"/>
<path opacity="0.5" d="M106.565 237.4C106.482 237.307 103.785 234.461 104.5 230.367C105.182 226.449 110.669 223.152 112.56 222.359C111.579 222.749 110.643 223.196 109.768 223.701C103.338 227.414 102.27 233.049 106.565 237.4Z" fill="#F5F5F5"/>
<path d="M136.708 239.241C143.876 235.103 143.876 228.392 136.708 224.254C129.54 220.116 117.918 220.116 110.75 224.254C103.581 228.392 103.581 235.103 110.75 239.241C117.918 243.379 129.54 243.379 136.708 239.241Z" fill="#BA68C8"/>
<path opacity="0.4" d="M136.708 239.241C143.876 235.103 143.876 228.392 136.708 224.254C129.54 220.116 117.918 220.116 110.75 224.254C103.581 228.392 103.581 235.103 110.75 239.241C117.918 243.379 129.54 243.379 136.708 239.241Z" fill="white"/>
<path opacity="0.2" d="M141.255 234.912C142.731 232.185 142.249 229.179 139.814 226.629C139.363 226.158 138.844 225.703 138.259 225.268C137.805 224.927 137.308 224.601 136.773 224.288C136.48 224.117 136.179 223.954 135.869 223.798C136.632 225.053 136.352 226.399 132.029 226.651C123.569 227.145 134.29 235.229 134.29 235.229C134.29 235.229 139.743 232.596 141.255 234.912Z" fill="white"/>
<path opacity="0.5" d="M140.381 232.675C141.651 232.532 142.28 231.227 141.787 229.759C141.293 228.29 139.864 227.215 138.595 227.357C137.325 227.5 136.696 228.805 137.189 230.274C137.683 231.742 139.112 232.817 140.381 232.675Z" fill="white"/>
<path d="M126.996 239.412C126.579 236.271 112.846 227.573 112.846 227.573C112.846 227.573 109.801 226.351 110.812 224.223C110.284 224.526 109.794 224.843 109.343 225.172C109.026 225.401 108.729 225.636 108.451 225.879C104.363 229.419 104.358 234.069 108.453 237.613C108.729 237.854 109.028 238.091 109.343 238.321C109.764 238.628 110.217 238.922 110.705 239.207C111.171 239.48 111.658 239.733 112.16 239.969C112.56 240.158 112.977 240.337 113.398 240.502C113.817 240.668 114.247 240.823 114.685 240.966C115.99 241.395 117.367 241.722 118.782 241.951C119.087 242 119.396 242.045 119.703 242.084C121.053 242.258 122.425 242.344 123.8 242.342C125.489 242.338 127.176 242.201 128.812 241.93C128.812 241.929 126.603 241.478 126.996 239.412Z" fill="#BA68C8"/>
<path opacity="0.3" d="M126.996 239.412C126.579 236.271 112.846 227.573 112.846 227.573C112.846 227.573 109.801 226.351 110.812 224.223C110.284 224.526 109.794 224.843 109.343 225.172C109.026 225.401 108.729 225.636 108.451 225.879C104.363 229.419 104.358 234.069 108.453 237.613C108.729 237.854 109.028 238.091 109.343 238.321C109.764 238.628 110.217 238.922 110.705 239.207C111.171 239.48 111.658 239.733 112.16 239.969C112.56 240.158 112.977 240.337 113.398 240.502C113.817 240.668 114.247 240.823 114.685 240.966C115.99 241.395 117.367 241.722 118.782 241.951C119.087 242 119.396 242.045 119.703 242.084C121.053 242.258 122.425 242.344 123.8 242.342C125.489 242.338 127.176 242.201 128.812 241.93C128.812 241.929 126.603 241.478 126.996 239.412Z" fill="white"/>
<path d="M114.053 226.163C108.931 229.121 108.723 233.839 113.428 236.941C113.628 237.072 113.838 237.203 114.056 237.328C119.396 240.412 128.051 240.412 133.392 237.328C138.733 234.245 138.734 229.247 133.394 226.164C133.176 226.038 132.95 225.917 132.722 225.802C127.35 223.085 119.176 223.206 114.053 226.163Z" fill="#BA68C8"/>
<path opacity="0.2" d="M114.053 226.163C108.931 229.121 108.723 233.839 113.428 236.941C113.628 237.072 113.838 237.203 114.056 237.328C119.396 240.412 128.051 240.412 133.392 237.328C138.733 234.245 138.734 229.247 133.394 226.164C133.176 226.038 132.95 225.917 132.722 225.802C127.35 223.085 119.176 223.206 114.053 226.163Z" fill="black"/>
<path d="M114.487 226.409C109.383 229.356 109.383 234.134 114.487 237.081C119.592 240.028 127.868 240.028 132.973 237.081C138.077 234.134 138.077 229.356 132.973 226.409C127.868 223.462 119.592 223.462 114.487 226.409Z" fill="#BA68C8"/>
<path opacity="0.5" d="M114.487 226.409C109.383 229.356 109.383 234.134 114.487 237.081C119.592 240.028 127.868 240.028 132.973 237.081C138.077 234.134 138.077 229.356 132.973 226.409C127.868 223.462 119.592 223.462 114.487 226.409Z" fill="black"/>
<path d="M114.483 228.515C119.588 225.568 127.864 225.568 132.969 228.515C135.056 229.72 136.288 231.232 136.669 232.799C136.288 234.366 135.056 235.877 132.969 237.082C127.864 240.029 119.588 240.029 114.483 237.082C112.396 235.877 111.163 234.365 110.783 232.799C111.164 231.232 112.396 229.72 114.483 228.515Z" fill="#BA68C8"/>
<path opacity="0.35" d="M114.483 228.515C119.588 225.568 127.864 225.568 132.969 228.515C135.056 229.72 136.288 231.232 136.669 232.799C136.288 234.366 135.056 235.877 132.969 237.082C127.864 240.029 119.588 240.029 114.483 237.082C112.396 235.877 111.163 234.365 110.783 232.799C111.164 231.232 112.396 229.72 114.483 228.515Z" fill="black"/>
<path d="M131.963 234.018C131.962 233.764 131.967 232.725 131.964 232.458C131.96 231.818 131.521 231.198 130.569 230.64C130.559 230.633 130.546 230.625 130.536 230.619C128.781 229.606 126.967 229.738 125.352 230.145C125.347 230.146 125.343 230.146 125.338 230.147C124.651 230.321 123.999 230.544 123.403 230.748C122.58 231.034 121.905 231.266 121.327 231.391C121.325 231.392 121.325 231.392 121.324 231.393C120.963 231.469 120.639 231.505 120.337 231.487C120.048 231.469 119.78 231.398 119.519 231.27C119.541 231.255 119.561 231.239 119.584 231.224C119.648 231.181 119.717 231.14 119.79 231.098C119.972 230.993 120.154 230.902 120.337 230.826C121.355 230.395 122.335 230.415 123.243 230.76L124.919 229.069V227.518C123.429 227.013 121.881 226.96 120.337 227.352C119.85 227.476 119.363 227.645 118.88 227.856L117.204 226.888L115.204 228.043V229.594L115.889 229.99C115.693 230.294 115.594 230.597 115.595 230.895C115.596 231.153 115.598 232.183 115.597 232.443C115.595 233.084 116.056 233.702 117.021 234.259C117.953 234.797 118.88 235.021 119.782 235.054L119.784 235.052C119.967 235.06 120.153 235.059 120.337 235.05C121.383 235.001 122.385 234.721 123.303 234.409C123.5 234.344 123.691 234.277 123.88 234.211L122.194 235.902V237.453C124.575 238.408 126.9 237.954 128.656 237.173L130.311 238.129L132.311 236.974V235.423L131.624 235.027C131.849 234.689 131.965 234.351 131.963 234.018ZM127.746 233.884C127.592 233.973 127.436 234.051 127.281 234.117C126.092 234.626 124.867 234.517 124.011 234.165C125.577 233.613 126.885 233.13 127.999 233.723C127.921 233.777 127.838 233.831 127.746 233.884Z" fill="#BA68C8"/>
<path d="M125.362 230.144C125.357 230.145 125.353 230.145 125.349 230.146C124.662 230.319 124.009 230.542 123.414 230.746C122.591 231.032 121.916 231.265 121.338 231.389C121.336 231.39 121.336 231.39 121.334 231.391C120.974 231.468 120.649 231.504 120.347 231.485C120.009 231.465 119.698 231.375 119.396 231.201C118.753 230.83 118.659 230.285 119.594 229.672C119.659 229.628 119.728 229.587 119.8 229.545C119.983 229.44 120.164 229.349 120.347 229.273C121.365 228.842 122.345 228.862 123.253 229.207L124.929 227.517C123.44 227.011 121.891 226.958 120.347 227.35C119.86 227.474 119.374 227.644 118.89 227.854L117.214 226.887L115.214 228.042L116.871 228.998C116.871 228.998 116.866 229.003 116.855 229.011C115.175 230.288 115.14 231.613 117.032 232.705C117.963 233.244 118.89 233.468 119.793 233.5L119.794 233.499C119.977 233.507 120.164 233.505 120.346 233.497C121.392 233.447 122.395 233.167 123.313 232.856C125.232 232.215 126.787 231.458 128.079 232.204C128.946 232.704 128.706 233.333 127.755 233.882C127.601 233.971 127.446 234.048 127.29 234.115C126.074 234.636 124.818 234.51 123.96 234.138L122.203 235.9C124.584 236.854 126.909 236.401 128.665 235.62L130.32 236.575L132.32 235.421L130.665 234.465C132.329 233.178 132.521 231.776 130.578 230.638C130.567 230.63 130.555 230.623 130.545 230.617C128.791 229.605 126.977 229.737 125.362 230.144Z" fill="#BA68C8"/>
<g opacity="0.3">
<path d="M125.359 230.144C125.354 230.145 125.35 230.145 125.345 230.146C124.658 230.32 124.006 230.543 123.41 230.747C122.587 231.033 121.912 231.265 121.334 231.389C121.333 231.39 121.333 231.39 121.331 231.392C120.971 231.468 120.646 231.504 120.344 231.485C120.006 231.465 119.695 231.376 119.393 231.202C118.749 230.83 118.656 230.286 119.591 229.672C119.655 229.629 119.724 229.588 119.796 229.546C119.979 229.44 120.161 229.349 120.343 229.274C121.362 228.843 122.342 228.863 123.25 229.208L124.926 227.517C123.436 227.012 121.888 226.959 120.343 227.351C119.857 227.475 119.37 227.644 118.887 227.855L117.211 226.887L115.211 228.042L116.867 228.999C116.867 228.999 116.863 229.004 116.852 229.011C115.171 230.289 115.136 231.614 117.028 232.706C117.96 233.244 118.887 233.468 119.789 233.501L119.791 233.5C119.974 233.508 120.16 233.506 120.343 233.497C121.389 233.448 122.391 233.167 123.309 232.857C125.229 232.215 126.784 231.459 128.076 232.205C128.942 232.705 128.702 233.333 127.751 233.883C127.598 233.972 127.442 234.049 127.287 234.115C126.07 234.636 124.814 234.511 123.956 234.139L122.199 235.9C124.581 236.855 126.906 236.401 128.662 235.62L130.317 236.576L132.317 235.421L130.662 234.466C132.326 233.178 132.517 231.776 130.574 230.639C130.564 230.631 130.552 230.624 130.542 230.618C128.788 229.605 126.974 229.738 125.359 230.144Z" fill="white"/>
</g>
<path opacity="0.45" d="M115.211 228.042L117.23 227.127L118.887 227.855L117.211 226.887L115.211 228.042Z" fill="#F5F5F5"/>
<path opacity="0.45" d="M120.115 227.415C121.193 227.181 122.938 227.115 124.414 227.56L123.253 229.208L124.929 227.518C123.145 226.948 121.564 226.988 120.115 227.415Z" fill="#F5F5F5"/>
<path opacity="0.45" d="M130.547 230.62C130.558 230.626 130.57 230.633 130.58 230.641C132.523 231.779 132.331 233.181 130.668 234.468C132.141 232.862 131.876 231.742 130.274 230.817C128.676 229.895 126.629 229.905 125.362 230.146C126.978 229.739 128.792 229.607 130.547 230.62Z" fill="#F5F5F5"/>
<path opacity="0.45" d="M130.659 234.465L131.928 235.44L130.314 236.575L132.314 235.421L130.659 234.465Z" fill="#F5F5F5"/>
<path opacity="0.45" d="M127.283 234.117C125.526 234.95 124.095 234.395 124.095 234.395L122.195 235.903L123.952 234.141C124.81 234.513 126.066 234.638 127.283 234.117Z" fill="#F5F5F5"/>
<path opacity="0.45" d="M121.329 231.393C120.573 231.69 119.484 231.639 118.934 231.166C118.356 230.668 118.727 230.136 119.59 229.673C118.654 230.287 118.747 230.831 119.391 231.203C119.693 231.377 120.004 231.467 120.343 231.486C120.644 231.506 120.969 231.47 121.329 231.393Z" fill="#F5F5F5"/>
<path opacity="0.45" d="M116.845 229.012C116.704 229.138 115.5 230.26 116.031 231.382C116.595 232.579 118.36 233.347 119.784 233.501L119.782 233.502C118.88 233.469 117.953 233.245 117.021 232.708C115.129 231.615 115.164 230.29 116.845 229.012Z" fill="#F5F5F5"/>
<path d="M137.948 225.113C137.004 223.519 135.433 222.022 133.232 220.751C125.52 216.299 113.019 216.299 105.307 220.751C103.105 222.022 101.535 223.519 100.59 225.113H99.5239V229.147H99.5377C99.6796 231.952 101.599 234.732 105.307 236.873C113.018 241.325 125.52 241.325 133.232 236.873C136.94 234.732 138.873 231.952 139.015 229.146V225.112L137.948 225.113Z" fill="#BA68C8"/>
<path opacity="0.25" d="M137.948 225.113C137.004 223.519 135.433 222.022 133.232 220.751C125.52 216.299 113.019 216.299 105.307 220.751C103.105 222.022 101.535 223.519 100.59 225.113H99.5239V229.147H99.5377C99.6796 231.952 101.599 234.732 105.307 236.873C113.018 241.325 125.52 241.325 133.232 236.873C136.94 234.732 138.873 231.952 139.015 229.146V225.112L137.948 225.113Z" fill="black"/>
<path opacity="0.1" d="M119.271 217.412C114.218 217.412 109.163 218.525 105.308 220.751C103.106 222.022 101.535 223.519 100.591 225.113H99.5239V229.147H99.5377C99.6801 231.952 101.599 234.732 105.307 236.873C109.163 239.099 114.217 240.212 119.271 240.212L119.271 217.412Z" fill="black"/>
<path opacity="0.1" d="M108.486 219.263C107.362 219.687 106.295 220.181 105.308 220.751C103.106 222.022 101.535 223.519 100.591 225.113H99.5239V229.147H99.5377C99.6801 231.952 101.599 234.732 105.307 236.873C106.294 237.443 107.361 237.937 108.485 238.362V219.263H108.486Z" fill="black"/>
<path opacity="0.5" d="M130.055 219.263C131.179 219.687 132.246 220.181 133.233 220.751C135.434 222.022 137.005 223.519 137.949 225.113H139.016V229.147C138.873 231.952 136.94 234.732 133.233 236.873C132.246 237.443 131.178 237.938 130.055 238.362V219.263Z" fill="#BA68C8"/>
<path d="M105.303 217.05C97.5917 221.502 97.5928 228.721 105.303 233.172C112.05 237.068 122.465 237.555 130.129 234.634L130.13 234.633C130.233 234.594 130.334 234.555 130.436 234.514C131.418 234.124 132.353 233.677 133.228 233.172C139.658 229.459 140.727 223.824 136.432 219.472C136.43 219.47 136.429 219.47 136.429 219.47C135.575 218.604 134.508 217.789 133.228 217.05C125.517 212.599 113.015 212.598 105.303 217.05Z" fill="#BA68C8"/>
<path opacity="0.2" d="M105.303 217.05C97.5917 221.502 97.5928 228.721 105.303 233.172C112.05 237.068 122.465 237.555 130.129 234.634L130.13 234.633C130.233 234.594 130.334 234.555 130.436 234.514C131.418 234.124 132.353 233.677 133.228 233.172C139.658 229.459 140.727 223.824 136.432 219.472C136.43 219.47 136.429 219.47 136.429 219.47C135.575 218.604 134.508 217.789 133.228 217.05C125.517 212.599 113.015 212.598 105.303 217.05Z" fill="black"/>
<path opacity="0.5" d="M136.429 219.473C136.512 219.566 139.209 222.412 138.494 226.506C137.811 230.424 132.325 233.722 130.435 234.514C131.416 234.124 132.352 233.677 133.226 233.172C139.656 229.46 140.725 223.825 136.429 219.473Z" fill="#F5F5F5"/>
<path opacity="0.5" d="M102.102 230.751C102.019 230.657 99.3222 227.812 100.037 223.717C100.72 219.799 106.206 216.501 108.097 215.709C107.116 216.099 106.18 216.546 105.306 217.051C98.875 220.764 97.8064 226.399 102.102 230.751Z" fill="#F5F5F5"/>
<path d="M119.268 235.697C129.405 235.697 137.623 230.953 137.623 225.1C137.623 219.247 129.405 214.503 119.268 214.503C109.13 214.503 100.913 219.247 100.913 225.1C100.913 230.953 109.13 235.697 119.268 235.697Z" fill="#BA68C8"/>
<path opacity="0.4" d="M119.268 235.697C129.405 235.697 137.623 230.953 137.623 225.1C137.623 219.247 129.405 214.503 119.268 214.503C109.13 214.503 100.913 219.247 100.913 225.1C100.913 230.953 109.13 235.697 119.268 235.697Z" fill="white"/>
<path opacity="0.2" d="M101.747 228.267C100.272 225.54 100.753 222.533 103.188 219.984C103.639 219.512 104.158 219.057 104.743 218.622C105.197 218.282 105.695 217.955 106.229 217.643C106.523 217.472 106.823 217.308 107.134 217.153C106.371 218.408 106.651 219.753 110.973 220.005C119.433 220.499 108.712 228.585 108.712 228.585C108.712 228.585 103.259 225.951 101.747 228.267Z" fill="white"/>
<path opacity="0.5" d="M102.62 226.027C101.35 225.885 100.721 224.579 101.215 223.111C101.708 221.643 103.137 220.567 104.407 220.71C105.676 220.852 106.306 222.158 105.812 223.626C105.319 225.094 103.89 226.169 102.62 226.027Z" fill="white"/>
<path d="M116 232.767C116.416 229.625 130.149 220.928 130.149 220.928C130.149 220.928 133.194 219.706 132.183 217.577C132.711 217.88 133.201 218.197 133.652 218.527C133.969 218.756 134.266 218.991 134.545 219.233C138.633 222.773 138.638 227.424 134.543 230.968C134.267 231.209 133.968 231.445 133.653 231.675C133.231 231.982 132.779 232.276 132.291 232.561C131.825 232.834 131.338 233.087 130.836 233.323C130.436 233.512 130.019 233.691 129.598 233.856C129.179 234.023 128.749 234.177 128.311 234.32C127.006 234.749 125.629 235.076 124.214 235.305C123.909 235.354 123.6 235.398 123.293 235.438C121.943 235.612 120.571 235.698 119.196 235.695C117.508 235.692 115.82 235.555 114.184 235.284C114.184 235.284 116.392 234.832 116 232.767Z" fill="#BA68C8"/>
<path opacity="0.3" d="M116 232.767C116.416 229.625 130.149 220.928 130.149 220.928C130.149 220.928 133.194 219.706 132.183 217.577C132.711 217.88 133.201 218.197 133.652 218.527C133.969 218.756 134.266 218.991 134.545 219.233C138.633 222.773 138.638 227.424 134.543 230.968C134.267 231.209 133.968 231.445 133.653 231.675C133.231 231.982 132.779 232.276 132.291 232.561C131.825 232.834 131.338 233.087 130.836 233.323C130.436 233.512 130.019 233.691 129.598 233.856C129.179 234.023 128.749 234.177 128.311 234.32C127.006 234.749 125.629 235.076 124.214 235.305C123.909 235.354 123.6 235.398 123.293 235.438C121.943 235.612 120.571 235.698 119.196 235.695C117.508 235.692 115.82 235.555 114.184 235.284C114.184 235.284 116.392 234.832 116 232.767Z" fill="white"/>
<path d="M128.942 219.518C134.065 222.475 134.272 227.194 129.567 230.296C129.367 230.427 129.158 230.557 128.94 230.683C123.599 233.767 114.944 233.767 109.604 230.683C104.263 227.6 104.261 222.601 109.601 219.518C109.819 219.392 110.045 219.271 110.273 219.156C115.646 216.439 123.82 216.56 128.942 219.518Z" fill="#BA68C8"/>
<path opacity="0.2" d="M128.942 219.518C134.065 222.475 134.272 227.194 129.567 230.296C129.367 230.427 129.158 230.557 128.94 230.683C123.599 233.767 114.944 233.767 109.604 230.683C104.263 227.6 104.261 222.601 109.601 219.518C109.819 219.392 110.045 219.271 110.273 219.156C115.646 216.439 123.82 216.56 128.942 219.518Z" fill="black"/>
<path d="M128.503 219.761C133.607 222.708 133.607 227.487 128.503 230.434C123.398 233.381 115.122 233.381 110.017 230.434C104.913 227.487 104.913 222.708 110.017 219.761C115.122 216.814 123.398 216.814 128.503 219.761Z" fill="#BA68C8"/>
<path opacity="0.5" d="M128.503 219.761C133.607 222.708 133.607 227.487 128.503 230.434C123.398 233.381 115.122 233.381 110.017 230.434C104.913 227.487 104.913 222.708 110.017 219.761C115.122 216.814 123.398 216.814 128.503 219.761Z" fill="black"/>
<path d="M128.508 221.868C123.403 218.92 115.127 218.92 110.022 221.868C107.935 223.073 106.703 224.584 106.322 226.151C106.703 227.718 107.935 229.23 110.022 230.435C115.127 233.382 123.403 233.382 128.507 230.435C130.595 229.23 131.827 227.718 132.207 226.151C131.827 224.584 130.595 223.073 128.508 221.868Z" fill="#BA68C8"/>
<path opacity="0.35" d="M128.508 221.868C123.403 218.92 115.127 218.92 110.022 221.868C107.935 223.073 106.703 224.584 106.322 226.151C106.703 227.718 107.935 229.23 110.022 230.435C115.127 233.382 123.403 233.382 128.507 230.435C130.595 229.23 131.827 227.718 132.207 226.151C131.827 224.584 130.595 223.073 128.508 221.868Z" fill="black"/>
<path d="M127.501 227.374C127.5 227.119 127.504 226.081 127.502 225.814C127.497 225.174 127.059 224.553 126.107 223.996C126.096 223.988 126.084 223.981 126.074 223.975C124.318 222.961 122.505 223.094 120.889 223.501C120.884 223.502 120.88 223.502 120.875 223.503C120.189 223.676 119.536 223.899 118.941 224.103C118.118 224.389 117.442 224.622 116.865 224.746C116.863 224.747 116.863 224.747 116.861 224.748C116.5 224.825 116.176 224.861 115.874 224.842C115.586 224.825 115.317 224.753 115.057 224.625C115.079 224.61 115.099 224.595 115.122 224.58C115.186 224.537 115.255 224.495 115.327 224.453C115.51 224.348 115.692 224.258 115.874 224.181C116.892 223.751 117.873 223.771 118.781 224.116L120.456 222.425V220.874C118.967 220.369 117.419 220.316 115.874 220.708C115.387 220.831 114.901 221.001 114.418 221.212L112.742 220.244L110.741 221.399V222.95L111.426 223.346C111.23 223.65 111.131 223.953 111.132 224.25C111.133 224.508 111.135 225.539 111.134 225.799C111.133 226.44 111.594 227.057 112.558 227.614C113.49 228.152 114.417 228.377 115.32 228.409L115.321 228.408C115.504 228.416 115.69 228.414 115.874 228.406C116.92 228.356 117.922 228.076 118.84 227.765C119.037 227.699 119.228 227.632 119.418 227.566L117.731 229.258V230.809C120.112 231.763 122.437 231.31 124.194 230.529L125.849 231.484L127.849 230.33V228.778L127.162 228.382C127.387 228.045 127.503 227.707 127.501 227.374ZM123.284 227.241C123.13 227.329 122.975 227.407 122.82 227.473C121.631 227.982 120.405 227.873 119.549 227.521C121.115 226.969 122.423 226.486 123.538 227.079C123.459 227.133 123.376 227.187 123.284 227.241Z" fill="#BA68C8"/>
<path d="M120.882 223.497C120.876 223.498 120.873 223.498 120.868 223.499C120.181 223.672 119.529 223.895 118.933 224.099C118.11 224.385 117.435 224.618 116.857 224.742C116.856 224.743 116.856 224.743 116.854 224.744C116.493 224.821 116.169 224.857 115.867 224.838C115.529 224.818 115.218 224.728 114.916 224.554C114.272 224.183 114.179 223.638 115.115 223.025C115.179 222.982 115.248 222.94 115.32 222.898C115.503 222.793 115.684 222.702 115.867 222.626C116.885 222.195 117.865 222.215 118.773 222.56L120.449 220.87C118.96 220.365 117.411 220.312 115.867 220.703C115.38 220.827 114.894 220.997 114.41 221.207L112.734 220.24L110.734 221.395L112.39 222.351C112.39 222.351 112.385 222.356 112.375 222.364C110.694 223.641 110.659 224.967 112.551 226.058C113.483 226.597 114.41 226.821 115.312 226.853L115.314 226.852C115.497 226.86 115.683 226.858 115.866 226.851C116.912 226.801 117.914 226.52 118.832 226.21C120.752 225.568 122.307 224.811 123.599 225.558C124.465 226.058 124.225 226.687 123.274 227.236C123.121 227.325 122.966 227.402 122.81 227.468C121.593 227.989 120.337 227.864 119.479 227.492L117.722 229.253C120.104 230.208 122.429 229.755 124.185 228.974L125.84 229.929L127.84 228.774L126.185 227.819C127.849 226.531 128.04 225.129 126.097 223.992C126.086 223.984 126.074 223.977 126.064 223.971C124.311 222.958 122.497 223.09 120.882 223.497Z" fill="#BA68C8"/>
<g opacity="0.3">
<path d="M120.884 223.496C120.879 223.497 120.875 223.497 120.871 223.499C120.184 223.672 119.531 223.895 118.936 224.099C118.113 224.385 117.438 224.617 116.86 224.742C116.858 224.743 116.858 224.743 116.856 224.744C116.495 224.821 116.171 224.856 115.869 224.838C115.531 224.818 115.22 224.728 114.918 224.554C114.275 224.182 114.181 223.638 115.117 223.024C115.181 222.981 115.25 222.94 115.322 222.898C115.505 222.793 115.687 222.701 115.869 222.626C116.887 222.195 117.868 222.215 118.776 222.56L120.452 220.869C118.962 220.364 117.414 220.311 115.869 220.703C115.383 220.827 114.896 220.996 114.413 221.207L112.737 220.24L110.736 221.394L112.393 222.351C112.393 222.351 112.388 222.356 112.377 222.364C110.697 223.641 110.662 224.966 112.554 226.058C113.485 226.596 114.412 226.82 115.315 226.853L115.316 226.852C115.499 226.86 115.686 226.858 115.868 226.85C116.914 226.801 117.917 226.52 118.835 226.209C120.754 225.567 122.309 224.811 123.601 225.557C124.467 226.058 124.228 226.686 123.277 227.236C123.123 227.324 122.968 227.402 122.812 227.468C121.596 227.989 120.339 227.864 119.482 227.492L117.725 229.253C120.106 230.208 122.431 229.754 124.187 228.973L125.842 229.929L127.842 228.774L126.187 227.818C127.851 226.531 128.043 225.129 126.099 223.991C126.089 223.984 126.076 223.977 126.066 223.97C124.313 222.958 122.499 223.09 120.884 223.496Z" fill="white"/>
</g>
<path opacity="0.45" d="M110.736 221.394L112.755 220.479L114.412 221.207L112.736 220.24L110.736 221.394Z" fill="#F5F5F5"/>
<path opacity="0.45" d="M115.64 220.767C116.719 220.533 118.464 220.468 119.939 220.913L118.778 222.561L120.454 220.871C118.67 220.301 117.09 220.34 115.64 220.767Z" fill="#F5F5F5"/>
<path opacity="0.45" d="M126.072 223.973C126.083 223.979 126.095 223.985 126.105 223.993C128.048 225.131 127.856 226.533 126.193 227.821C127.667 226.214 127.401 225.095 125.799 224.17C124.201 223.247 122.155 223.257 120.888 223.498C122.503 223.092 124.317 222.959 126.072 223.973Z" fill="#F5F5F5"/>
<path opacity="0.45" d="M126.185 227.817L127.454 228.793L125.84 229.928L127.84 228.773L126.185 227.817Z" fill="#F5F5F5"/>
<path opacity="0.45" d="M122.808 227.469C121.051 228.302 119.62 227.747 119.62 227.747L117.72 229.255L119.477 227.494C120.335 227.865 121.591 227.99 122.808 227.469Z" fill="#F5F5F5"/>
<path opacity="0.45" d="M116.854 224.745C116.099 225.042 115.01 224.992 114.459 224.518C113.881 224.021 114.252 223.488 115.115 223.025C114.179 223.639 114.273 224.183 114.916 224.555C115.218 224.729 115.529 224.819 115.867 224.839C116.169 224.858 116.494 224.822 116.854 224.745Z" fill="#F5F5F5"/>
<path opacity="0.45" d="M112.37 222.365C112.229 222.49 111.024 223.612 111.556 224.734C112.12 225.931 113.885 226.699 115.309 226.854L115.307 226.855C114.405 226.822 113.478 226.597 112.546 226.06C110.655 224.967 110.689 223.642 112.37 222.365Z" fill="#F5F5F5"/>
<path d="M101.828 223.108L102.325 219.33L102.823 223.108L109.366 223.395L102.823 223.682L102.325 227.46L101.828 223.682L95.2847 223.395L101.828 223.108Z" fill="white"/>
<g opacity="0.3">
<path d="M220.135 230.782C220.107 230.782 220.078 230.775 220.053 230.76L209.364 224.589C209.313 224.56 209.282 224.506 209.282 224.447C209.282 224.388 209.313 224.333 209.364 224.304L222.726 216.59C222.777 216.56 222.839 216.56 222.89 216.59L233.579 222.761C233.63 222.791 233.661 222.845 233.661 222.904C233.661 222.963 233.629 223.017 233.579 223.046L220.218 230.76C220.192 230.775 220.163 230.782 220.135 230.782ZM209.775 224.447L220.135 230.429L233.167 222.904L222.807 216.923L209.775 224.447Z" fill="#BA68C8"/>
</g>
<path d="M220.128 229.076L220.127 173.751L212.11 169.122L212.111 224.447L220.128 229.076Z" fill="#BA68C8"/>
<path opacity="0.2" d="M220.128 229.076L220.127 173.751L212.11 169.122L212.111 224.447L220.128 229.076Z" fill="black"/>
<path d="M220.125 229.076L230.814 222.905L230.816 167.581L220.124 173.752L220.125 229.076Z" fill="#BA68C8"/>
<path d="M230.818 167.58L222.802 162.952L212.11 169.122L220.127 173.75L230.818 167.58Z" fill="#BA68C8"/>
<path opacity="0.25" d="M230.818 167.58L222.802 162.952L212.11 169.122L220.127 173.75L230.818 167.58Z" fill="white"/>
<path opacity="0.3" d="M230.822 167.58L220.024 173.532L216.517 171.575L212.113 169.122L216.439 171.71L219.985 173.827C219.901 175.031 219.878 224.185 219.895 225.389C219.913 226.618 219.97 227.847 220.131 229.075C220.291 227.847 220.348 226.617 220.365 225.388C220.381 224.223 220.358 175.107 220.28 173.943L230.822 167.58Z" fill="white"/>
<g opacity="0.3">
<path d="M200.092 242.356C200.064 242.356 200.035 242.349 200.01 242.334L189.321 236.163C189.27 236.133 189.239 236.079 189.239 236.02C189.239 235.962 189.271 235.907 189.321 235.878L202.683 228.164C202.734 228.135 202.796 228.135 202.847 228.164L213.536 234.335C213.587 234.365 213.618 234.419 213.618 234.478C213.618 234.537 213.587 234.591 213.536 234.62L200.175 242.334C200.148 242.349 200.12 242.356 200.092 242.356ZM189.732 236.02L200.092 242.002L213.124 234.477L202.764 228.496L189.732 236.02Z" fill="#BA68C8"/>
</g>
<path d="M200.074 240.648L200.072 207.455L192.056 202.826L192.057 236.02L200.074 240.648Z" fill="#BA68C8"/>
<path opacity="0.1" d="M200.074 240.648L200.072 207.455L192.056 202.826L192.057 236.02L200.074 240.648Z" fill="white"/>
<path d="M200.071 240.65L210.76 234.478L210.762 201.285L200.07 207.456L200.071 240.65Z" fill="#BA68C8"/>
<path opacity="0.3" d="M200.071 240.65L210.76 234.478L210.762 201.285L200.07 207.456L200.071 240.65Z" fill="white"/>
<path d="M210.764 201.284L202.747 196.656L192.056 202.827L200.072 207.455L210.764 201.284Z" fill="#BA68C8"/>
<path opacity="0.55" d="M210.764 201.284L202.747 196.656L192.056 202.827L200.072 207.455L210.764 201.284Z" fill="white"/>
<path opacity="0.3" d="M200.218 207.652L210.767 201.284L199.968 207.237C198.804 206.577 197.633 205.929 196.463 205.279L192.059 202.826L196.385 205.414C197.567 206.123 198.748 206.833 199.937 207.531C199.899 208.779 199.86 214.8 199.849 216.047C199.836 217.321 199.831 231.734 199.841 233.007C199.848 234.281 199.869 235.554 199.912 236.828C199.944 238.101 199.996 239.374 200.077 240.648C200.159 239.374 200.21 238.101 200.242 236.828C200.284 235.554 200.305 234.281 200.312 233.007C200.322 231.734 200.316 217.321 200.303 216.047C200.292 214.84 200.255 208.859 200.218 207.652Z" fill="white"/>
<path d="M180.045 252.217L180.043 240.552L172.027 235.923L172.028 247.589L180.045 252.217Z" fill="#BA68C8"/>
<path opacity="0.45" d="M180.045 252.217L180.043 240.552L172.027 235.923L172.028 247.589L180.045 252.217Z" fill="black"/>
<path d="M180.043 252.218L190.732 246.047L190.734 234.382L180.042 240.553L180.043 252.218Z" fill="#BA68C8"/>
<path opacity="0.3" d="M180.043 252.218L190.732 246.047L190.734 234.382L180.042 240.553L180.043 252.218Z" fill="black"/>
<path d="M190.736 234.381L182.718 229.753L172.027 235.924L180.043 240.552L190.736 234.381Z" fill="#BA68C8"/>
<path opacity="0.15" d="M190.736 234.381L182.718 229.753L172.027 235.924L180.043 240.552L190.736 234.381Z" fill="black"/>
<path opacity="0.3" d="M190.737 234.383L179.939 240.335L176.432 238.378L172.028 235.925L176.354 238.514L179.898 240.629C179.816 241.361 179.793 249.214 179.81 249.946C179.828 250.704 179.886 251.461 180.046 252.219C180.206 251.461 180.263 250.704 180.281 249.946C180.296 249.251 180.275 241.437 180.202 240.742L190.737 234.383Z" fill="white"/>
<g opacity="0.3">
<path d="M240.154 219.214C240.126 219.214 240.098 219.207 240.072 219.192L229.383 213.021C229.332 212.992 229.301 212.938 229.301 212.879C229.301 212.819 229.332 212.765 229.383 212.736L242.745 205.022C242.796 204.993 242.858 204.993 242.909 205.022L253.598 211.193C253.649 211.223 253.681 211.277 253.681 211.336C253.681 211.395 253.649 211.449 253.598 211.478L240.237 219.192C240.211 219.207 240.183 219.214 240.154 219.214ZM229.795 212.879L240.154 218.861L253.187 211.336L242.827 205.355L229.795 212.879Z" fill="#BA68C8"/>
</g>
<path d="M240.161 217.512L240.159 140.927L232.143 136.299L232.144 212.883L240.161 217.512Z" fill="#BA68C8"/>
<path opacity="0.3" d="M240.161 217.512L240.159 140.927L232.143 136.299L232.144 212.883L240.161 217.512Z" fill="white"/>
<path d="M240.159 217.513L250.848 211.341L250.85 134.758L240.158 140.928L240.159 217.513Z" fill="#BA68C8"/>
<path opacity="0.55" d="M240.159 217.513L250.848 211.341L250.85 134.758L240.158 140.928L240.159 217.513Z" fill="white"/>
<path d="M250.852 134.756L242.834 130.128L232.143 136.299L240.159 140.927L250.852 134.756Z" fill="#BA68C8"/>
<path opacity="0.75" d="M250.852 134.756L242.834 130.128L232.143 136.299L240.159 140.927L250.852 134.756Z" fill="white"/>
<path opacity="0.3" d="M240.302 141.123L250.852 134.755L240.053 140.709C238.888 140.049 237.718 139.4 236.548 138.75L232.144 136.298L236.47 138.886C237.652 139.594 238.833 140.305 240.021 141.003C239.984 142.417 239.944 160.155 239.933 161.569C239.921 163.009 239.915 207.432 239.926 208.871C239.933 210.311 239.954 211.751 239.996 213.191C240.028 214.63 240.08 216.071 240.161 217.51C240.243 216.071 240.294 214.63 240.326 213.191C240.368 211.751 240.389 210.311 240.396 208.871C240.406 207.432 240.4 163.009 240.387 161.569C240.376 160.195 240.338 142.497 240.302 141.123Z" fill="white"/>
<path opacity="0.5" d="M54.0864 93.7497L23.1187 111.629L38.6034 83.1838L54.0864 93.7497Z" fill="#BA68C8"/>
<path opacity="0.3" d="M54.0864 106.754L23.1187 124.633L38.6034 96.1882L54.0864 106.754Z" fill="#BA68C8"/>
<path opacity="0.15" d="M54.0864 119.756L23.1187 137.635L38.6034 109.19L54.0864 119.756Z" fill="#BA68C8"/>
<path opacity="0.2" d="M124.488 156.802C126.954 154.676 130.225 152.681 134.206 150.876C138.68 148.846 144.06 147.048 147.796 144.841C152.651 141.973 154.502 138.516 154.147 135.037C153.947 133.067 152.773 130.882 148.294 129.43C147.148 129.059 145.751 128.741 144.246 128.668C142.036 128.561 140.121 128.994 138.579 129.46C130.35 131.95 126.857 135.776 124.097 139.494C121.336 143.211 117.984 145.366 111.959 148.869C109.38 150.368 106.614 151.836 104.179 153.354C104.159 153.366 104.14 153.378 104.12 153.391C102.89 154.162 101.535 154.877 100.566 155.704C99.0211 157.024 97.661 158.386 97.1045 159.826C96.5481 161.267 96.8258 162.8 98.4685 164.235C98.8914 164.604 99.4417 164.983 100.381 165.234C101.177 165.446 102.172 165.544 103.134 165.577C105.094 165.643 106.987 165.457 108.587 165.144C110.188 164.83 111.522 164.395 112.753 163.935C118.124 161.931 121.543 159.34 124.488 156.802Z" fill="black"/>
<path d="M99.2712 83.5416C98.8202 84.7383 97.5064 87.2803 97.5887 87.601C97.8128 88.4787 97.8564 89.0141 97.6626 90.0381C97.5467 90.6502 92.2514 92.7318 92.2514 92.7318L92.1228 91.8944C92.0361 91.3298 92.1068 90.7535 92.332 90.2285C92.9453 88.7966 94.1977 85.6657 94.588 83.137L99.2712 83.5416Z" fill="#FFA8A7"/>
<path d="M97.7381 89.5032L92.1348 92.0225L92.2441 92.7351C92.2441 92.7351 97.5394 90.6535 97.6553 90.0414C97.6918 89.8443 97.7177 89.6693 97.7381 89.5032Z" fill="#F28F8F"/>
<path d="M80.7601 100.274L79.076 117.573C78.9943 118.411 79.5402 118.954 80.2236 119.451L81.9409 120.68C82.415 121.02 82.6855 121.145 83.3347 121.098C83.6184 121.08 84.1097 120.897 84.3448 120.794C84.3603 120.792 84.3724 120.785 84.3846 120.779L84.4884 120.732L104.128 111.807C105.563 111.154 106.541 109.786 106.694 108.217L108.228 92.4656C108.262 92.1073 108.052 91.6425 107.758 91.4333L104.826 89.3391C104.534 89.1276 104.027 89.078 103.7 89.2292L81.4214 99.354C81.2542 99.4257 81.0991 99.5704 80.9804 99.7343C80.8612 99.9021 80.7773 100.096 80.7601 100.274Z" fill="#37474F"/>
<path d="M80.7601 100.274L79.076 117.573C78.9943 118.411 79.5402 118.954 80.2236 119.451L81.9409 120.68C82.415 121.02 82.6855 121.145 83.3347 121.098C83.6184 121.08 84.1097 120.897 84.3448 120.794L84.3454 120.787C83.5875 121.056 83.0532 120.623 83.1371 119.765L84.7241 103.466C84.7506 103.194 84.8748 102.901 85.0558 102.648L80.9809 99.7344C80.8612 99.9022 80.7773 100.096 80.7601 100.274Z" fill="#263238"/>
<path d="M84.7186 103.465C84.771 102.923 85.2203 102.295 85.716 102.07L106.773 92.5002C107.605 92.1221 108.213 92.5571 108.125 93.4668L106.69 108.215C106.538 109.784 105.559 111.152 104.124 111.805L84.484 120.731C83.6516 121.109 83.0432 120.674 83.1316 119.764L84.7186 103.465Z" fill="#455A64"/>
<path d="M107.317 93.1918C107.303 93.2127 107.311 93.2823 107.301 93.3866L105.867 108.135C105.743 109.406 104.945 110.523 103.781 111.052L84.1413 119.978C84.0453 120.022 83.9796 120.036 83.9432 120.039C83.9525 120.017 83.9443 119.948 83.9548 119.845L85.5418 103.546C85.5694 103.265 85.8017 102.94 86.0584 102.823L107.115 93.2541C107.215 93.2078 107.282 93.1951 107.317 93.1918ZM107.337 92.3638C107.167 92.3638 106.976 92.4074 106.773 92.5007L85.7162 102.07C85.2205 102.295 84.7712 102.923 84.7187 103.465L83.1317 119.765C83.0644 120.452 83.395 120.868 83.9194 120.868C84.0894 120.868 84.2799 120.824 84.4841 120.731L104.125 111.805C105.559 111.152 106.538 109.784 106.691 108.214L108.125 93.4667C108.191 92.78 107.861 92.3638 107.337 92.3638Z" fill="#37474F"/>
<path d="M105.762 90.0173L83.4326 100.281C82.7906 100.575 82.354 101.189 82.2855 101.893L80.5522 119.696L80.8558 119.914L82.6073 101.923C82.6642 101.337 83.0324 100.821 83.5673 100.574L106.065 90.2337L105.762 90.0173Z" fill="#BA68C8"/>
<path opacity="0.2" d="M82.6449 100.932C82.4462 101.211 82.3197 101.54 82.2855 101.89L80.5522 119.695L80.8558 119.912L82.6073 101.922C82.6355 101.629 82.7415 101.354 82.9076 101.121L82.6449 100.932Z" fill="black"/>
<path opacity="0.2" d="M82.9044 101.122C83.0705 100.889 83.2963 100.698 83.564 100.574L106.062 90.2337L105.759 90.0173L83.4293 100.281C83.1097 100.428 82.8398 100.655 82.6416 100.934" fill="black"/>
<path d="M98.033 91.4989L97.7725 94.1777L98.7611 94.8848L99.1078 91.3272C99.1254 91.1451 99.0034 91.0578 98.8373 91.1335L98.033 91.4989Z" fill="#BA68C8"/>
<path opacity="0.4" d="M98.033 91.4989L97.7725 94.1777L98.7611 94.8848L99.1078 91.3272C99.1254 91.1451 99.0034 91.0578 98.8373 91.1335L98.033 91.4989Z" fill="black"/>
<path d="M90.4189 93.4278L89.9966 97.7643L90.9405 98.4405L91.6515 98.1165L91.9981 94.5594C92.0158 94.3767 92.167 94.1653 92.3343 94.0897L97.7229 91.6415L98.8424 91.1326C99.0091 91.057 99.1311 91.1436 99.1134 91.3263L98.7668 94.8834L99.4799 94.5594L99.9017 90.224C99.9033 90.2058 99.9039 90.1859 99.9022 90.1672C99.8973 89.9944 99.7957 89.794 99.661 89.6985L99.2591 89.4098C99.1107 89.3033 98.8534 89.2779 98.6851 89.3541L90.7534 92.9581C90.5856 93.0353 90.4365 93.2457 90.4189 93.4278Z" fill="#BA68C8"/>
<path opacity="0.2" d="M91.3626 94.1048L90.9409 98.4419L91.6519 98.1178L91.9986 94.5608C92.0162 94.378 92.1675 94.1666 92.3347 94.091L97.7233 91.6429L98.8428 91.1339C99.0095 91.0583 99.1315 91.145 99.1138 91.3277L98.7672 94.8848L99.4804 94.5608L99.9021 90.2253C99.9037 90.2071 99.9043 90.1873 99.9026 90.1685C99.8916 90.025 99.7784 89.9643 99.6294 90.0316L91.6977 93.6356C91.5316 93.7123 91.3803 93.9226 91.3626 94.1048Z" fill="black"/>
<path d="M96.8765 91.2992C96.9924 91.3031 97.1044 91.3368 97.1972 91.4074C97.3418 91.1645 97.6217 91.0083 97.9043 91.0133C98.0285 91.0155 98.1726 91.0657 98.2046 91.1855C98.2151 91.2253 98.2117 91.2672 98.2079 91.3086C98.1698 91.7077 98.1146 92.1052 98.0434 92.4993C97.9915 92.7841 97.9192 93.0894 97.7006 93.2793C97.5212 93.4349 97.2568 93.4846 97.0332 93.4046C96.9526 93.5933 96.7892 93.7413 96.5999 93.8175C96.5557 93.8351 95.9988 93.8837 96.033 93.8186C95.8238 94.2099 95.3623 94.6129 94.7662 94.4942C94.7662 94.4942 94.6177 94.9226 93.8316 94.8304C93.045 94.7382 92.6973 93.871 92.6973 93.871C92.7414 93.6287 92.8248 93.5315 93.0953 93.4266C93.2294 93.3748 93.3735 93.3146 93.5015 93.2506C93.6865 93.1584 93.8062 92.9436 93.9393 92.7869C94.0751 92.6273 94.2324 92.4767 94.4283 92.4016C94.6243 92.3271 94.8666 92.3431 95.019 92.4866C95.0366 92.3243 95.1454 92.188 95.258 92.0698C95.3596 91.9638 95.486 91.8579 95.6378 91.8418C95.6825 91.8374 96.0413 91.8998 95.9977 91.9937C96.1053 91.7613 96.2549 91.5382 96.4741 91.4063C96.5938 91.3335 96.7374 91.2943 96.8765 91.2992Z" fill="#FFA8A7"/>
<path d="M100.058 83.1395C99.715 84.7243 98.8533 86.1479 99.2364 87.4793C99.4947 88.3791 99.5654 88.2869 99.4611 89.2038C99.4224 89.5438 99.2833 90.0826 99.1668 90.4044C99.0978 90.5959 99.0305 90.7875 98.9609 90.979C98.8881 91.1799 98.8141 91.3825 98.7087 91.5685C98.5729 91.8087 98.3863 92.0168 98.2097 92.2254C97.8989 92.5925 97.5765 92.9585 97.178 93.2279C97.1565 93.2422 97.1338 93.2549 97.109 93.2626C97.0102 93.2952 96.8976 93.2499 96.8275 93.1732C96.4814 92.7929 96.743 92.2398 96.9246 91.855C97.1272 91.4267 97.3657 90.9934 97.3557 90.5054C97.3546 90.4452 97.3508 90.2542 97.3563 89.9523C97.3535 89.9534 96.8667 89.8308 96.8667 89.8308C96.8667 89.8308 95.2841 89.45 95.2554 88.6838C95.2267 87.9182 95.835 87.1801 96.2909 86.2837C96.7579 85.3657 96.9379 84.7988 97.4049 82.4788L100.058 83.1395Z" fill="#FFA8A7"/>
<path d="M98.7116 91.5675C98.3511 92.1549 97.8897 92.6782 97.373 93.1347C97.2863 93.2004 97.2118 93.3141 97.055 93.3273C96.3165 93.1882 96.6642 92.2128 96.9126 91.7834C97.1152 91.3765 97.3459 90.9692 97.3586 90.5044C97.3901 90.9708 97.1809 91.4113 96.9921 91.8209C96.7984 92.22 96.4523 93.0364 97.0506 93.2175C97.6788 92.8438 98.2435 92.1499 98.7116 91.5675Z" fill="#F28F8F"/>
<path d="M97.2256 89.8044C97.0329 89.7062 96.8215 89.6338 96.6388 89.5157C96.4969 89.4235 96.3782 89.2971 96.2833 89.158C96.0531 88.8207 95.8478 88.3775 95.9146 87.9613C95.919 87.9359 95.8897 87.8895 95.8748 87.932C95.7054 88.4007 95.8356 88.9339 96.0879 89.3501C96.206 89.545 96.3827 89.7012 96.5753 89.8199C96.6747 89.8811 96.7818 89.9275 96.8955 89.9562C97.0246 89.9888 97.1168 89.9915 97.2372 89.9352C97.2808 89.9148 97.262 89.8226 97.2256 89.8044Z" fill="#F28F8F"/>
<path d="M109.454 51.3597C106.032 51.0964 103.301 51.7753 101.533 56.2747C99.536 61.3564 97.5698 65.2761 96.58 68.974C95.5898 72.6713 94.127 84.3676 94.127 84.3676C94.127 84.3676 96.712 86.6187 99.5559 85.5919L103.861 72.2981L109.454 61.5408V51.3597Z" fill="#E6E6E6"/>
<path d="M148.297 135.285C148.537 135.119 148.886 135.735 148.894 136.12C148.918 137.225 148.174 138.843 146.562 140.274C144.95 141.706 141.082 143.228 139.968 143.794C138.854 144.361 137.282 145.963 136.294 146.744C134.493 148.167 132.833 148.374 131.831 148.099C131.438 147.992 131.208 147.637 131.039 147.316C130.639 146.553 130.62 146.365 130.707 146.324L148.297 135.285Z" fill="#37474F"/>
<path d="M129.686 144.014C129.936 144.838 130.5 146.132 131.024 146.823C131.565 147.255 132.355 147.232 132.931 147.112C134.451 146.796 135.676 146.011 136.931 144.913C137.682 144.255 138.503 143.541 139.559 143.025C140.718 142.459 143.341 141.327 144.48 140.712C145.446 140.19 146.567 139.309 147.221 138.406C147.775 137.643 148.477 136.246 148.406 135.528C147.897 134.039 147.31 133.312 146.275 133.288C145.182 133.263 143.953 133.824 142.258 134.608C141.751 134.843 141.121 135.157 140.845 135.274C139.801 135.714 138.84 136.154 138.067 136.522C137.405 136.838 136.753 137.141 136.004 137.147C135.647 137.149 135.356 137.111 135.07 136.897C134.721 136.638 134.444 136.131 134.126 136.271C134.126 136.271 129.087 140.322 128.662 140.619C128.172 140.963 128.927 141.516 129.686 144.014Z" fill="#455A64"/>
<path d="M141.261 134.982C141.483 134.999 141.774 135.133 141.943 135.24C142.176 135.387 142.369 135.544 142.559 135.744C142.792 135.987 142.473 136.238 142.155 135.989C141.936 135.818 141.7 135.618 141.324 135.439C141.145 135.352 140.82 135.291 140.649 135.363C140.52 135.418 140.351 135.491 140.351 135.491C140.308 135.238 140.966 134.959 141.261 134.982Z" fill="#FAFAFA"/>
<path d="M138.581 136.088C138.768 135.955 138.96 135.918 139.194 135.956C139.47 136.001 139.707 136.147 139.916 136.324C140.085 136.467 140.479 136.857 140.608 137.039C140.731 137.21 140.297 137.444 140.14 137.271C139.984 137.1 139.688 136.789 139.494 136.628C139.374 136.528 138.884 136.173 138.561 136.29L138.423 136.357C138.387 136.294 138.447 136.204 138.498 136.156C138.524 136.132 138.552 136.109 138.581 136.088Z" fill="#FAFAFA"/>
<path d="M137.091 136.869C137.262 136.839 137.361 136.806 137.522 136.875C137.674 136.941 137.88 137.069 137.998 137.188C138.326 137.515 138.436 137.688 138.63 138.015C138.767 138.246 138.305 138.424 138.203 138.275C137.881 137.804 137.7 137.48 137.262 137.249C136.902 137.06 136.677 137.068 136.677 137.068C136.665 137.019 136.725 136.979 136.771 136.962C136.841 136.937 137.016 136.881 137.091 136.869Z" fill="#FAFAFA"/>
<path d="M125.218 134.819C125.218 134.819 128.047 139.825 128.828 140.94C129.078 141.296 129.877 141.049 130.334 141.004C130.791 140.958 131.514 140.888 132.006 141.026C133.46 141.434 134.286 141.258 133.942 139.316C133.871 138.918 134.005 138.654 134.476 138.494C134.829 138.374 135.233 138.335 135.518 138.091C135.55 138.032 135.477 137.972 135.417 137.942C134.95 137.714 134.686 137.551 134.36 136.845C133.353 134.661 132.432 130.162 132.432 130.162L125.218 134.819Z" fill="#FFA8A7"/>
<path d="M103.793 146.01C104.66 144.624 105.129 141.955 107.036 136.533L114.108 141.712L110.057 149.609C109.827 150.005 109.819 150.6 109.738 150.716C108.793 152.074 103.793 146.01 103.793 146.01Z" fill="#FFA8A7"/>
<path d="M101.178 148.967C101.189 148.887 101.146 148.233 101.167 148.155C101.351 147.451 101.786 147.257 102.344 146.864C103.036 146.376 103.707 145.793 103.884 145.546C104.071 145.287 104.107 145.153 104.398 145.035C104.892 144.834 105.687 144.818 106.666 145.333C108.27 146.175 108.76 147.19 108.667 148.29C108.597 149.128 108.527 150.243 109.266 150.742C109.574 150.95 110.06 149.609 110.06 149.609C110.516 150.373 109.876 151.431 109.542 152.979C109.313 154.04 109.368 154.503 109.497 155.581C109.659 156.94 109.847 156.934 110.568 157.029C111.19 157.111 112.953 156.992 114.024 157.741C115.502 158.773 115.108 160.146 115.108 160.146C114.917 160.668 113.309 163.202 107.438 162.256C105.735 161.982 102.158 159.304 102.212 159.054C102.263 158.822 102.207 158.52 102.198 158.285C102.178 157.685 102.152 157.085 102.126 156.485C102.102 155.938 102.158 155.301 102.026 154.77C101.909 154.296 101.853 153.843 101.808 153.351C101.695 152.146 101.583 150.941 101.47 149.736C101.438 149.389 101.131 149.309 101.178 148.967Z" fill="#455A64"/>
<path d="M100.438 148.728C99.8585 149.288 100.211 150.914 100.987 152.865C101.332 153.731 101.973 155.221 101.785 156.804C101.597 158.388 101.564 159.137 101.972 159.879C102.61 161.04 106.024 162.526 108.035 162.992C108.035 162.992 106.192 160.678 105.99 157.182C105.788 153.686 105.521 151.432 103.922 149.882C101.901 147.922 100.438 148.728 100.438 148.728Z" fill="#263238"/>
<path d="M115.105 160.147C115.105 160.147 113.927 162.353 109.385 162.281C107.597 162.253 106.64 161.382 106.596 158.664C106.543 155.388 106.279 152.08 105.22 150.454C104.16 148.828 102.473 148.039 101.164 148.155C100.937 148.192 100.649 148.409 100.436 148.729C100.436 148.729 101.746 148.299 103.784 149.99C105.289 151.239 105.695 153.847 105.673 157.086C105.663 158.48 105.578 160.061 105.986 161.118C106.363 162.093 107.197 162.761 108.155 163.029C110.625 163.723 114.004 162.58 114.859 161.536C115.35 160.84 115.105 160.147 115.105 160.147Z" fill="#37474F"/>
<path d="M109.651 156.436C109.651 156.436 109.982 156.67 110.019 156.978C110.055 157.286 109.948 157.997 109.303 158.4C109.03 158.571 108.791 158.511 109.225 157.937C109.66 157.363 109.651 156.436 109.651 156.436Z" fill="#FAFAFA"/>
<path d="M109.409 154.74C109.409 154.74 109.553 154.832 109.59 155.288C109.609 155.532 109.229 156.515 108.751 156.749C108.273 156.983 108.532 156.432 108.739 156.162C108.967 155.865 109.367 155.19 109.409 154.74Z" fill="#FAFAFA"/>
<path d="M109.566 152.867C109.566 152.867 109.721 152.91 109.556 153.537C109.499 153.748 108.874 154.369 108.565 154.406C108.257 154.443 108.108 154.289 108.486 154.014C108.784 153.798 109.508 153.171 109.566 152.867Z" fill="#FAFAFA"/>
<path d="M121.159 82.8563C121.159 82.8563 123.907 86.1495 125.568 92.3093C127.585 99.7867 128.366 105.538 128.996 109.712C129.393 112.334 129.772 114.863 130.685 119.905C131.553 124.696 133.707 135.062 133.707 135.062C133.707 135.062 133.328 136.642 131.197 137.575C129.065 138.508 126.758 138.15 126.758 138.15C126.758 138.15 125.296 135.653 122.249 129.772C120.181 125.781 119.84 123.608 119.44 121.566C119.141 120.028 118.785 117.025 118.814 115.644L107.375 96.2064C107.375 96.2064 106.149 94.9296 105.08 92.2463C103.463 88.1875 105.528 82.3396 105.528 82.3396L121.159 82.8563Z" fill="#37474F"/>
<path d="M121.159 82.8563C121.159 82.8563 123.907 86.1495 125.568 92.3093C127.585 99.7867 128.366 105.538 128.996 109.712C129.393 112.334 129.772 114.863 130.685 119.905C131.553 124.696 133.707 135.062 133.707 135.062C133.707 135.062 133.328 136.642 131.197 137.575C129.065 138.508 126.758 138.15 126.758 138.15C126.758 138.15 125.296 135.653 122.249 129.772C120.181 125.781 119.84 123.608 119.44 121.566C119.141 120.028 118.785 117.025 118.814 115.644L107.375 96.2064C107.375 96.2064 106.149 94.9296 105.08 92.2463C103.463 88.1875 105.528 82.3396 105.528 82.3396L121.159 82.8563Z" fill="#37474F"/>
<path d="M128.771 108.214C128.169 104.196 127.353 98.9307 125.567 92.3089C125.051 90.3979 124.431 88.764 123.821 87.4176L109.311 87.1626C108.232 89.6858 107.377 92.8383 109.74 96.689L110.362 101.283L118.813 115.642C118.784 117.024 119.14 120.027 119.439 121.564C119.839 123.607 120.18 125.78 122.248 129.77C122.339 129.945 122.423 130.108 122.511 130.277C123.428 128.909 124.86 126.691 125.407 125.396C126.239 123.427 126.808 119.633 127.68 114.827C128 113.057 128.416 110.49 128.771 108.214Z" fill="#263238"/>
<path d="M111.609 82.8574C110.891 83.5926 109.105 86.0568 108.813 89.849C108.689 91.4548 109.147 94.4819 111.022 96.7595C111.596 105.171 113.259 121.373 113.259 121.373C111.036 123.662 110.46 125.138 109.174 129.241C108.392 131.731 106.114 139.261 105.233 142.069C110.626 142.303 111.642 146.924 111.642 146.924C111.642 146.924 118.178 136.388 121.477 130.435C123.915 126.035 124.227 124.987 124.89 122.366C125.551 119.745 125.676 117.314 126.477 111.841C127.279 106.367 128.7 98.8273 129.093 93.4387C129.485 88.0506 129.558 82.3396 129.558 82.3396L111.609 82.8574Z" fill="#37474F"/>
<path d="M104.479 89.4516C105.025 89.2954 105.801 88.7738 106.095 88.3051C106.271 88.023 106.377 87.6223 106.512 87.1144C106.659 86.5602 106.843 85.8697 107.191 85.093L107.607 85.279C107.274 86.0231 107.103 86.6651 106.952 87.232C106.807 87.7768 106.694 88.2069 106.481 88.5469C106.133 89.105 105.23 89.7364 104.519 89.9065C104.503 89.7541 104.489 89.6029 104.479 89.4516Z" fill="#263238"/>
<path d="M115.28 94.2712C115.164 94.2685 115.066 94.2585 114.989 94.242C114.329 94.0962 113.815 93.6524 112.793 92.3447C112.014 91.3489 112.094 90.6335 112.226 89.449C112.274 89.014 112.732 86.6884 112.761 86.0757L113.198 86.3186C113.168 86.9456 112.727 89.0576 112.678 89.4992C112.547 90.6772 112.488 91.2148 113.152 92.0643C114.097 93.2732 114.549 93.6784 115.087 93.7971C115.608 93.9146 117.917 93.5321 118.532 93.1065C118.887 92.8592 119.483 89.8199 119.831 87.1449L120.282 87.204C120.106 88.5558 119.479 93.0055 118.792 93.4813C118.181 93.9036 116.197 94.2955 115.28 94.2712Z" fill="#263238"/>
<path d="M105.403 53.7936C103.862 56.7396 104.053 59.3781 104.497 63.511C104.907 67.3225 105.195 69.6834 105.546 74.3981C105.947 79.7845 105.23 83.1815 105.23 83.1815C105.23 83.1815 105.382 85.464 112.098 87.1741C123.9 90.1803 129.563 86.7551 129.563 86.7551C129.563 86.7551 129.848 80.108 129.391 71.414C128.878 61.6739 128.708 60.2486 127.955 57.9319C127.401 56.6518 126.354 55.5009 124.936 54.8567C123.764 54.3246 120.958 53.4066 119.293 52.7641C115.417 51.2687 110.938 51.3614 110.938 51.3614C107.577 51.1351 106.203 52.264 105.403 53.7936Z" fill="#F5F5F5"/>
<path d="M110.114 51.8845C110.364 51.8845 110.629 51.8939 110.901 51.9121L110.926 51.9138L110.95 51.9132C110.953 51.9132 111.004 51.9121 111.097 51.9121C111.841 51.9121 115.725 51.9778 119.095 53.2789C119.769 53.5389 120.639 53.8474 121.479 54.1461C122.732 54.5904 124.027 55.0502 124.708 55.3594C125.913 55.9064 126.907 56.9143 127.439 58.1276C128.148 60.3174 128.319 61.534 128.84 71.443C129.235 78.9507 129.072 84.9924 129.024 86.4149C128.238 86.7947 125.639 87.8578 121.197 87.8578C118.424 87.8578 115.408 87.4477 112.234 86.6395C106.676 85.2242 105.886 83.4661 105.792 83.184C105.914 82.5421 106.463 79.2847 106.096 74.357C105.799 70.366 105.548 68.0592 105.229 65.1386L105.046 63.4522C104.602 59.3282 104.423 56.858 105.892 54.05C106.452 52.9786 107.392 51.8845 110.114 51.8845ZM110.114 51.3325C107.345 51.3325 106.134 52.3957 105.403 53.7933C103.862 56.7394 104.053 59.3779 104.497 63.5107C104.907 67.3223 105.195 69.6832 105.546 74.3978C105.947 79.7843 105.229 83.1813 105.229 83.1813C105.229 83.1813 105.381 85.4638 112.097 87.1739C115.696 88.0902 118.726 88.4093 121.196 88.4093C126.828 88.4093 129.563 86.7549 129.563 86.7549C129.563 86.7549 129.848 80.1077 129.39 71.4137C128.878 61.6737 128.707 60.2484 127.954 57.9317C127.401 56.6521 126.354 55.5007 124.935 54.8565C123.763 54.3244 120.958 53.4064 119.292 52.7639C115.847 51.4341 111.924 51.3601 111.096 51.3601C110.993 51.3601 110.937 51.3612 110.937 51.3612C110.65 51.3419 110.375 51.3325 110.114 51.3325Z" fill="#E0E0E0"/>
<path d="M119.572 49.4283L119.255 53.0113C117.294 53.4385 112.529 53.1322 111.635 51.9139L111.823 48.6306L119.572 49.4283Z" fill="#FFA8A7"/>
<path d="M124.692 40.2471C124.692 40.2471 125.602 40.9354 126.293 43.314L124.944 44.3032C124.501 42.6323 124.022 40.9304 124.692 40.2471Z" fill="#F28F8F"/>
<path d="M121.223 33.5882C124.57 33.8107 125.13 35.555 124.633 41.2638C125.807 46.6838 124.185 48.8278 123.486 49.5377C121.908 50.3828 120.305 50.5225 118.126 49.9544C116.465 49.5217 112.257 48.2736 110.494 45.6626C108.421 42.5908 107.879 37.9197 110.087 36.1815C113.195 33.7345 119.89 33.4999 121.223 33.5882Z" fill="#FFA8A7"/>
<path d="M123.478 49.5376C123.091 49.93 120.852 50.6394 119.472 50.4881L119.585 49.4299C119.585 49.4299 121.502 49.7882 123.478 49.5376Z" fill="#F28F8F"/>
<path d="M121.547 37.5259C121.476 37.771 121.369 38.0061 121.232 38.2214C120.856 38.8137 120.318 39.1322 119.745 39.4916C119.953 40.1898 120.179 40.9124 120.188 41.6532C120.191 41.89 120.172 42.1406 120.038 42.3388C119.802 42.6887 119.405 42.6545 119.221 42.3299C119.002 41.9402 118.848 41.5345 118.54 41.1961C118.185 40.8048 117.699 40.5083 117.165 40.4559C115.146 40.2594 115.138 43.403 115.948 44.4673C117.273 46.2094 118.361 45.0916 118.361 45.0916C118.361 45.0916 119.042 47.7782 117.095 48.9423C117.095 48.9423 113.958 49.7113 111.817 48.6272C110.838 46.6107 109.516 45.4338 108.464 43.2866C106.624 39.5302 107.505 36.2309 108.759 35.5525C108.407 33.7982 109.474 32.0743 111.743 31.004C113.98 29.9486 117.071 30.4868 119.449 30.8677C120.863 31.094 122.324 31.0112 123.703 30.627C123.899 30.5723 124.096 30.5116 124.299 30.5122C124.501 30.5133 124.716 30.5867 124.833 30.7523C124.986 30.9681 124.932 31.2701 124.815 31.5069C124.698 31.7437 124.525 31.9534 124.438 32.2035C124.929 32.0699 125.441 32.4348 125.662 32.8924C125.971 33.5333 125.843 34.332 125.437 34.9166C125.031 35.5011 124.384 35.8864 123.701 36.089C123.019 36.2911 122.299 36.3247 121.587 36.3198C121.683 36.7161 121.661 37.1334 121.547 37.5259Z" fill="#263238"/>
<path d="M119.395 51.4831C119.907 51.4583 120.462 52.5148 121.467 53.5603C121.467 53.5603 118.636 55.202 114.415 54.5661C110.194 53.9301 109.383 51.3611 109.383 51.3611C109.383 51.3611 110.348 50.6204 110.857 50.1208C111.475 49.5136 111.777 49.5037 111.777 49.5037L111.728 50.3681C111.728 50.3681 112.537 51.2066 115.11 51.7271C117.684 52.2471 119.395 51.4831 119.395 51.4831Z" fill="#E6E6E6"/>
<path d="M134.336 76.3425C134.336 76.3425 133.13 70.2909 132.25 66.0477C131.37 61.805 131.711 56.9038 125.032 55.2246C123.927 56.9099 123.207 59.4916 123.58 62.7114C123.952 65.9312 125.421 70.9809 125.79 72.6877C126.16 74.3945 127.411 77.7937 129.003 80.159C131.12 83.3043 135.068 88.6256 136.666 90.5813C137.406 91.4866 138.047 92.4029 138.728 93.3656C139.438 94.3691 140.38 95.1491 141.221 96.0467C141.61 96.4612 142.167 96.7582 142.712 96.9106C143.071 97.011 143.427 96.873 143.767 96.9669C144.119 97.0634 144.333 97.3886 144.749 97.4002C145.211 97.4129 145.587 97.0938 146.005 97.1341C146.442 97.1761 146.868 97.3345 147.327 97.3229C147.74 97.3119 148.021 97.2533 148.416 97.4184C148.74 97.5542 149.192 97.9825 149.561 97.7639C149.974 97.5183 149.848 97.0673 149.702 96.6947C149.444 96.0373 148.72 95.392 148.103 95.0652C147.389 94.6865 146.772 94.1472 146.015 93.8525C145.329 93.5864 144.73 93.0002 144.236 92.4515C143.891 92.0679 143.665 91.4756 144.365 91.4673C145.19 91.4579 146.213 91.7709 146.963 91.2498C147.483 90.8893 147.307 90.4301 146.803 90.212C145.961 89.8466 145.195 89.4398 144.409 88.9524C143.627 88.4672 142.905 87.9025 142.111 87.441C141.699 87.2009 141.246 87.0005 140.801 86.8161C139.558 86.2995 139.016 85.0552 138.389 83.9568C137.515 82.425 135.316 78.3788 134.336 76.3425Z" fill="#FFA8A7"/>
<path d="M124.716 69.8737C124.716 69.8737 123.546 65.2711 123.245 63.3479C122.944 61.4247 122.774 56.4225 124.766 54.7842C126.204 55.1341 130.05 55.8186 131.158 59.4364C132.267 63.0542 133.939 72.5829 133.939 72.5829L138.946 84.4106C138.946 84.4106 138.966 85.5124 136.868 86.9338C134.77 88.3557 133.7 87.8711 133.7 87.8711C133.7 87.8711 129.565 81.6119 127.558 78.5268C126.211 76.4546 125.879 75.0812 124.716 69.8737Z" fill="#E6E6E6"/>
<path d="M86.8286 50.1039L86.8374 42.9898L92.8206 42.3594C92.9508 42.3456 93.0679 42.3743 93.1645 42.4311C93.4543 42.6012 96.2054 44.1937 96.3009 44.2489C96.5935 44.4172 96.7011 44.8423 96.429 45.1288L89.9689 51.9244L86.8286 50.1039Z" fill="#BA68C8"/>
<path d="M68.0606 66.1583L68.0601 44.1445C68.0601 43.8249 68.2847 43.4357 68.5613 43.2762L86.5129 32.9328C86.79 32.7728 87.2376 32.775 87.5125 32.9378L90.304 34.5866C90.5795 34.7495 90.8025 35.1403 90.8025 35.4599L90.803 57.4736C90.803 57.7933 90.5784 58.1824 90.3018 58.3419L72.3502 68.6853C72.0731 68.8454 71.6254 68.8432 71.3505 68.6804L68.5591 67.0315C68.2842 66.8692 68.0606 66.4779 68.0606 66.1583Z" fill="#BA68C8"/>
<path opacity="0.15" d="M72.2685 68.7239C72.0301 68.8161 71.849 68.6825 71.8479 68.3944L71.849 46.3817C71.8496 46.2211 71.9053 46.0445 71.9969 45.8871L68.1964 43.667C68.1114 43.8204 68.059 43.9894 68.0601 44.1445V66.1588C68.0595 66.4773 68.282 66.8676 68.5585 67.0315L71.3494 68.6798C71.6006 68.826 71.9925 68.8432 72.2685 68.7239Z" fill="black"/>
<path d="M95.9618 44.1827L90.8022 44.7264L90.8017 35.4594C90.8017 35.1398 90.577 35.0101 90.3005 35.1702L72.3489 45.513C72.0723 45.6731 71.8477 46.0617 71.8477 46.3813L71.8482 68.395C71.8482 68.7146 72.0723 68.8444 72.3494 68.6843L90.301 58.3409C90.5781 58.1808 90.8028 57.7922 90.8028 57.4726L90.8022 51.0506L96.4293 45.131C96.7903 44.7518 96.4829 44.1275 95.9618 44.1827Z" fill="#BA68C8"/>
<path opacity="0.35" d="M95.9618 44.1827L90.8022 44.7264L90.8017 35.4594C90.8017 35.1398 90.577 35.0101 90.3005 35.1702L72.3489 45.513C72.0723 45.6731 71.8477 46.0617 71.8477 46.3813L71.8482 68.395C71.8482 68.7146 72.0723 68.8444 72.3494 68.6843L90.301 58.3409C90.5781 58.1808 90.8028 57.7922 90.8028 57.4726L90.8022 51.0506L96.4293 45.131C96.7903 44.7518 96.4829 44.1275 95.9618 44.1827Z" fill="white"/>
<path d="M86.5666 54.1301C86.6058 54.028 86.6058 53.9237 86.5622 53.8746L85.7938 53.0228C85.6205 52.8285 85.5863 52.457 85.6994 52.027C85.7044 52.0187 85.7049 52.0121 85.7055 52.006C85.7055 52.006 85.7055 52.006 85.7082 52.0022C85.8181 51.5827 86.0566 51.1951 86.3315 50.9942L87.5608 50.1005C87.6331 50.0492 87.6899 49.9454 87.7032 49.8422C87.7689 49.3244 87.8014 48.7901 87.8031 48.2629C87.8047 47.7567 87.7727 47.2621 87.7081 46.7863C87.6954 46.7024 87.6403 46.6616 87.5679 46.6919L86.3397 47.2114C86.0659 47.3229 85.828 47.2169 85.7193 46.9282C85.716 46.9171 85.7143 46.9089 85.711 46.8978C85.5984 46.6047 85.6343 46.1857 85.8093 45.7971L86.5793 44.0633C86.6224 43.9656 86.6251 43.8574 86.5837 43.8039C86.1443 43.2154 85.6034 42.7987 84.9697 42.5762C84.9128 42.5541 84.8366 42.6011 84.7787 42.6899L83.8094 44.2709C83.5941 44.6214 83.291 44.846 83.0189 44.8554C83.0145 44.8571 83.0106 44.8527 83.0057 44.8549C82.7346 44.8582 82.5497 44.644 82.5199 44.2985L82.3819 42.7391C82.3742 42.6474 82.319 42.606 82.2494 42.6259C81.5208 42.8693 80.6917 43.3474 79.9597 43.9413C79.8918 43.9976 79.8366 44.1031 79.8283 44.2046L79.6837 45.928C79.6556 46.3072 79.4662 46.7355 79.198 47.0408C79.193 47.0491 79.1886 47.0507 79.1831 47.059C78.9104 47.3598 78.6073 47.4863 78.3937 47.3797L77.4288 46.9133C77.3719 46.8846 77.2941 46.9298 77.2345 47.016C76.603 47.9659 76.0582 49.0054 75.6149 50.1033C75.5735 50.2032 75.5757 50.3097 75.6193 50.3589L76.3855 51.2084C76.5577 51.3939 76.5903 51.7781 76.4777 52.202C76.4766 52.2147 76.4738 52.2252 76.4705 52.2357C76.3552 52.6635 76.125 53.0322 75.8501 53.2331L74.6136 54.1329C74.5463 54.1826 74.4866 54.2902 74.4762 54.3896C74.4099 54.9134 74.3751 55.4455 74.374 55.9727C74.3735 56.4938 74.4055 56.9889 74.4701 57.4366C74.4822 57.5266 74.5402 57.5636 74.6108 57.531L75.8429 57.016C76.1145 56.9023 76.3518 57.0143 76.4667 57.3096C76.4661 57.3163 76.47 57.3207 76.4694 57.3268C76.5837 57.6282 76.5484 58.041 76.3734 58.4297L75.605 60.1657C75.5592 60.2678 75.557 60.3694 75.5956 60.4268C76.0367 61.0174 76.5804 61.4303 77.2119 61.6566C77.2693 61.6787 77.3477 61.6274 77.4034 61.5369L78.3727 59.9554C78.588 59.6049 78.8916 59.3802 79.1626 59.3769C79.167 59.3752 79.1737 59.3752 79.1781 59.3736C79.4469 59.3686 79.6302 59.58 79.6616 59.9283L79.7996 61.4877C79.8074 61.5794 79.8598 61.6246 79.9321 61.6009C80.2964 61.4795 80.6806 61.3034 81.0753 61.077C81.4683 60.8485 81.8536 60.5836 82.2218 60.2855C82.2897 60.2292 82.3427 60.1215 82.3532 60.0222L82.4978 58.2988C82.5282 57.9152 82.7125 57.4951 82.9814 57.1904C82.9885 57.1843 82.9957 57.1783 82.9979 57.1744C83.2706 56.8675 83.5698 56.7422 83.7878 56.8471L84.7522 57.3201C84.8068 57.3466 84.8869 57.3036 84.9448 57.2153C85.5791 56.2614 86.1217 55.2258 86.5666 54.1301ZM81.0858 56.6412C79.2129 57.7148 77.6949 56.5589 77.7004 54.0639C77.7042 51.5666 79.2283 48.6576 81.0996 47.5818C82.9687 46.5098 84.4856 47.6717 84.4823 50.169C84.4784 52.6662 82.9527 55.5675 81.0858 56.6412Z" fill="white"/>
</svg>
