<svg width="294" height="191" viewBox="0 0 294 191" fill="none" xmlns="http://www.w3.org/2000/svg">
<path d="M39.5804 155.236L35.9624 167.494C35.9624 167.494 56.5518 173.057 56.7097 173.1C56.8674 173.143 60.7465 159.422 60.7465 159.422" fill="#E27769"/>
<path d="M58.1868 170.886L36.2368 164.955L32.7637 176.735L68.8087 186.475C68.8087 186.475 69.0897 182.674 66.7884 179.905C63.9851 176.532 59.2528 174.062 58.1868 170.886Z" fill="#F8E3D0"/>
<path d="M33.4155 174.532L68.6294 184.048" stroke="black" stroke-width="0.287085" stroke-miterlimit="10"/>
<path d="M60.7657 174.197L55.3823 174.195" stroke="black" stroke-width="0.287085" stroke-miterlimit="10"/>
<path d="M63.4477 176.374L56.8936 176.537" stroke="black" stroke-width="0.287085" stroke-miterlimit="10"/>
<path d="M34.8667 169.617C34.8667 169.617 38.4842 170.595 39.5824 170.892C40.6804 171.188 44.9294 173.504 44.2827 177.467" stroke="black" stroke-width="0.287085" stroke-miterlimit="10"/>
<path d="M61.7867 74.1426C61.7867 74.1426 62.5762 78.0415 62.8522 80.3793C63.1281 82.7171 67.4832 111.975 67.8178 121.235C68.1523 130.495 60.1515 170.073 60.1515 170.073L39.832 166.739L43.6795 122.376L39.2674 87.4365C39.2674 87.4365 37.407 82.4503 39.8318 72.4028" fill="#4F302B"/>
<path d="M25.0307 167.253L25.0269 179.99C25.0269 179.99 46.4206 179.99 46.5846 179.99C46.7487 179.99 46.5885 165.777 46.5885 165.777" fill="#E27769"/>
<path d="M47.374 177.473H24.5664V189.713H62.0199C62.0199 189.713 61.2117 185.982 58.2113 183.916C54.5563 181.398 49.3011 180.253 47.374 177.473Z" fill="#F8E3D0"/>
<path d="M24.5664 187.424H61.1562" stroke="black" stroke-width="0.287085" stroke-miterlimit="10"/>
<path d="M50.7922 179.989L45.6108 181.387" stroke="black" stroke-width="0.287085" stroke-miterlimit="10"/>
<path d="M53.9942 181.388L47.7329 183.249" stroke="black" stroke-width="0.287085" stroke-miterlimit="10"/>
<path d="M24.5693 182.321C24.5693 182.321 28.3282 182.321 29.4691 182.321C30.61 182.321 35.3565 183.445 35.8585 187.427" stroke="black" stroke-width="0.287085" stroke-miterlimit="10"/>
<path d="M24.2346 67.9187C24.2346 67.9187 21.2298 79.5749 22.3676 93.5552C23.1439 103.092 24.7906 121.234 24.7906 121.234L24.1849 174.549H49.6352C49.7395 174.006 50.43 146.328 49.7645 121.785C49.2043 101.126 47.277 82.8922 47.277 82.8922C47.277 82.8922 48.5877 70.2338 48.5779 69.4109" fill="#4F302B"/>
<path d="M27.9441 67.9187C27.9441 67.9187 24.9393 79.5749 26.0771 93.5552C26.8532 103.092 28.5001 121.234 28.5001 121.234L27.8943 174.549" stroke="#7F4F4A" stroke-width="0.287085" stroke-miterlimit="10"/>
<path d="M49.6389 174.548C49.7432 174.006 50.4337 146.328 49.7683 121.785C49.2081 101.125 47.2808 82.892 47.2808 82.892C47.2808 82.892 48.5914 70.2335 48.5816 69.4106" stroke="black" stroke-width="0.287085" stroke-miterlimit="10"/>
<path d="M25.917 83.0018C30.3467 81.7564 34.3192 79.2251 35.8143 76.5852C37.3956 73.793 39.0967 67.9187 39.0967 67.9187" stroke="#7F4F4A" stroke-width="0.287085" stroke-miterlimit="10"/>
<path d="M47.4263 81.4849C48.2724 81.5326 49.144 81.3305 49.7055 80.743C50.2671 80.1554 50.9048 77.7788 51.4504 76.3903C52.0903 74.7618 52.7301 73.1334 53.3699 71.5049" stroke="black" stroke-width="0.287085" stroke-miterlimit="10"/>
<path d="M55.3262 29.4019C58.2864 29.7322 60.0143 29.599 63.6398 30.4948C70.3051 32.1417 76.0409 43.2914 76.0409 43.2914L66.4174 55.7534L59.3239 44.052" fill="#915A56"/>
<path d="M61.9651 36.7837L62.3965 77.9196L21.2319 74.806C21.2319 74.806 22.9405 50.9542 28.1208 41.0102C33.3012 31.0663 40.4737 28.1108 40.4737 28.1108L57.6447 30.8413L61.9651 36.7837Z" fill="#915A56"/>
<path d="M53.82 21.7473L53.7067 29.1455L55.3283 30.3046C55.3283 30.3046 55.4192 34.4149 49.4953 34.4149C43.5714 34.4149 39.3989 29.1357 39.3989 29.1357L41.0713 28.0985L42.2225 21.8548L41.1197 17.5046" fill="#D16159"/>
<path d="M52.252 46.6538H49.1547L48.5796 34.7656H51.6769L52.252 46.6538Z" stroke="#754443" stroke-width="0.287085" stroke-miterlimit="10"/>
<path d="M50.9393 37.5066C50.9393 37.85 50.6486 38.1285 50.2897 38.1285C49.9309 38.1285 49.6401 37.8502 49.6401 37.5066C49.6401 37.1633 49.9309 36.8848 50.2897 36.8848C50.6486 36.8848 50.9393 37.1633 50.9393 37.5066Z" stroke="#754443" stroke-width="0.287085" stroke-miterlimit="10"/>
<path d="M51.0711 40.7112C51.0711 41.0546 50.7804 41.3331 50.4215 41.3331C50.0627 41.3331 49.772 41.0548 49.772 40.7112C49.772 40.3679 50.0627 40.0894 50.4215 40.0894C50.7804 40.0894 51.0711 40.3679 51.0711 40.7112Z" stroke="#754443" stroke-width="0.287085" stroke-miterlimit="10"/>
<path d="M51.1961 43.9126C51.1961 44.256 50.9054 44.5345 50.5465 44.5345C50.1877 44.5345 49.897 44.2562 49.897 43.9126C49.897 43.5693 50.1877 43.2908 50.5465 43.2908C50.9054 43.2908 51.1961 43.5691 51.1961 43.9126Z" stroke="#754443" stroke-width="0.287085" stroke-miterlimit="10"/>
<path d="M34.0906 46.5736L26.439 51.4166L18.0562 35.3446C18.0562 35.3446 25.9292 31.6083 28.152 30.4944C33.4585 27.8354 38.4639 28.1978 41.7246 28.3094" fill="#915A56"/>
<path d="M22.7191 22.3143L21.9072 42.7622L25.7343 50.0127C25.7343 50.0127 20.2335 54.1562 16.5795 55.4278C14.7458 56.0659 4.27292 56.9365 6.74932 45.5139C9.22572 34.0915 12.5274 21.0112 12.5274 21.0112L22.7191 22.3143Z" fill="#D16159"/>
<path d="M22.5267 24.3863C22.9907 23.199 23.4108 21.9941 23.7857 20.7751C24.1474 19.599 24.3936 18.3805 24.7821 17.2165C24.878 16.9293 24.9993 16.6519 25.1208 16.3749C25.5628 15.3657 26.01 14.3473 26.6596 13.4605C26.7461 13.3423 26.8376 13.2241 26.8843 13.0849C26.931 12.9456 26.9247 12.7783 26.8288 12.6678C26.7293 12.5531 26.5632 12.528 26.4121 12.5299C25.7853 12.5376 25.2077 12.8758 24.7205 13.2749C24.4068 13.5318 24.118 13.8172 23.8106 14.0814C23.556 14.3002 23.2965 14.5677 22.9731 14.6635C22.8781 11.8528 23.7736 9.11524 24.1647 6.33091C24.2447 5.76071 23.9093 4.74197 23.4502 4.757C22.8429 4.77678 21.9665 8.98112 21.0988 11.1234C21.155 9.78604 21.2073 8.37079 21.4842 7.05851C21.6762 6.14897 21.7663 5.21157 21.654 4.28499C21.5908 3.76499 21.3304 2.62477 20.6071 3.21714C20.3937 3.39194 20.2873 3.6644 20.1954 3.92623C19.4838 5.95694 19.2999 8.09447 18.6974 10.1607C18.5923 8.198 19.0622 6.13413 18.3141 4.32018C18.2411 4.14336 18.1466 3.95977 17.9785 3.87163C17.7228 3.73751 17.4673 3.77141 17.3043 4.01144C17.1412 4.25165 17.1024 4.55342 17.0681 4.84274C16.8168 6.96451 16.4922 9.20429 16.2407 11.3261C16.0759 10.324 16.1341 9.30012 16.0951 8.28522C16.056 7.27014 15.9073 6.22446 15.3791 5.36073C15.2091 5.08277 14.8556 4.80353 14.5999 5.00306C14.4761 5.09962 14.43 5.26893 14.4149 5.42614C13.9553 10.1567 13.2799 14.3009 12.705 18.9208C12.4403 21.0483 11.8016 23.4532 11.3521 25.5537" fill="#D16159"/>
<path d="M22.2661 24.5933C22.4263 24.0216 22.6724 23.4745 22.9934 22.9771" stroke="black" stroke-width="0.287085" stroke-miterlimit="10"/>
<path d="M16.0669 11.9592C16.4445 13.1933 16.9708 14.3837 17.3373 15.6207C17.7039 16.8578 17.634 18.6938 17.3527 19.9692" stroke="black" stroke-width="0.287085" stroke-miterlimit="10"/>
<path d="M22.4572 15.0461C21.0071 16.4552 19.9791 18.303 19.541 20.2883" stroke="black" stroke-width="0.287085" stroke-miterlimit="10"/>
<path d="M18.7528 10.157L18.4731 12.0873" stroke="black" stroke-width="0.287085" stroke-miterlimit="10"/>
<path d="M21.115 10.5652C20.9207 11.1751 20.7745 11.8007 20.6782 12.4343" stroke="black" stroke-width="0.287085" stroke-miterlimit="10"/>
<path d="M41.1952 26.0513L49.668 34.0006L53.8206 28.0981L56.4365 29.4012L56.0172 37.7584L49.9503 35.458L44.6724 39.2761L37.7349 28.2399L41.1952 26.0513Z" fill="#915A56"/>
<path d="M56.4365 29.4015L56.0172 37.7587L49.9503 35.4583L44.6724 39.2764L37.7349 28.2402" stroke="black" stroke-width="0.287085" stroke-miterlimit="10"/>
<path d="M21.9104 42.7612L21.6064 48.8627" stroke="black" stroke-width="0.287085" stroke-miterlimit="10"/>
<path d="M22.9932 32.9915L31.3228 48.3247" stroke="#754443" stroke-width="0.287085" stroke-miterlimit="10"/>
<path d="M62.6507 38.9841C61.9827 43.6288 62.8553 51.7318 62.8553 51.7318" stroke="black" stroke-width="0.287085" stroke-miterlimit="10"/>
<path d="M26.4395 51.4165L36.6539 45.2307" stroke="black" stroke-width="0.287085" stroke-miterlimit="10"/>
<path d="M21.752 70.7515L62.2734 74.4679" stroke="#754443" stroke-width="0.287085" stroke-miterlimit="10"/>
<path d="M53.442 7.09977C55.1089 8.06758 56.067 9.84379 56.5284 11.6369C56.912 13.1276 56.8637 19.4519 56.7399 20.8966C56.5807 22.7547 55.3383 24.9469 53.2807 25.708C50.922 26.5807 48.1867 25.6565 46.0167 23.9763C42.9677 21.6156 41.2182 17.9151 41.3979 14.0949C41.4258 13.5025 41.5167 12.9125 41.6727 12.3368C42.4455 9.48412 44.9562 7.03491 47.9815 6.26627C49.6355 5.84613 52.0225 6.27562 53.442 7.09977Z" fill="#D16159"/>
<path d="M60.9652 6.52671C60.019 6.85286 59.0727 7.17901 58.1267 7.50515C58.6124 6.47871 58.9431 5.35571 58.8457 4.23271C57.8 4.95664 56.5869 5.45759 55.3194 5.689C55.8288 5.13474 55.9963 4.31205 55.7416 3.61523C54.0183 4.09676 52.1949 4.10683 50.3999 4.09859C48.6048 4.09053 46.7857 4.07036 45.0463 4.49545C43.307 4.92054 41.6254 5.85354 40.7289 7.34244C40.3362 7.9951 40.1039 8.73388 39.6497 9.34879C39.1035 10.0881 38.255 10.623 37.8705 11.4502C37.6449 11.936 37.6018 12.4792 37.575 13.0104C37.5459 13.5889 37.5327 14.17 37.5957 14.7461C37.8334 16.9208 38.9203 19.9936 42.0178 23.0047L43.2853 18.3291C43.8499 18.2128 43.2649 16.5907 43.4566 16.0692C43.9399 14.7549 43.5722 13.2807 43.9261 11.9294C44.0019 11.64 44.1403 11.3273 44.4297 11.2157C44.7809 11.0805 45.2829 11.4202 45.6184 11.5352C46.1036 11.7014 46.5975 11.8445 47.0976 11.9638C49.6286 12.5677 53.5027 12.9877 55.2053 10.5489C56.4746 11.3333 56.7527 13.627 56.7527 13.627C56.7527 13.627 57.3795 13.1872 57.5198 13.0542C57.8335 12.757 58.1472 12.4596 58.4608 12.1624C58.978 11.6725 59.4578 11.1638 59.8442 10.5705C60.6264 9.36949 61.0463 7.94416 60.9652 6.52671Z" fill="#FCDDD2"/>
<path d="M44.9956 16.8393C44.6736 15.7196 42.8535 15.2218 41.9048 15.8336C39.6234 17.3049 41.6076 21.4026 44.0486 21.2496C44.7391 21.2064 45.6203 20.728 45.6645 19.9562" fill="#D16159"/>
<path d="M42.231 17.7964L44.8829 19.1438" stroke="black" stroke-width="0.287085" stroke-miterlimit="10"/>
<path d="M43.5205 15.7205C44.1259 15.8956 44.6748 16.2575 45.0733 16.744" stroke="black" stroke-width="0.287085" stroke-miterlimit="10"/>
<path d="M41.4058 19.7297C41.9725 20.5715 42.8906 21.3852 43.98 21.2972C44.7358 21.2362 45.4864 20.7303 45.5928 19.9377" stroke="black" stroke-width="0.287085" stroke-miterlimit="10"/>
<path d="M46.4888 24.5737C46.7946 24.7654 47.1008 24.9572 47.421 25.1262C49.6593 26.3072 51.9371 26.2024 53.7113 25.6703" stroke="black" stroke-width="0.287085" stroke-miterlimit="10"/>
<path d="M52.9533 16.0769C52.9533 16.0769 53.9003 18.4037 54.062 19.6447C54.1573 20.376 52.9473 20.1592 52.417 20.2037" stroke="black" stroke-width="0.287085" stroke-miterlimit="10"/>
<path d="M54.0884 15.0848C54.5161 14.7934 55.0553 14.6555 55.578 14.7038C56.1005 14.7522 56.6021 14.9865 56.9636 15.351" stroke="black" stroke-width="0.287085" stroke-miterlimit="10"/>
<path d="M46.7314 15.6917C47.2472 15.2473 47.9221 14.9752 48.6145 14.9327C49.307 14.89 50.0126 15.0771 50.5836 15.4546" stroke="black" stroke-width="0.287085" stroke-miterlimit="10"/>
<path d="M55.2541 17.9273C55.515 17.9273 55.7264 17.6219 55.7264 17.2451C55.7264 16.8684 55.515 16.563 55.2541 16.563C54.9932 16.563 54.7817 16.8684 54.7817 17.2451C54.7817 17.6219 54.9932 17.9273 55.2541 17.9273Z" fill="black"/>
<path d="M49.1037 17.939C49.3646 17.939 49.576 17.6336 49.576 17.2569C49.576 16.8801 49.3646 16.5747 49.1037 16.5747C48.8428 16.5747 48.6313 16.8801 48.6313 17.2569C48.6313 17.6336 48.8428 17.939 49.1037 17.939Z" fill="black"/>
<path d="M53.828 21.4329L50.8779 20.9543C50.8779 20.9543 50.6356 22.6256 51.7977 22.937C53.4758 23.3869 53.828 21.4329 53.828 21.4329Z" fill="white"/>
<path d="M55.3086 10.6152C55.921 9.98254 56.6045 9.29928 56.9704 8.43628" stroke="#E0B1A2" stroke-width="0.19139" stroke-miterlimit="10"/>
<path d="M56.21 11.5508C57.218 11.0815 58.1283 10.4208 58.8722 9.61792" stroke="#E0B1A2" stroke-width="0.19139" stroke-miterlimit="10"/>
<path d="M52.667 6.92868C53.6944 6.64065 54.6605 6.15363 55.4896 5.50537" stroke="#E0B1A2" stroke-width="0.19139" stroke-miterlimit="10"/>
<path d="M4.51588 36.0923C3.12696 39.7627 2.48255 43.6898 2.62935 47.5911" stroke="black" stroke-width="0.287085" stroke-miterlimit="10"/>
<path d="M3.52654 31.9119C2.2649 34.0729 1.40517 36.4484 1 38.8934" stroke="black" stroke-width="0.287085" stroke-miterlimit="10"/>
<path d="M244.389 156.025L249.177 163.964C249.177 163.964 235.841 171.332 235.738 171.389C235.636 171.445 230.395 162.529 230.395 162.529" fill="#E27769"/>
<path d="M234.305 170.095L248.523 162.24L253.122 169.871L229.774 182.77C229.774 182.77 228.876 180.166 229.97 177.844C231.303 175.016 234.148 172.492 234.305 170.095Z" fill="#2C221D"/>
<path d="M252.265 168.444L229.455 181.046" stroke="black" stroke-width="0.287085" stroke-miterlimit="10"/>
<path d="M233.123 172.841L236.879 171.929" stroke="black" stroke-width="0.287085" stroke-miterlimit="10"/>
<path d="M231.646 174.815L236.249 173.819" stroke="black" stroke-width="0.287085" stroke-miterlimit="10"/>
<path d="M250.337 165.26C250.337 165.26 247.993 166.555 247.282 166.948C246.571 167.341 244.034 169.676 245.218 172.331" stroke="black" stroke-width="0.287085" stroke-miterlimit="10"/>
<path d="M262.85 169.202L262.853 178.37C262.853 178.37 247.455 178.37 247.337 178.37C247.219 178.37 247.334 168.14 247.334 168.14" fill="#E27769"/>
<path d="M246.766 176.56H263.181V185.37H236.225C236.225 185.37 236.806 182.685 238.966 181.197C241.597 179.386 245.379 178.561 246.766 176.56Z" fill="#2C221D"/>
<path d="M263.184 183.723H236.849" stroke="black" stroke-width="0.287085" stroke-miterlimit="10"/>
<path d="M244.303 178.371L248.032 179.378" stroke="black" stroke-width="0.287085" stroke-miterlimit="10"/>
<path d="M242 179.378L246.507 180.718" stroke="black" stroke-width="0.287085" stroke-miterlimit="10"/>
<path d="M263.182 180.047C263.182 180.047 260.477 180.047 259.655 180.047C258.834 180.047 255.418 180.856 255.057 183.722" stroke="black" stroke-width="0.287085" stroke-miterlimit="10"/>
<path d="M227.417 78.5305C227.417 78.5305 215.885 105.469 215.963 124.959C216.009 136.386 232.387 168.534 232.387 168.534L247.224 158.432L235.045 121.868L248.388 76.1267" fill="#774935"/>
<path d="M244.688 79.4748C244.688 79.4748 238.241 117.502 239.764 131.723C240.425 137.898 242.721 174.757 242.721 174.757L263.654 172.761L260.433 124.962C260.433 124.962 262.517 104.2 263.654 98.0326C264.791 91.8657 265.407 84.1694 263.892 76.8271" fill="#774935"/>
<path d="M259.02 173.203L255.896 124.962C255.896 124.962 258.383 104.2 259.739 98.0326C261.096 91.8657 261.831 84.1694 260.023 76.8271" stroke="black" stroke-width="0.287085" stroke-miterlimit="10"/>
<path d="M244.337 79.1787L243.153 88.5244C243.153 88.5244 240.932 87.0161 240.932 86.5575C240.932 86.0988 240.932 79.4741 240.932 79.4741" stroke="black" stroke-width="0.287085" stroke-miterlimit="10"/>
<path d="M252.172 81.6331C252.172 81.6331 252.172 86.9102 260.979 89.5809" stroke="black" stroke-width="0.287085" stroke-miterlimit="10"/>
<path d="M224.894 85.6064C224.894 85.6064 230.828 85.3647 234.178 79.9785" stroke="black" stroke-width="0.287085" stroke-miterlimit="10"/>
<path d="M243.153 88.5251L241.979 98.1065" stroke="black" stroke-width="0.287085" stroke-miterlimit="10"/>
<path d="M240.246 137.485L241.914 162.047" stroke="black" stroke-width="0.287085" stroke-miterlimit="10"/>
<path d="M238.758 22.9432L238.516 29.3499L231.714 31.3931C231.714 31.3931 233.361 37.4037 243.92 36.3047C254.479 35.2057 256.959 31.0006 256.959 31.0006L250.833 29.7816L249.088 22.6484L248.912 20.4553" fill="#A04C38"/>
<path d="M237.986 11.3024C236.589 12.3265 235.911 14.0096 235.679 15.6614C235.487 17.0347 236.175 22.7047 236.433 23.9893C236.766 25.6416 238.104 27.4924 240.027 27.9833C242.232 28.546 244.592 27.4613 246.368 25.7512C248.864 23.3483 250.056 19.8648 249.506 16.4539C249.42 15.9249 249.278 15.404 249.08 14.9021C248.096 12.4148 245.594 10.4519 242.801 10.0447C241.274 9.82212 239.176 10.4303 237.986 11.3024Z" fill="#A04C38"/>
<path d="M233.868 12.4891C233.868 12.4891 233.206 10.8899 234.17 8.85353C234.764 7.59769 236.044 6.96794 237.438 6.72058C238.329 6.56246 239.369 6.89172 240.142 7.25158C241 5.75883 242.945 5.15307 244.724 5.12705C245.69 5.11294 246.677 5.23534 247.547 5.63661C248.085 5.88451 248.828 6.27186 249.21 6.72004C249.732 7.33055 250.067 8.11091 250.189 8.88706C250.177 8.81047 251.122 8.91675 251.237 8.94589C253.244 9.45453 254.628 11.6065 254.129 13.5497C254.083 13.7285 253.827 14.8326 253.233 15.4875C254.036 15.8389 254.588 16.6631 254.587 17.5088C254.585 18.3546 254.03 19.1768 253.225 19.5253C253.162 19.5526 253.094 19.5799 253.054 19.6341C252.99 19.7222 253.024 19.8421 253.059 19.9445C253.22 20.4207 253.331 20.9671 253.07 21.4008C252.947 21.6062 252.751 21.7626 252.55 21.9004C251.564 22.574 250.326 22.9003 249.119 22.8045C248.787 22.7781 248.626 21.3603 248.607 21.1144C248.542 20.245 248.475 19.3757 248.41 18.5063C247.72 18.4024 247.086 17.9935 246.727 17.42C246.367 16.8465 246.289 16.1191 246.518 15.4871C246.52 15.4827 246.521 15.4781 246.523 15.4737C246.714 14.9578 246.255 14.4526 245.696 14.5666C244.896 14.7296 244.062 14.7401 243.259 14.59C242.907 14.5242 242.55 14.4231 242.273 14.2045C242.126 14.0885 242.013 13.9051 241.925 13.6946C241.716 13.1951 241.012 13.1202 240.668 13.5454C240.664 13.55 240.66 13.5544 240.657 13.5588C240.231 14.0799 239.544 14.3707 238.855 14.4178C238.529 14.4401 238.203 14.4119 237.883 14.3461C237.414 14.2494 236.991 14.6126 237.006 15.0715C237.015 15.3282 236.989 15.5813 236.898 15.8228C236.526 16.8104 235.644 16.8807 235.644 16.8807L235.771 18.6511C235.771 18.6511 233.723 18.3568 233.53 18.2989C232.186 17.8945 231.414 16.9441 231.409 15.545C231.402 13.5645 233.868 12.4891 233.868 12.4891Z" fill="#2C221D"/>
<path d="M247.271 19.7071C247.504 18.683 249.12 18.1504 250.005 18.6581C252.136 19.8787 250.554 23.6633 248.346 23.6382C247.722 23.6311 246.904 23.2408 246.825 22.5471" fill="#A04C38"/>
<path d="M249.812 20.4417L247.49 21.7783" stroke="black" stroke-width="0.287085" stroke-miterlimit="10"/>
<path d="M248.547 18.6311C248.01 18.8169 247.534 19.1683 247.199 19.6253" stroke="black" stroke-width="0.287085" stroke-miterlimit="10"/>
<path d="M250.65 22.146C250.182 22.9308 249.395 23.7065 248.409 23.6776C247.725 23.6574 247.023 23.2364 246.887 22.5267" stroke="black" stroke-width="0.287085" stroke-miterlimit="10"/>
<path d="M238.586 27.5149C239.531 28.0369 240.561 28.3224 241.556 28.3142C243.682 28.2962 245.581 27.1025 246.824 25.2795" stroke="black" stroke-width="0.287085" stroke-miterlimit="10"/>
<path d="M240.353 18.8074C240.277 19.9045 240.201 21.0019 240.125 22.0991C240.115 22.2339 240.107 22.3757 240.165 22.4974C240.265 22.7114 240.524 22.7841 240.754 22.8217C241.122 22.882 241.495 22.9128 241.868 22.9137" stroke="black" stroke-width="0.287085" stroke-miterlimit="10"/>
<path d="M242.642 17.3805C243.106 17.093 243.956 16.6983 244.634 16.8832C245.264 17.0551 245.728 17.5203 246.167 17.9606" stroke="black" stroke-width="0.287085" stroke-miterlimit="10"/>
<path d="M239.602 17.4175C238.526 16.5963 237.368 16.8486 236.297 17.4937" stroke="black" stroke-width="0.287085" stroke-miterlimit="10"/>
<path d="M244.182 19.8128C244.458 19.8128 244.681 19.5108 244.681 19.1383C244.681 18.7658 244.458 18.4639 244.182 18.4639C243.906 18.4639 243.682 18.7658 243.682 19.1383C243.682 19.5108 243.906 19.8128 244.182 19.8128Z" fill="black"/>
<path d="M237.948 19.9803C238.224 19.9803 238.448 19.6783 238.448 19.3058C238.448 18.9333 238.224 18.6313 237.948 18.6313C237.672 18.6313 237.449 18.9333 237.449 19.3058C237.449 19.6783 237.672 19.9803 237.948 19.9803Z" fill="black"/>
<path d="M243.684 23.4375L240 23.8432C240 23.8432 240.357 25.4966 241.836 25.2751C243.684 24.9982 243.684 23.4375 243.684 23.4375Z" fill="white"/>
<path d="M228.649 30.8395L209.696 34.7805L193.28 29.8801L189.617 36.9003C189.617 36.9003 200.875 49.075 210.492 47.9465C213.637 47.5775 231.409 44.3489 231.409 44.3489" fill="#A04C38"/>
<path d="M237.989 47.2516C232.528 47.1619 228.173 49.1433 223.043 49.1631L219.641 32.3435C225.028 30.8392 227.299 29.9531 230.833 29.4645C232.751 29.1991 235.624 29.2327 237.953 29.4645" fill="#2C221D"/>
<path d="M261.431 32.2832C261.431 32.2832 263.455 34.9592 264.708 44.8566C265.961 54.754 265.961 82.3888 265.961 82.3888L224.896 80.1365C226.131 67.7855 228.942 45.4245 229.91 39.4754C230.877 33.5264 237.952 29.4653 237.952 29.4653C237.952 29.4653 237.952 31.957 242.707 32.1956C248.426 32.4824 250.836 29.784 250.836 29.784L261.431 32.2832Z" fill="#2C221D"/>
<path d="M250.837 29.782C252.595 29.8067 254.976 30.005 257.235 30.1169C258.895 30.1992 261.768 30.7725 263.22 31.6934C264.627 32.5859 265.959 33.481 266.814 34.912C268.847 38.3162 273.614 47.726 273.614 47.726L259.622 55.9551L255.149 45.0637" fill="#2C221D"/>
<path d="M259.623 55.9546L255.15 45.0632" stroke="#63493E" stroke-width="0.287085" stroke-miterlimit="10"/>
<path d="M257.688 51.2468L271.515 43.6343" stroke="#63493E" stroke-width="0.287085" stroke-miterlimit="10"/>
<path d="M270.79 35.2996C270.79 35.5204 265.181 52.6866 265.181 52.6866L261.1 55.0869C261.1 55.0869 262.982 59.2911 264.49 60.9839C265.997 62.6767 269.156 64.2223 271.74 63.8543C274.325 63.4864 277.484 60.6896 278.632 53.9921C279.664 47.974 280.163 38.9543 281.18 36.1795C282.198 33.4047 270.79 35.0788 270.79 35.2996Z" fill="#A04C38"/>
<path d="M265.182 52.6873L264.158 56.7375" stroke="black" stroke-width="0.287085" stroke-miterlimit="10"/>
<path d="M270.128 36.7671C270.224 35.5027 270.367 34.24 270.557 32.9822C270.74 31.7688 271.047 30.563 271.201 29.3501C271.239 29.0508 271.25 28.7502 271.26 28.45C271.298 27.3564 271.335 26.2522 271.131 25.1868C271.104 25.045 271.072 24.9009 271.09 24.7558C271.109 24.6107 271.187 24.461 271.323 24.3989C271.463 24.3344 271.625 24.3778 271.761 24.4397C272.327 24.697 272.705 25.2351 272.974 25.7923C273.148 26.1509 273.135 26.6601 273.299 27.0229C273.435 27.3234 273.151 28.5794 273.775 28.3059C274.4 28.0323 275.647 22.3896 276.504 19.7028C276.68 19.1525 277.428 18.3606 277.839 18.5574C278.382 18.8178 277.347 22.989 277.203 25.2826C277.734 24.0445 278.303 22.7374 278.623 21.4341C278.845 20.5308 279.171 19.6429 279.677 18.8454C279.961 18.398 280.695 17.4657 281.094 18.2928C281.212 18.5369 281.19 18.8269 281.159 19.1016C280.921 21.2314 280.158 23.2477 279.805 25.3661C280.756 23.6242 281.228 21.5607 282.698 20.2107C282.841 20.0791 283.007 19.9499 283.198 19.9369C283.489 19.9171 283.706 20.05 283.75 20.3333C283.793 20.6167 283.697 20.9066 283.602 21.1831C282.907 23.2119 281.413 27.7195 281.413 27.7195C281.413 27.7195 282.534 25.8667 283.011 24.9597C283.489 24.0528 284.056 22.9021 284.912 22.3279C285.187 22.1432 285.63 22.0303 285.776 22.3138C285.846 22.451 285.814 22.6232 285.76 22.7722C284.117 27.2554 282.926 31.2917 281.436 35.7203C280.75 37.7597 280.283 40.2004 279.777 42.289" fill="#A04C38"/>
<path d="M270.274 37.0592C270.377 36.4756 270.392 35.8801 270.317 35.2998" stroke="black" stroke-width="0.287085" stroke-miterlimit="10"/>
<path d="M281.898 26.8228C281.585 27.6011 280.957 28.8632 280.353 29.4647C279.766 30.0507 278.9 30.6528 278.347 31.2706C277.483 32.2368 277.049 33.5582 276.757 34.8182" stroke="black" stroke-width="0.287085" stroke-miterlimit="10"/>
<path d="M274.261 28.3064C274.966 30.166 275.095 32.2559 274.628 34.2351" stroke="black" stroke-width="0.287085" stroke-miterlimit="10"/>
<path d="M279.75 25.3374L279.164 27.2034" stroke="black" stroke-width="0.287085" stroke-miterlimit="10"/>
<path d="M277.431 24.7666C277.342 25.3986 277.202 26.0256 277.014 26.6397" stroke="black" stroke-width="0.287085" stroke-miterlimit="10"/>
<path d="M228.634 48.529C228.634 48.529 229.77 39.7926 229.969 37.5405" stroke="#63493E" stroke-width="0.287085" stroke-miterlimit="10"/>
<path d="M226.02 48.9867L222.691 31.6177" stroke="#63493E" stroke-width="0.287085" stroke-miterlimit="10"/>
<path d="M235.624 29.2329C235.727 31.3783 236.837 33.4865 239.105 34.1506" stroke="#63493E" stroke-width="0.287085" stroke-miterlimit="10"/>
<path d="M240.38 34.5204C242.854 34.9893 245.453 34.8172 247.842 34.0473C250.166 33.2981 252.096 31.8596 253.714 30.1174" stroke="#63493E" stroke-width="0.287085" stroke-miterlimit="10"/>
<path d="M233.529 69.4268C240.425 67.4324 246.757 63.6834 251.701 58.6685" stroke="#63493E" stroke-width="0.287085" stroke-miterlimit="10"/>
<path d="M234.181 63.2283C237.994 63.2879 241.818 62.6301 245.37 61.3037" stroke="#63493E" stroke-width="0.287085" stroke-miterlimit="10"/>
<path d="M202.529 166.728L202.532 175.026C202.532 175.026 188.596 175.026 188.489 175.026C188.382 175.026 188.487 165.767 188.487 165.767" fill="#E27769"/>
<path d="M187.978 173.387H202.835V181.361H178.438C178.438 181.361 178.965 178.93 180.919 177.584C183.3 175.944 186.723 175.198 187.978 173.387Z" fill="#F8E3D0"/>
<path d="M202.834 179.869H179" stroke="black" stroke-width="0.287085" stroke-miterlimit="10"/>
<path d="M185.753 175.025L189.129 175.936" stroke="black" stroke-width="0.287085" stroke-miterlimit="10"/>
<path d="M183.666 175.936L187.745 177.149" stroke="black" stroke-width="0.287085" stroke-miterlimit="10"/>
<path d="M202.833 176.542C202.833 176.542 200.384 176.542 199.641 176.542C198.898 176.542 195.806 177.274 195.479 179.868" stroke="black" stroke-width="0.287085" stroke-miterlimit="10"/>
<path d="M224.45 166.728L224.452 175.026C224.452 175.026 210.516 175.026 210.409 175.026C210.303 175.026 210.407 165.767 210.407 165.767" fill="#E27769"/>
<path d="M209.894 173.387H224.751V181.361H200.354C200.354 181.361 200.881 178.93 202.835 177.584C205.216 175.944 208.639 175.198 209.894 173.387Z" fill="#F8E3D0"/>
<path d="M224.75 179.869H200.916" stroke="black" stroke-width="0.287085" stroke-miterlimit="10"/>
<path d="M207.669 175.025L211.045 175.936" stroke="black" stroke-width="0.287085" stroke-miterlimit="10"/>
<path d="M205.582 175.936L209.661 177.149" stroke="black" stroke-width="0.287085" stroke-miterlimit="10"/>
<path d="M224.753 176.542C224.753 176.542 222.305 176.542 221.561 176.542C220.818 176.542 217.726 177.274 217.399 179.868" stroke="black" stroke-width="0.287085" stroke-miterlimit="10"/>
<path d="M186.85 64.4379L186.278 68.3644C186.278 68.3644 182.256 76.6745 182.164 87.0538C182.072 97.4331 186.677 170.188 186.677 170.188H203.296L202.942 83.11C202.942 83.11 203.514 68.7078 202.069 64.1768" fill="#572A2F"/>
<path d="M198.617 64.1764C198.617 86.6009 209.709 170.188 209.709 170.188H225.485C225.485 170.188 222.872 103.899 221.174 88.0937C220.113 78.2155 216.771 72.0534 214.09 68.3641L212.188 64.0439" fill="#572A2F"/>
<path d="M221.943 170.188C221.943 170.188 219.905 103.899 218.207 88.0941C217.202 78.7364 213.762 72.167 211.123 68.3645L209.705 63.9111" stroke="#754844" stroke-width="0.287085" stroke-miterlimit="10"/>
<path d="M204.941 68.2957C204.941 68.2957 205.248 72.8364 208.609 76.5821C211.97 80.3278 216.715 80.3725 216.715 80.3725" stroke="#754844" stroke-width="0.287085" stroke-miterlimit="10"/>
<path d="M200.542 68.2953L200.184 64.6348" stroke="#754844" stroke-width="0.287085" stroke-miterlimit="10"/>
<path d="M197.802 66.8811C198.179 66.8811 198.485 66.5885 198.485 66.2276C198.485 65.8666 198.179 65.574 197.802 65.574C197.425 65.574 197.119 65.8666 197.119 66.2276C197.119 66.5885 197.425 66.8811 197.802 66.8811Z" stroke="#754844" stroke-width="0.287085" stroke-miterlimit="10"/>
<path d="M203.054 110.866C203.054 110.866 198.744 79.9278 198.485 68.2939" stroke="black" stroke-width="0.287085" stroke-miterlimit="10"/>
<path d="M194.907 68.3655C194.907 68.3655 196.081 79.9189 196.511 80.5902C196.941 81.2616 199.587 82.6288 199.587 82.6288" stroke="black" stroke-width="0.287085" stroke-miterlimit="10"/>
<path d="M183.05 79.9805C183.05 79.9805 186.441 79.7423 189.025 77.3385C191.609 74.9347 191.806 68.3655 191.806 68.3655" stroke="#754844" stroke-width="0.287085" stroke-miterlimit="10"/>
<path d="M186.282 68.3655H214.09" stroke="black" stroke-width="0.287085" stroke-miterlimit="10"/>
<path d="M192.751 29.4651C187.586 28.6261 182.454 31.0425 179.422 34.3197C176.52 37.456 170.085 45.7287 170.085 45.7287L181.038 53.453L189.015 42.2049" fill="#FFC36C"/>
<path d="M185.752 38C183.87 42.7642 182.903 45.5967 184.118 50.5558C184.394 51.6817 184.83 52.7666 185.129 53.8871C186.178 57.8061 186.84 64.4367 186.84 64.4367L212.593 64.6334C212.593 64.6334 211.333 58.9055 211.851 56.2241C212.162 54.6137 214.049 44.8756 213.542 41.6379C213.035 38.4003 208.131 29.4648 208.131 29.4648H191.814L185.752 38Z" fill="#FFC36C"/>
<path d="M207.031 27.9497C207.792 28.2861 208.553 28.6225 209.315 28.9587C211.27 29.8223 213.252 30.702 214.894 32.0344C218.04 34.586 219.672 37.4438 220.045 41.3746C220.417 45.3056 218.967 54.2658 218.967 54.2658L205.074 51.1289L207.414 38.1888" fill="#FFC36C"/>
<path d="M207.267 39.0007L205.074 51.1286" stroke="black" stroke-width="0.287085" stroke-miterlimit="10"/>
<path d="M219.472 50.7483L205.449 48.012" stroke="black" stroke-width="0.287085" stroke-miterlimit="10"/>
<path d="M211.747 52.6364C211.747 52.6364 206.909 47.0468 205.59 42.6448C204.271 38.2427 197.509 45.5387 197.509 45.5387C197.509 45.5387 202.199 56.4825 204.484 60.4968C206.406 63.8722 208.921 66.2397 212.951 65.4033C217.606 64.4371 218.375 54.0225 218.375 54.0225L211.747 52.6364Z" fill="#E89274"/>
<path d="M183.849 49.2877C183.196 45.4031 183.767 41.3373 185.47 37.7561" stroke="black" stroke-width="0.287085" stroke-miterlimit="10"/>
<path d="M182.961 50.748L172.291 42.9304" stroke="black" stroke-width="0.287085" stroke-miterlimit="10"/>
<path d="M211.751 52.6355L214.898 57.6394" stroke="black" stroke-width="0.287085" stroke-miterlimit="10"/>
<path d="M191.449 61.9988C193.004 62.254 194.55 62.5609 196.095 62.868C198.529 63.3514 200.962 63.8347 203.395 64.3183" stroke="black" stroke-width="0.287085" stroke-miterlimit="10"/>
<path d="M193.952 50.1296C194.839 51.31 195.963 52.3258 197.246 53.1045" stroke="black" stroke-width="0.287085" stroke-miterlimit="10"/>
<path d="M180.124 35.6583C180.045 34.5065 180.223 33.3388 180.644 32.2572C180.775 31.9223 181.015 31.5397 181.388 31.5558C181.546 31.5626 181.698 31.6453 181.854 31.6244C181.879 31.2891 181.954 30.9374 182.192 30.6901C182.429 30.4427 182.871 30.3508 183.134 30.5726C183.157 30.5915 183.179 30.6131 183.208 30.6197C183.279 30.6355 183.331 30.5607 183.362 30.4986C183.533 30.1606 183.776 29.8465 184.106 29.644C184.436 29.4416 184.863 29.3635 185.23 29.4949C185.308 29.5226 185.39 29.5598 185.47 29.5367C185.538 29.5169 185.584 29.4575 185.626 29.4025C185.794 29.1849 185.989 28.9795 186.233 28.8424C186.477 28.7054 186.972 28.6641 187.243 28.7426C187.376 28.7812 187.652 28.8782 187.771 28.9476C188.056 29.1143 188.184 29.2712 188.47 29.4379L187.726 29.6079C187.726 29.6079 187.32 32.9804 186.572 34.5087C186.372 34.917 186.144 35.3193 185.821 35.6471C185.497 35.9749 185.067 36.2245 184.598 36.264C184.548 36.2683 184.493 36.269 184.452 36.2404C184.408 36.2094 184.394 36.1538 184.382 36.1024C184.346 35.9416 184.31 35.7809 184.275 35.62C184.159 35.9297 184.038 36.2463 183.815 36.4971C183.593 36.748 183.122 36.9557 182.908 36.8575C182.695 36.7593 182.78 36.3701 182.746 36.1008C182.539 36.6272 182.046 36.9607 181.459 36.9883C181.392 36.9915 181.321 36.9898 181.26 36.961C181.001 36.8388 181.008 36.2016 181.008 36.2016C181.008 36.2016 180.584 36.5204 180.384 36.3544C180.185 36.188 180.142 35.9108 180.124 35.6583Z" fill="#A04C38"/>
<path d="M185.482 29.8564C184.996 31.6867 184.672 33.5565 184.516 35.439" stroke="black" stroke-width="0.287085" stroke-miterlimit="10"/>
<path d="M183.303 30.8406C183.082 31.7822 182.932 32.7318 182.853 33.6828C182.785 34.5086 182.77 35.3348 182.755 36.1604" stroke="black" stroke-width="0.287085" stroke-miterlimit="10"/>
<path d="M181.793 31.5925C181.27 33.0245 181.195 34.8373 181.007 36.2007" stroke="black" stroke-width="0.287085" stroke-miterlimit="10"/>
<path d="M193.736 26.997L193.763 28.8377L190.138 29.252C190.138 29.252 188.19 32.8444 196.259 32.8444C204.328 32.8444 206.814 29.7024 206.814 29.7024L204.742 29.5549L204.564 25.2613L204.676 21.854" fill="#E89274"/>
<path d="M189.359 15.5112C189.346 17.2658 188.828 19.0147 187.876 20.5141C187.421 21.2296 186.869 21.8934 186.519 22.661C185.983 23.8397 185.974 25.2291 186.497 26.4136C186.719 26.9173 187.035 27.3968 187.104 27.9394C187.177 28.5158 186.961 29.0845 186.804 29.6454C186.589 30.4122 186.481 31.2021 186.386 31.9905C186.246 33.1452 186.139 34.3501 186.561 35.4402C187.053 36.7096 188.283 37.6902 189.676 37.9231C191.069 38.1559 192.573 37.633 193.485 36.5983C194.524 35.4191 194.741 33.7138 194.344 32.2183C194.231 31.7937 194.074 31.3798 193.99 30.9492C193.888 30.4243 193.898 29.8862 193.908 29.3524C193.928 28.2772 193.948 27.2021 193.969 26.1269" fill="#632334"/>
<path d="M193.063 10.6601C191.55 11.5209 190.671 13.1166 190.24 14.7312C189.881 16.0736 189.872 21.7817 189.972 23.0864C190.1 24.7646 191.203 26.7523 193.054 27.4549C195.175 28.2604 197.074 27.4452 199.046 25.9453C201.817 23.838 204.005 20.5139 203.875 17.0648C203.854 16.53 203.777 15.9968 203.641 15.4761C202.967 12.8957 200.722 10.6663 197.998 9.94956C196.509 9.55782 194.351 9.9272 193.063 10.6601Z" fill="#E89274"/>
<path d="M193.718 18.7922C193.731 19.6008 193.503 20.4116 193.066 21.104C192.956 21.2792 192.831 21.4494 192.762 21.6429C192.692 21.8366 192.686 22.0636 192.804 22.2342C192.87 22.3293 192.969 22.3989 193.073 22.4557C193.326 22.5944 193.617 22.6673 193.909 22.6644" stroke="black" stroke-width="0.287085" stroke-miterlimit="10"/>
<path d="M195.63 22.9128L193.551 23.4061C193.611 24.353 194.099 25.1418 195.068 24.9155C196.03 24.6909 195.799 23.6573 195.63 22.9128Z" fill="white"/>
<path d="M202.284 23.3739C202.272 24.1489 202.254 24.9634 202.036 25.7067C201.778 26.5886 201.472 27.4577 201.247 28.3483C200.958 29.4889 200.804 30.6867 201.059 31.8346C201.265 32.7639 201.732 33.6238 201.966 34.5471C202.08 34.9969 202.138 35.4599 202.138 35.9228C202.138 36.5183 202.047 37.1363 202.267 37.6931C202.402 38.0332 202.645 38.3243 202.914 38.5814C203.946 39.5679 205.432 40.0687 206.881 40.0091C207.605 39.9794 208.262 39.7218 208.963 39.6216C209.734 39.5115 210.457 39.1267 210.941 38.5303C211.34 38.0389 211.55 37.4349 211.753 36.8439C212.142 35.7143 212.351 34.7314 212.198 33.5313C212.072 32.5446 211.821 31.5719 211.767 30.5791C211.71 29.5072 211.884 28.4363 211.893 27.3629C211.908 25.4282 210.987 24.4119 209.994 22.8521C208.881 21.1037 208.487 19.0591 208.053 17.0842C207.609 15.0632 207.037 13.1639 205.852 11.3968C204.971 10.0827 203.786 8.92694 202.326 8.22994C201.525 7.847 197.288 6.51274 195.374 8.81536C192.193 8.46869 189.306 11.4925 189.004 12.839C188.366 15.6745 190.005 16.7577 190.005 16.7577C190.172 15.4515 190.309 13.9032 191.448 12.9979C192.5 12.1609 193.744 11.6094 195.137 11.6319C195.2 11.6849 195.328 15.0314 200.827 19.1542C202.008 20.0095 202.31 21.7862 202.284 23.3739Z" fill="#632334"/>
<path d="M195.062 17.6883C195.442 17.2464 196.296 17.095 197.048 17.2194C197.801 17.3436 198.46 17.6942 199.02 18.0854" stroke="black" stroke-width="0.287085" stroke-miterlimit="10"/>
<path d="M190.14 17.9913C190.695 16.8716 191.963 17.2778 192.595 17.765" stroke="black" stroke-width="0.287085" stroke-miterlimit="10"/>
<path d="M198.209 19.6262C198.17 20.0427 197.909 20.3608 197.626 20.3368C197.342 20.3126 197.143 19.9555 197.182 19.539C197.221 19.1225 197.482 18.8044 197.765 18.8284C198.049 18.8526 198.248 19.2097 198.209 19.6262Z" fill="black"/>
<path d="M192.114 19.1299C192.075 19.5463 191.814 19.8644 191.531 19.8404C191.247 19.8162 191.049 19.4591 191.087 19.0426C191.126 18.6262 191.387 18.3081 191.671 18.3321C191.954 18.3563 192.153 18.7134 192.114 19.1299Z" fill="black"/>
<path d="M200.605 19.9977C200.861 18.9788 202.488 18.4789 203.362 19.0044C205.465 20.2681 203.8 24.0197 201.593 23.9497C200.969 23.9299 200.16 23.523 200.096 22.828" fill="#E89274"/>
<path d="M203.127 20.7844L200.776 22.0736" stroke="black" stroke-width="0.287085" stroke-miterlimit="10"/>
<path d="M201.903 18.9473C201.362 19.1221 200.878 19.4638 200.533 19.9138" stroke="black" stroke-width="0.287085" stroke-miterlimit="10"/>
<path d="M203.929 22.5054C203.443 23.2804 202.64 24.0401 201.655 23.9912C200.971 23.9571 200.279 23.5219 200.159 22.8097" stroke="black" stroke-width="0.287085" stroke-miterlimit="10"/>
<path d="M193.814 27.7851C196.15 28.2839 198.432 26.8146 199.85 25.3557" stroke="black" stroke-width="0.287085" stroke-miterlimit="10"/>
<path d="M206.477 46.5529C205.29 41.7936 207.023 36.7878 206.447 31.9257C206.052 31.7899 205.753 32.274 205.636 32.6602C205.368 33.5427 205.101 34.4249 204.833 35.3073C204.485 34.0117 204.795 32.6465 204.761 31.3091C204.754 31.0645 204.612 30.7307 204.369 30.8054C204.268 30.8364 204.207 30.9322 204.156 31.0207C204.017 31.2582 203.878 31.4958 203.74 31.7333C203.814 31.3165 203.828 30.8897 203.781 30.4692C203.767 30.3404 203.733 30.1931 203.613 30.1343C203.408 30.034 202.868 30.5015 202.774 30.7023C202.436 31.4176 202.294 32.0239 201.957 32.7392C201.965 32.2852 202.117 31.7133 202.125 31.2593C202.128 31.0852 202.118 30.8839 201.973 30.7792C201.74 30.6118 201.424 30.8439 201.255 31.0709C199.94 32.8407 199.76 35.7931 199.55 36.7413C199.339 37.6895 198.816 38.3799 198.816 38.3799C198.816 38.3799 198.455 37.8712 198.427 37.5552C198.378 37.0081 198.075 36.3314 197.804 35.8473C197.533 35.3632 197.023 34.9926 196.681 35.0732C196.338 35.1538 196.594 36.5304 196.691 37.2582C196.886 38.7156 196.976 40.1856 196.962 41.6547C196.952 42.7301 196.887 43.8151 197.088 44.8733C197.395 46.4862 198.339 47.9805 199.688 48.9897" fill="#E89274"/>
<path d="M204.942 34.9563C204.942 34.9563 204.681 36.8359 204.338 37.7971C204.25 38.0442 203.683 38.7453 203.544 38.9697C203.393 39.2119 203.192 39.4206 203.004 39.6374C202.106 40.6714 201.494 41.9298 201.244 43.2527" stroke="black" stroke-width="0.287085" stroke-miterlimit="10"/>
<path d="M203.687 31.7085C203.395 32.2628 203.318 32.8949 203.246 33.5118C203.09 34.8551 202.936 36.1987 202.783 37.5425" stroke="black" stroke-width="0.287085" stroke-miterlimit="10"/>
<path d="M201.987 32.6826C201.658 34.3872 201.33 36.0917 201.001 37.7963" stroke="black" stroke-width="0.287085" stroke-miterlimit="10"/>
<path d="M198.831 38.3733C198.588 38.798 198.356 39.229 198.137 39.6658" stroke="black" stroke-width="0.287085" stroke-miterlimit="10"/>
<path d="M197.929 47.0859C198.594 47.8342 198.981 48.7663 199.357 49.6803" stroke="black" stroke-width="0.287085" stroke-miterlimit="10"/>
<path d="M177.362 31.5114C179.103 30.0267 181.017 28.7276 183.057 27.646" stroke="black" stroke-width="0.287085" stroke-miterlimit="10"/>
<path d="M179.498 26.6197C180.834 25.7855 182.3 25.1411 183.832 24.7136" stroke="black" stroke-width="0.287085" stroke-miterlimit="10"/>
<path d="M86.9962 179.588C86.9962 179.588 89.2349 139.748 90.4575 127.922C91.5574 117.282 89.2349 100.706 89.2349 100.706L70.5669 104.756L73.4228 127.363L71.917 182.226" fill="#E27769"/>
<path d="M87.6366 177.286C88.8353 183.63 99.4758 184.477 100.009 187.97C100.009 187.97 88.3465 187.97 85.4393 187.97C82.5321 187.97 80.0993 184.44 77.074 184.44L76.118 187.97H70.3589L71.6368 177.286H87.6366Z" fill="#19181E"/>
<path d="M105.926 179.588C105.926 179.588 108.165 139.748 109.387 127.922C110.487 117.282 108.165 100.706 108.165 100.706L89.4966 104.756L92.3525 127.363L90.8466 182.226" fill="#E27769"/>
<path d="M106.566 177.286C107.765 183.63 118.406 184.477 118.938 187.97C118.938 187.97 107.276 187.97 104.369 187.97C101.462 187.97 99.029 184.44 96.0037 184.44L95.0477 187.97H89.2886L90.5665 177.286H106.566Z" fill="#19181E"/>
<path d="M75.4474 69.447C75.4474 69.447 69.8009 76.4162 68.9124 88.9568C68.0242 101.498 69.7354 121.583 69.7354 121.583H110.773C110.773 121.583 110.773 94.3798 108.208 82.1082C106.35 73.2229 102.901 69.4468 102.901 69.4468" fill="#4C4139"/>
<path d="M75.5457 73.2837C75.5457 73.2837 72.257 84.0188 72.9003 95.515C73.5436 107.011 74.1813 121.583 74.1813 121.583" stroke="#776152" stroke-width="0.287085" stroke-miterlimit="10"/>
<path d="M79.308 73.2837C79.308 73.2837 77.4913 84.0188 78.1344 95.515C78.7776 107.011 79.4153 121.583 79.4153 121.583" stroke="#776152" stroke-width="0.287085" stroke-miterlimit="10"/>
<path d="M82.8542 82.2039C82.6439 85.6705 82.579 89.5887 82.8483 93.5929C83.6781 105.937 84.5009 121.583 84.5009 121.583" stroke="#776152" stroke-width="0.287085" stroke-miterlimit="10"/>
<path d="M88.4185 102.767C89.0114 112.532 89.4876 121.583 89.4876 121.583" stroke="#776152" stroke-width="0.287085" stroke-miterlimit="10"/>
<path d="M73.1016 73.2837H105.258" stroke="black" stroke-width="0.287085" stroke-miterlimit="10"/>
<path d="M80.3335 73.2837L93.5769 121.583" stroke="black" stroke-width="0.287085" stroke-miterlimit="10"/>
<path d="M82.7671 73.2952C87.0383 77.1653 91.9263 80.4106 97.2094 82.8838" stroke="black" stroke-width="0.287085" stroke-miterlimit="10"/>
<path d="M86.2827 73.1758C91.1746 74.7142 96.2658 75.6713 101.402 76.018" stroke="black" stroke-width="0.287085" stroke-miterlimit="10"/>
<path d="M93.1855 21.9167C93.3671 20.8948 94.9374 20.2973 95.837 20.7598C98.0001 21.8719 96.6192 25.6805 94.437 25.7529C93.8195 25.7734 92.9925 25.4236 92.8813 24.742" fill="#BF524F"/>
<path d="M95.7282 22.5312L93.4985 23.954" stroke="black" stroke-width="0.287085" stroke-miterlimit="10"/>
<path d="M94.3867 20.7969C93.8653 21.0041 93.4114 21.3722 93.103 21.8383" stroke="black" stroke-width="0.287085" stroke-miterlimit="10"/>
<path d="M94.9151 25.0271L96.2558 28.7336L93.8799 28.6515L94.9151 25.0271Z" stroke="#FFC36C" stroke-width="0.287085" stroke-miterlimit="10" stroke-linejoin="round"/>
<path d="M92.2654 29.4219L92.2214 32.4437L99.657 33.3725C99.657 33.3725 100.364 39.0749 89.7425 39.0749C79.1213 39.0749 74.8276 33.5224 74.8276 33.5224L80.5462 32.1506L81.5098 27.007L81.3257 24.2786" fill="#D16159"/>
<path d="M90.9966 12.9806C92.6221 13.6814 93.6983 15.1916 94.3255 16.7699C94.847 18.082 95.5385 23.8276 95.594 25.1522C95.6654 26.8557 94.7929 28.9778 93.0137 29.8881C90.9742 30.9315 88.9658 30.3186 86.8008 29.0249C83.7586 27.2071 81.1588 24.1001 80.8777 20.6136C80.834 20.0729 80.848 19.5276 80.9226 18.9886C81.2924 16.317 83.2865 13.8263 85.9432 12.8063C87.3958 12.2482 89.6123 12.3838 90.9966 12.9806Z" fill="#D16159"/>
<path d="M91.7266 21.22C91.6315 22.0342 91.78 22.8732 92.1502 23.612C92.2438 23.7991 92.3523 23.9821 92.4028 24.1839C92.4533 24.3856 92.4371 24.6152 92.3004 24.7762C92.2242 24.866 92.1171 24.9272 92.007 24.9748C91.7381 25.0914 91.4365 25.1377 91.1431 25.1079" stroke="black" stroke-width="0.287085" stroke-miterlimit="10"/>
<path d="M89.8136 25.5032L91.9363 26.0131C91.6423 26.9323 90.9619 28.048 90.0637 27.6055C89.1711 27.1658 89.4626 26.1982 89.8136 25.5032Z" fill="white"/>
<path d="M81.5129 27.0063C81.4645 27.0181 81.4149 26.995 81.3709 26.9723C79.9179 26.2229 78.8103 25.3247 78.0915 23.9045C76.8401 21.4322 76.3875 18.6134 77.6601 16.059C78.7347 13.9017 80.8702 11.9531 83.2839 11.2414C86.5905 10.2663 89.2082 10.3477 92.1037 12.3516C94.1872 13.7936 95.0521 16.6899 94.765 18.5297C94.5437 17.6988 94.0982 17.1881 93.781 16.8163C93.1217 16.0433 92.4543 15.297 91.4536 14.9461C90.497 14.6106 89.4258 14.589 88.446 14.8454C86.9088 15.2477 85.825 16.1428 85.0362 17.4739C84.1009 19.0524 84.3367 21.0648 83.4031 22.6697C83.2287 22.9695 82.7331 23.1967 82.6163 23.521C82.4538 23.9726 82.6274 24.3468 82.6067 24.7948C82.5708 25.5792 82.0842 26.3068 81.618 26.9202C81.5901 26.9565 81.5587 26.9953 81.5129 27.0063Z" fill="#2C221D"/>
<path d="M89.8997 19.9968C89.4645 19.5935 88.5868 19.5347 87.8444 19.7423C87.102 19.9499 86.4799 20.375 85.9634 20.8301" stroke="black" stroke-width="0.287085" stroke-miterlimit="10"/>
<path d="M94.8135 20.0408C94.1209 18.9743 92.8927 19.5223 92.3149 20.0821" stroke="black" stroke-width="0.287085" stroke-miterlimit="10"/>
<path d="M87.992 21.8808C88.0806 22.2958 88.3817 22.5875 88.6642 22.5322C88.9466 22.4769 89.104 22.0956 89.0152 21.6806C88.9265 21.2656 88.6255 20.9739 88.343 21.0292C88.0607 21.0843 87.9034 21.4656 87.992 21.8808Z" fill="black"/>
<path d="M93.2274 21.7597C93.316 22.1748 93.6171 22.4665 93.8996 22.4111C94.1821 22.3558 94.3394 21.9745 94.2506 21.5595C94.162 21.1445 93.8609 20.8528 93.5784 20.9081C93.296 20.9633 93.1386 21.3446 93.2274 21.7597Z" fill="black"/>
<path d="M85.167 22.8156C84.7871 21.8178 83.0897 21.4929 82.2721 22.1179C80.3063 23.6205 82.4315 27.2149 84.6445 26.9027C85.2708 26.8144 86.0367 26.316 86.0176 25.6093" fill="#D16159"/>
<path d="M82.7227 23.8848L85.2438 24.9249" stroke="black" stroke-width="0.287085" stroke-miterlimit="10"/>
<path d="M83.7349 21.9001C84.3002 22.0169 84.8285 22.3078 85.2292 22.7232" stroke="black" stroke-width="0.287085" stroke-miterlimit="10"/>
<path d="M82.1191 25.7059C82.7008 26.433 83.6005 27.1096 84.5865 26.9524C85.2708 26.8432 85.9157 26.3291 85.9515 25.5991" stroke="black" stroke-width="0.287085" stroke-miterlimit="10"/>
<path d="M84.4101 26.2449L83.4507 29.348L85.6735 29.8801L84.4101 26.2449Z" stroke="#FFC36C" stroke-width="0.287085" stroke-miterlimit="10" stroke-linejoin="round"/>
<path d="M92.2822 30.3045C89.9903 31.0625 87.517 29.8335 85.915 28.5203" stroke="black" stroke-width="0.287085" stroke-miterlimit="10"/>
<path d="M76.6505 17.6935C79.4756 16.5749 80.8186 13.4757 79.6502 10.7712C78.4819 8.06668 75.2445 6.78106 72.4194 7.89965C69.5944 9.01825 68.2514 12.1175 69.4197 14.822C70.5881 17.5265 73.8255 18.8121 76.6505 17.6935Z" fill="#2C221D"/>
<path d="M80.1463 12.7163C78.4814 14.0649 77.3158 15.8931 76.8662 17.8617" stroke="#FFC36C" stroke-width="0.38278" stroke-miterlimit="10" stroke-linecap="round" stroke-linejoin="round"/>
<path d="M104.734 49.1839C104.771 44.9864 101.766 41.0613 101.766 41.0613L96.3057 32.8501C95.3093 34.5325 93.9795 35.8345 90.967 36.4978C87.4836 37.2648 84.4856 37.0242 81.2085 35.9219C79.4601 35.3337 77.9552 34.3093 76.6754 33.0264C76.6754 33.0264 72.9592 33.5643 70.9848 35.1562C69.0104 36.7483 74.8327 44.1981 74.8327 44.1981C74.9548 52.1377 76.7368 61.6025 75.4436 69.4459H102.898L101.414 57.1241C101.414 57.1241 104.712 51.6795 104.734 49.1839Z" fill="#FCDDD2"/>
<path d="M99.9797 45.7303L111.134 56.2259L120.992 47.8768C117.171 44.3876 113.283 40.9682 109.432 37.5092C108.042 36.2603 106.483 35.3799 104.762 34.5961C102.107 33.3869 98.2296 33.0606 96.2388 32.8567" fill="#FCDDD2"/>
<path d="M102.534 41.0449C102.396 42.5413 102.995 44.1103 103.512 45.4977C104.072 47.0033 104.591 48.551 104.668 50.1596" stroke="black" stroke-width="0.287085" stroke-miterlimit="10"/>
<path d="M74.8335 34.533C76.6617 36.4944 79.2504 37.8248 81.9945 38.5539C84.7387 39.2829 88.7577 39.3152 91.6219 38.6858" stroke="black" stroke-width="0.287085" stroke-miterlimit="10"/>
<path d="M93.5483 38.191C95.8898 37.3795 97.6803 35.5388 98.9151 33.1521" stroke="black" stroke-width="0.287085" stroke-miterlimit="10"/>
<path d="M89.0205 55.6017C89.8385 54.8305 90.6033 54.0077 91.308 53.1399" stroke="black" stroke-width="0.287085" stroke-miterlimit="10"/>
<path d="M89.499 63.1471C91.9701 62.6857 94.3814 61.9331 96.6614 60.9114" stroke="black" stroke-width="0.287085" stroke-miterlimit="10"/>
<path d="M93.5762 63.4708C95.4962 63.3831 97.4099 63.1648 99.2978 62.8184" stroke="black" stroke-width="0.287085" stroke-miterlimit="10"/>
<path d="M60.7849 49.9597C59.0821 53.1766 57.4356 55.3999 58.6416 59.1612C59.3059 61.2331 60.3453 63.009 61.6904 65.578C64.7312 71.3863 70.5709 79.6475 70.5709 79.6475L75.2232 72.5474L70.0331 57.5893L75.2232 47.5032" fill="#E27769"/>
<path d="M74.133 70.7573C75.4088 72.4985 76.9914 74.1362 77.5152 76.2032C77.8695 77.6009 77.6999 79.0704 77.4184 80.483C77.2712 81.2218 77.094 81.9545 76.9456 82.6931C76.8716 83.0616 76.8042 83.4314 76.7518 83.8033C76.7278 83.9726 76.7621 84.694 76.5782 84.7565C76.1803 84.8915 75.7874 84.3686 75.6658 84.0844C75.3849 83.4279 75.3826 82.69 75.4934 81.9886C75.5215 81.8107 75.5372 81.5885 75.3778 81.4932C75.1879 81.3794 74.9563 81.5608 74.8252 81.7347C73.9944 82.835 73.7265 83.8977 73.2811 85.1869C73.012 85.9658 72.661 87.4772 72.2401 88.1918C71.8826 88.7988 71.2164 89.3899 70.7111 88.9271C70.6091 88.8633 70.1488 89.2307 70.1073 88.8897C69.9764 87.8164 70.3303 86.7316 70.1775 85.666C70.1406 85.408 70.0529 84.0945 70.0372 83.8346C69.9488 82.367 69.9006 81.7999 69.7488 80.2511C69.6514 79.2556 69.3597 78.329 69.0793 77.3744C68.7928 76.3991 68.4608 75.4333 68.0181 74.5118" fill="#E27769"/>
<path d="M74.9937 81.6941C75.3648 81.2824 75.729 80.8679 76.0857 80.4507" stroke="black" stroke-width="0.287085" stroke-miterlimit="10"/>
<path d="M72.1278 82.0854C71.2299 85.1534 71.1078 86.659 70.771 88.981" stroke="black" stroke-width="0.287085" stroke-miterlimit="10"/>
<path d="M70.6641 81.6208C70.8228 82.3259 70.7005 83.0568 70.6195 83.7738C70.5145 84.7051 70.2578 86.4293 70.2578 86.4293" stroke="black" stroke-width="0.287085" stroke-miterlimit="10"/>
<path d="M69.9607 57.4649C69.2136 56.6812 68.3309 56.0163 67.3594 55.5056" stroke="black" stroke-width="0.287085" stroke-miterlimit="10"/>
<path d="M75.8462 43.8601C75.8462 43.8601 79.8774 48.9996 81.2168 52.0652C82.9515 56.0361 84.582 60.2064 83.3127 63.4698C81.3762 68.4491 70.2377 74.9699 67.1925 80.5888L62.8364 71.3908L70.848 60.0235L70.0616 57.4272" fill="#D16159"/>
<path d="M67.1888 65.9487C65.9583 67.3229 64.7656 68.7305 63.6096 70.1628C62.8957 71.0474 62.196 71.9436 61.5339 72.8645C60.1209 74.8303 58.9875 77.1282 59.061 79.5658C59.0897 80.5208 59.2742 81.4632 59.4725 82.3969C59.6616 83.2868 59.9104 84.1896 59.8346 85.1059C59.8107 85.3947 59.71 86.0283 60.0572 86.191C60.1998 86.2579 60.3711 86.1939 60.5041 86.1111C60.9921 85.8075 61.2679 85.2682 61.4071 84.7272C61.5351 84.2299 61.643 83.6604 61.6566 83.1485C61.6664 82.774 61.6647 82.3254 62.0926 82.1393C62.7879 84.0054 63.4898 85.9004 63.6318 87.877C63.7219 89.1329 63.5835 90.3975 63.7028 91.651C63.7349 91.9892 63.7904 92.3383 63.9832 92.6234C64.1089 92.8093 64.3799 93.0497 64.6322 93.0435C65.1097 93.0318 65.1457 91.972 65.2263 91.6446C65.4255 90.8347 65.6245 90.0248 65.8238 89.215C66.3669 87.0065 66.4687 84.7493 66.7443 82.4872C67.0113 80.2956 68.7226 78.277 69.7176 76.5037" fill="#D16159"/>
<path d="M61.9922 82.2024C61.6612 81.7209 61.3305 81.239 60.9772 80.7721C60.6522 80.343 60.239 79.9461 59.9937 79.4675" stroke="black" stroke-width="0.287085" stroke-miterlimit="10"/>
<path d="M70.7207 60.1611C72.6136 58.2777 76.0421 56.4452 78.7713 56.373" stroke="black" stroke-width="0.287085" stroke-miterlimit="10"/>
<path d="M65.1943 91.2526C65.3373 89.7655 65.4805 88.2766 65.5055 86.7835C65.5199 85.9233 65.4973 85.0469 65.7538 84.2222" stroke="black" stroke-width="0.287085" stroke-miterlimit="10"/>
<path d="M73.0781 33.9927C69.2715 35.1946 66.9239 37.9821 65.1765 40.6596C63.0873 43.8606 60.4469 49.7493 59.2417 51.7344L71.4553 56.486L77.7193 45.8217" fill="#FCDDD2"/>
<path d="M71.459 56.4864L77.723 45.822" stroke="black" stroke-width="0.287085" stroke-miterlimit="10"/>
<path d="M102.976 30.0056C105.988 30.7239 108.802 32.1941 111.063 34.2312" stroke="black" stroke-width="0.287085" stroke-miterlimit="10"/>
<path d="M102.248 27.1794C104.269 27.6991 106.352 28.2478 107.994 29.4905" stroke="black" stroke-width="0.287085" stroke-miterlimit="10"/>
<path d="M135.34 20.5242L134.707 28.0356L132.352 29.6145C132.352 29.6145 138.796 35.8303 141.344 35.6796C143.892 35.529 151.253 28.9206 151.253 28.9206C151.253 28.9206 148.977 27.8692 148.911 27.6689C148.845 27.4687 148.214 21.2096 148.214 21.2096" fill="#D16159"/>
<path d="M135.306 15.5448C135.014 14.5215 133.616 14.1482 132.925 14.7624C131.263 16.239 132.941 19.9445 134.781 19.6835C135.301 19.6097 135.947 19.1229 135.947 18.4046" fill="#D16159"/>
<path d="M133.256 16.5674L135.32 17.6884" stroke="black" stroke-width="0.287085" stroke-miterlimit="10"/>
<path d="M134.144 14.5776C134.61 14.7107 135.04 15.0196 135.363 15.4516" stroke="black" stroke-width="0.287085" stroke-miterlimit="10"/>
<path d="M148.492 15.4432C148.784 14.4199 150.182 14.0467 150.873 14.6609C152.535 16.1375 150.856 19.8429 149.017 19.582C148.497 19.5081 147.851 19.0213 147.851 18.303" fill="#D16159"/>
<path d="M150.539 16.4658L148.475 17.5866" stroke="black" stroke-width="0.287085" stroke-miterlimit="10"/>
<path d="M149.087 13.3314C149.047 11.573 148.236 9.81348 146.975 8.54463C145.525 7.08613 143.639 6.59417 141.578 6.81789C139.749 7.01632 137.907 7.69995 136.583 8.95396C135.695 9.79552 135.177 10.9191 134.978 12.0908C134.682 13.8331 134.824 15.6273 135.229 17.3425C135.884 20.1131 137.322 23.4181 140.79 23.4945C143.085 23.5451 145.849 22.9952 147.383 21.219C148.246 20.2197 148.649 18.9241 148.832 17.6395C149.031 16.2312 149.119 14.7472 149.087 13.3314Z" fill="#D16159"/>
<path d="M141.73 13.3367C141.605 14.5528 141.48 15.7686 141.355 16.9847C141.306 17.4613 141.425 17.8703 142.008 18.0322C142.331 18.1218 142.682 18.1039 143.015 18.0819" stroke="black" stroke-width="0.287085" stroke-miterlimit="10"/>
<path d="M151.481 5.33043C151.377 5.13859 151.259 4.94858 151.09 4.80493C150.546 4.34265 149.706 4.50462 149.006 4.69371C149.784 4.19753 150.089 3.1623 149.801 2.31011C149.514 1.45792 148.711 0.813685 147.809 0.57494C146.908 0.336194 145.928 0.471057 145.07 0.82945C144.444 1.09128 143.877 1.46562 143.315 1.83757C142.698 2.24562 142.082 2.65366 141.465 3.06171C141.719 2.58953 141.343 1.97609 140.821 1.79671C140.299 1.61751 139.713 1.7683 139.218 2.00723C138.677 2.26778 138.193 2.63369 137.8 3.07344C137.497 3.41204 137.336 3.82522 137.072 4.18948C136.794 4.57334 136.456 4.91707 136.071 5.20401C135.469 5.6531 134.767 5.95798 134.103 6.31784C133.3 6.75301 132.595 7.30984 132.137 8.08746C131.299 9.50894 131.456 11.2956 132.032 12.8316C132.536 14.1756 133.442 14.597 134.131 15.8651C134.43 18.7359 135.021 23.6241 136.491 24.9268C136.952 25.3352 137.429 25.5212 137.827 25.5992C138.387 25.7088 138.913 25.9463 139.317 26.3331C139.756 26.753 140.515 27.1988 141.764 27.1988C142.776 27.1988 143.493 26.8331 143.983 26.4152C144.607 25.8823 145.399 25.5439 146.235 25.5663C146.793 25.5813 147.433 25.4197 147.966 24.8095C148.912 23.7265 149.474 19.4538 149.685 15.8013C149.773 14.2688 150.254 12.7696 151.142 11.4913C151.513 10.9564 151.797 10.3668 151.975 9.74731C152.393 8.28552 152.213 6.67459 151.481 5.33043ZM148.047 19.9958C147.328 21.1567 146.037 21.9902 144.619 22.1122C144.3 22.1395 143.967 22.1282 143.679 22.006C143.315 21.8519 143.327 21.3727 142.938 21.2798C142.666 21.215 142.381 21.2053 142.102 21.2177C141.818 21.2304 141.412 21.1754 141.229 21.4325C141.084 21.6379 140.942 21.8735 140.715 22.0076C140.455 22.1619 140.102 22.1375 139.809 22.1122C138.433 21.9939 137.222 21.1886 136.462 20.1775C135.701 19.1665 135.47 17.6256 135.239 16.4318C135.162 16.0313 135.011 14.9334 134.912 13.9652C135.484 13.4503 135.89 12.749 136.164 12.0344C136.55 11.0288 137.124 9.92046 137.118 8.95412C139.339 9.80558 142.028 9.41054 143.88 7.96084C144.477 8.63933 145.162 9.1509 145.846 9.73302C146.477 10.2708 147.738 10.8311 148.581 10.9852C149.359 15.4541 148.95 18.5364 148.047 19.9958Z" fill="#2C221D"/>
<path d="M141.567 19.4783C141.77 20.0412 142.755 20.1062 143.207 19.8475C143.663 19.586 143.751 19.0845 143.715 18.6089" stroke="black" stroke-width="0.287085" stroke-miterlimit="10"/>
<path d="M138.18 17.8632C139.748 17.8632 141.019 16.6463 141.019 15.1452C141.019 13.6441 139.748 12.4272 138.18 12.4272C136.612 12.4272 135.341 13.6441 135.341 15.1452C135.341 16.6463 136.612 17.8632 138.18 17.8632Z" stroke="#FCDDD2" stroke-width="0.38278" stroke-miterlimit="10"/>
<path d="M145.856 17.8632C147.424 17.8632 148.695 16.6463 148.695 15.1452C148.695 13.6441 147.424 12.4272 145.856 12.4272C144.288 12.4272 143.017 13.6441 143.017 15.1452C143.017 16.6463 144.288 17.8632 145.856 17.8632Z" stroke="#FCDDD2" stroke-width="0.38278" stroke-miterlimit="10"/>
<path d="M140.881 14.3159H143.012" stroke="#FCDDD2" stroke-width="0.38278" stroke-miterlimit="10"/>
<path d="M143.987 12.0113C144.579 11.0272 146.943 11.1862 147.717 12.4265" stroke="black" stroke-width="0.287085" stroke-miterlimit="10"/>
<path d="M145.726 14.5783C145.726 14.9656 145.492 15.2799 145.203 15.2799C144.914 15.2799 144.68 14.9658 144.68 14.5783C144.68 14.1908 144.914 13.8767 145.203 13.8767C145.492 13.8767 145.726 14.191 145.726 14.5783Z" fill="black"/>
<path d="M140.131 12.0113C139.538 11.0272 137.175 11.1862 136.401 12.4265" stroke="black" stroke-width="0.287085" stroke-miterlimit="10"/>
<path d="M138.391 14.5783C138.391 14.9656 138.625 15.2799 138.914 15.2799C139.203 15.2799 139.437 14.9658 139.437 14.5783C139.437 14.1908 139.203 13.8767 138.914 13.8767C138.625 13.8769 138.391 14.191 138.391 14.5783Z" fill="black"/>
<path d="M138.207 174.178L137.576 184.055C137.576 184.055 123.515 184.055 123.407 184.055C123.299 184.055 124.038 173.034 124.038 173.034" fill="#E27769"/>
<path d="M122.859 181.638C122.883 181.619 122.908 181.602 122.936 181.588C123.042 181.534 123.164 181.526 123.281 181.519C124.497 181.448 125.714 181.378 126.931 181.413C127.358 181.426 127.873 181.516 128.031 181.943C128.118 182.178 127.751 183.601 128.432 183.601C129.112 183.601 137.881 183.392 137.881 183.392L138.212 190.725H132.286L132.255 188.958C132.255 188.958 128.694 190.725 127.258 190.725C125.821 190.725 113.263 190.725 113.263 190.725C113.263 190.725 113.794 187.968 115.766 186.44C117.002 185.483 118.416 184.843 119.775 184.121C120.41 183.784 121.042 183.431 121.624 182.995C121.886 182.799 122.133 182.584 122.365 182.348C122.56 182.149 122.644 181.807 122.859 181.638Z" fill="#1E1611"/>
<path d="M120.745 183.727L123.614 184.598" stroke="#56453C" stroke-width="0.19139" stroke-miterlimit="10"/>
<path d="M118.969 184.598L122.437 185.758" stroke="#56453C" stroke-width="0.19139" stroke-miterlimit="10"/>
<path d="M147.82 174.178L148.451 184.055C148.451 184.055 162.512 184.055 162.62 184.055C162.728 184.055 161.989 173.034 161.989 173.034" fill="#E27769"/>
<path d="M163.172 181.638C163.148 181.619 163.123 181.602 163.095 181.588C162.989 181.534 162.868 181.526 162.75 181.519C161.534 181.448 160.317 181.378 159.1 181.413C158.673 181.426 158.158 181.516 158 181.943C157.913 182.178 158.28 183.601 157.6 183.601C156.919 183.601 148.15 183.392 148.15 183.392L147.819 190.725H153.745L153.776 188.958C153.776 188.958 157.337 190.725 158.773 190.725C160.21 190.725 172.769 190.725 172.769 190.725C172.769 190.725 172.237 187.968 170.265 186.44C169.029 185.483 167.615 184.843 166.257 184.121C165.622 183.784 164.989 183.431 164.407 182.995C164.145 182.799 163.898 182.584 163.666 182.348C163.471 182.149 163.387 181.807 163.172 181.638Z" fill="#1E1611"/>
<path d="M165.292 183.727L162.422 184.598" stroke="#56453C" stroke-width="0.19139" stroke-miterlimit="10"/>
<path d="M167.062 184.598L163.594 185.758" stroke="#56453C" stroke-width="0.19139" stroke-miterlimit="10"/>
<path d="M126.947 73.6499L126.236 80.5367C126.236 80.5367 123.21 89.3081 123.682 107.723C124.154 126.138 123.102 180.28 123.102 180.28H138.206L142.979 101.839L147.753 180.28H162.856C162.856 180.28 161.805 126.138 162.277 107.723C162.749 89.3081 159.722 80.5367 159.722 80.5367L159.012 73.6499" fill="#2A2D3E"/>
<path d="M159.722 80.5371H126.236" stroke="black" stroke-width="0.287085" stroke-miterlimit="10"/>
<path d="M144.556 80.3733V76.0811" stroke="black" stroke-width="0.287085" stroke-miterlimit="10"/>
<path d="M152.037 80.3733V76.0811" stroke="black" stroke-width="0.287085" stroke-miterlimit="10"/>
<path d="M153.334 80.3733V76.0811" stroke="black" stroke-width="0.287085" stroke-miterlimit="10"/>
<path d="M132.983 80.3733V76.0811" stroke="black" stroke-width="0.287085" stroke-miterlimit="10"/>
<path d="M134.272 80.3733V76.0811" stroke="black" stroke-width="0.287085" stroke-miterlimit="10"/>
<path d="M143.2 79.0053C143.2 79.349 142.909 79.6277 142.55 79.6277C142.191 79.6277 141.9 79.349 141.9 79.0053C141.9 78.6616 142.191 78.3831 142.55 78.3831C142.909 78.3831 143.2 78.6616 143.2 79.0053Z" stroke="black" stroke-width="0.287085" stroke-miterlimit="10"/>
<path d="M142.981 101.839V80.5901" stroke="black" stroke-width="0.287085" stroke-miterlimit="10"/>
<path d="M139.917 80.5901C139.917 80.7563 140.06 89.2445 140.252 89.5197C140.444 89.7949 142.979 90.1621 142.979 90.1621" stroke="black" stroke-width="0.287085" stroke-miterlimit="10"/>
<path d="M150.47 80.5901C150.47 80.5901 151.286 83.5712 152.038 83.9565C152.791 84.3419 160.857 86.4869 160.857 86.4869" stroke="black" stroke-width="0.287085" stroke-miterlimit="10"/>
<path d="M135.115 80.5901C135.115 80.5901 134.313 83.5476 133.574 83.9298C132.834 84.312 124.905 86.44 124.905 86.44" stroke="black" stroke-width="0.287085" stroke-miterlimit="10"/>
<path d="M123.726 33.9687C123.399 38.7515 123.75 43.55 124.101 48.3312C124.812 58.0012 125.522 67.671 126.233 77.3408H159.572C159.572 77.3408 160.976 46.9079 163.943 39.0054C166.602 31.9266 150.551 27.6455 150.551 27.6455L142.049 33.5306L132.359 28.4766L123.726 33.9687Z" fill="#735D9D"/>
<path d="M127.146 68.1531C128.585 70.3606 130.054 72.6427 130.501 75.2095C130.707 76.3936 130.699 77.2842 130.679 78.4844C130.654 79.9344 130.502 80.964 130.366 82.41C130.332 82.7744 130.403 84.5934 129.809 84.5437C129.633 84.529 129.501 84.3876 129.397 84.2511C128.984 83.7111 128.699 83.0828 128.569 82.4258C128.384 84.4631 128.2 86.5006 128.015 88.5379C127.96 89.1478 127.897 89.7816 127.569 90.3068C127.356 90.6472 126.875 90.6483 126.497 90.741C126.41 90.7623 126.321 90.7846 126.247 90.8335C126.153 90.8962 126.095 90.9953 126.037 91.0902C125.863 91.3784 125.505 91.9155 125.099 91.6049C124.92 91.4682 124.847 91.2439 124.784 91.0334C124.635 90.5402 124.486 90.0469 124.337 89.5537C124.309 89.4606 124.28 89.3664 124.229 89.2829C124.058 89.0042 123.726 88.853 123.56 88.5679C123.417 88.3208 123.288 88.0269 123.186 87.7621C122.922 87.0722 122.897 86.3254 122.753 85.6095C122.724 85.4657 122.689 85.3198 122.61 85.1945C122.545 85.0906 122.452 85.0054 122.377 84.9078C122.206 84.6853 122.133 84.409 122.068 84.1397C121.746 82.7952 121.567 81.3656 121.258 79.996C120.935 78.5648 120.361 77.2525 119.754 75.9152" fill="#D16159"/>
<path d="M128.616 82.899C128.831 81.6657 129.157 80.4501 129.589 79.2705" stroke="black" stroke-width="0.287085" stroke-miterlimit="10"/>
<path d="M126.332 81.2139C125.949 84.3701 125.966 87.5706 126.383 90.723" stroke="black" stroke-width="0.287085" stroke-miterlimit="10"/>
<path d="M123.684 81.8958C123.635 84.9181 123.988 87.9461 124.729 90.8843" stroke="black" stroke-width="0.287085" stroke-miterlimit="10"/>
<path d="M122.484 81.7349C122.365 83.0973 122.681 84.6465 123.102 85.9685" stroke="black" stroke-width="0.287085" stroke-miterlimit="10"/>
<path d="M141.898 33.5303L141.659 77.3405" stroke="black" stroke-width="0.287085" stroke-miterlimit="10"/>
<path d="M143.572 37.5194C143.902 37.5194 144.168 37.2639 144.168 36.9487C144.168 36.6335 143.902 36.3779 143.572 36.3779C143.243 36.3779 142.976 36.6335 142.976 36.9487C142.976 37.2639 143.243 37.5194 143.572 37.5194Z" stroke="black" stroke-width="0.287085" stroke-miterlimit="10"/>
<path d="M144.168 46.302C144.168 46.6173 143.901 46.8727 143.572 46.8727C143.243 46.8727 142.976 46.6171 142.976 46.302C142.976 45.9868 143.243 45.7312 143.572 45.7312C143.901 45.7312 144.168 45.9868 144.168 46.302Z" stroke="black" stroke-width="0.287085" stroke-miterlimit="10"/>
<path d="M143.572 56.2277C143.902 56.2277 144.168 55.9722 144.168 55.6569C144.168 55.3417 143.902 55.0862 143.572 55.0862C143.243 55.0862 142.976 55.3417 142.976 55.6569C142.976 55.9722 143.243 56.2277 143.572 56.2277Z" stroke="black" stroke-width="0.287085" stroke-miterlimit="10"/>
<path d="M143.572 65.5824C143.902 65.5824 144.168 65.3269 144.168 65.0117C144.168 64.6965 143.902 64.4409 143.572 64.4409C143.243 64.4409 142.976 64.6965 142.976 65.0117C142.976 65.3269 143.243 65.5824 143.572 65.5824Z" stroke="black" stroke-width="0.287085" stroke-miterlimit="10"/>
<path d="M143.572 74.9357C143.902 74.9357 144.168 74.6802 144.168 74.3649C144.168 74.0497 143.902 73.7942 143.572 73.7942C143.243 73.7942 142.976 74.0497 142.976 74.3649C142.976 74.6802 143.243 74.9357 143.572 74.9357Z" stroke="black" stroke-width="0.287085" stroke-miterlimit="10"/>
<path d="M160.859 49.3024L161.541 40.4272" stroke="black" stroke-width="0.287085" stroke-miterlimit="10"/>
<path d="M132.409 27.9119C128.729 28.1605 124.901 28.4518 121.72 30.2403C119.633 31.4132 117.971 33.1549 116.378 34.8981C113.23 38.3436 110.123 41.832 107.296 45.5264C104.733 48.8753 102.288 52.3198 103.039 56.6887C103.605 59.9879 105.721 62.5585 107.792 65.1316C111.507 69.7487 120.343 79.2482 120.708 79.6513L128.618 69.6828L117.655 55.4348L126.946 44.7563" fill="#735D9D"/>
<path d="M124.207 47.9055L122.78 41.2996" stroke="black" stroke-width="0.287085" stroke-miterlimit="10"/>
<path d="M113.531 54.1294C115.105 54.1924 116.731 54.5208 117.971 55.4525" stroke="black" stroke-width="0.287085" stroke-miterlimit="10"/>
<path d="M113.586 52.0684C114.645 52.2756 115.645 52.7509 116.458 53.4327" stroke="black" stroke-width="0.287085" stroke-miterlimit="10"/>
<path d="M125.361 65.4509L128.617 69.6824L120.707 79.6509" stroke="black" stroke-width="0.287085" stroke-miterlimit="10"/>
<path d="M117.968 76.6757L126.214 66.5596" stroke="black" stroke-width="0.287085" stroke-miterlimit="10"/>
<path d="M127.374 71.328L122.78 65.582" stroke="black" stroke-width="0.287085" stroke-miterlimit="10"/>
<path d="M125.817 70.7563C125.817 71.0715 125.55 71.3271 125.221 71.3271C124.892 71.3271 124.625 71.0715 124.625 70.7563C124.625 70.441 124.892 70.1855 125.221 70.1855C125.55 70.1855 125.817 70.441 125.817 70.7563Z" stroke="black" stroke-width="0.287085" stroke-miterlimit="10"/>
<path d="M158.734 71.9727C157.295 74.0239 155.826 76.1444 155.379 78.5295C155.173 79.6297 155.181 80.4572 155.201 81.5725C155.226 82.9198 155.378 83.8766 155.514 85.2202C155.548 85.559 155.477 87.2489 156.071 87.2027C156.247 87.189 156.379 87.0576 156.483 86.9308C156.896 86.4291 157.18 85.8452 157.311 85.2347C157.496 87.1278 157.68 89.0209 157.865 90.914C157.92 91.4807 157.983 92.0696 158.311 92.5575C158.524 92.8738 159.005 92.8749 159.383 92.961C159.47 92.9808 159.559 93.0015 159.632 93.0471C159.727 93.1054 159.785 93.1976 159.843 93.2857C160.017 93.5534 160.374 94.0525 160.781 93.7641C160.96 93.6371 161.033 93.4286 161.096 93.2329C161.245 92.7747 161.394 92.3162 161.543 91.858C161.571 91.7715 161.6 91.6839 161.651 91.6064C161.822 91.3475 162.154 91.207 162.32 90.942C162.463 90.7123 162.592 90.4392 162.693 90.1933C162.959 89.5524 162.982 88.8584 163.127 88.1932C163.156 88.0597 163.191 87.9241 163.27 87.8075C163.335 87.7112 163.428 87.6318 163.503 87.5411C163.674 87.3345 163.747 87.0777 163.812 86.8275C164.134 85.578 164.313 84.2498 164.622 82.9771C164.945 81.6473 165.519 80.4279 166.126 79.1852" fill="#D16159"/>
<path d="M157.261 85.6733C157.046 84.5274 156.719 83.398 156.287 82.3018" stroke="black" stroke-width="0.287085" stroke-miterlimit="10"/>
<path d="M159.555 84.1089C159.938 87.0416 159.921 90.0156 159.504 92.9447" stroke="black" stroke-width="0.287085" stroke-miterlimit="10"/>
<path d="M162.193 84.7412C162.241 87.5495 161.889 90.3632 161.147 93.0933" stroke="black" stroke-width="0.287085" stroke-miterlimit="10"/>
<path d="M163.396 84.5918C163.515 85.8579 163.199 87.2973 162.777 88.5257" stroke="black" stroke-width="0.287085" stroke-miterlimit="10"/>
<path d="M149.517 27.4468C149.517 27.4468 154.134 28.3497 156.023 28.6641C161.332 29.5478 165.97 32.9172 170.135 36.0039C173.528 38.5183 176.712 41.2903 179.648 44.2859C182.453 47.1479 185.438 50.3055 186.73 54.1069C187.84 57.3717 186.663 60.5857 184.652 63.276C182.81 65.741 180.429 67.9146 178.164 70.019C174.354 73.5582 166.52 81.0852 166.52 81.0852L158.049 72.5508L171.491 54.6504L152.837 45.2719" fill="#735D9D"/>
<path d="M174.722 55.9834C176.634 55.6712 178.582 55.5688 180.518 55.6787" stroke="black" stroke-width="0.287085" stroke-miterlimit="10"/>
<path d="M175.138 54.4893C175.946 53.9477 176.905 53.6389 177.876 53.4722C178.847 53.3055 179.838 53.2741 180.824 53.2446" stroke="black" stroke-width="0.287085" stroke-miterlimit="10"/>
<path d="M160.39 69.4302L169.433 78.2288" stroke="black" stroke-width="0.287085" stroke-miterlimit="10"/>
<path d="M160.036 74.5519L165.971 67.7175" stroke="black" stroke-width="0.287085" stroke-miterlimit="10"/>
<path d="M162.774 74.3637C163.104 74.3637 163.371 74.1081 163.371 73.7929C163.371 73.4777 163.104 73.2222 162.774 73.2222C162.445 73.2222 162.178 73.4777 162.178 73.7929C162.178 74.1081 162.445 74.3637 162.774 74.3637Z" stroke="black" stroke-width="0.287085" stroke-miterlimit="10"/>
<path d="M134.755 25.512L131.123 28.1046L134.915 38.0308L141.891 33.5298L134.755 25.512Z" fill="#735D9D"/>
<path d="M148.872 25.9966L152.654 28.0923L148.694 38.0315L142.043 33.5305L148.872 25.9966Z" fill="#735D9D"/>
<path d="M152.654 28.0925L148.694 38.0317L142.043 33.5307L134.915 38.0317L131.123 28.1055" stroke="black" stroke-width="0.287085" stroke-miterlimit="10"/>
<path d="M156.988 44.3521H148.336V45.25H156.988V44.3521Z" stroke="black" stroke-width="0.287085" stroke-miterlimit="10"/>
<path d="M161.816 49.7848C161.816 49.7848 162.679 43.1464 163.007 41.8362" stroke="black" stroke-width="0.287085" stroke-miterlimit="10"/>
<path d="M122.776 49.543L117.651 55.4328C117.332 55.3352 104.734 70.4512 104.734 70.4512L111.091 74.5504C111.091 74.5504 124.526 62.6414 126.374 60.2059C128.222 57.7704 126.236 52.7311 122.776 49.543Z" fill="#E27769"/>
<path d="M118.144 54.7778C119.539 53.7189 121.165 52.9398 122.886 52.5054" stroke="black" stroke-width="0.287085" stroke-miterlimit="10"/>
<path d="M107.044 67.8628C105.521 69.4111 103.709 70.8148 102.882 72.7885C102.322 74.1231 102.27 75.6009 102.337 77.0375C102.372 77.7888 102.438 78.5384 102.474 79.2896C102.492 79.6645 102.504 80.0397 102.5 80.4148C102.498 80.5857 102.356 81.2948 102.529 81.3819C102.902 81.57 103.37 81.1065 103.533 80.8419C103.909 80.2307 104.022 79.5009 104.017 78.7914C104.016 78.6115 104.034 78.3894 104.205 78.3168C104.41 78.2304 104.612 78.4416 104.716 78.6316C105.374 79.8345 105.48 80.9231 105.728 82.2599C105.878 83.0676 105.999 84.6116 106.308 85.3766C106.571 86.0263 107.142 86.7028 107.712 86.3142C107.822 86.2651 108.223 86.6918 108.315 86.3602C108.605 85.3159 108.417 84.1939 108.728 83.1601C108.803 82.91 109.086 81.6219 109.141 81.3668C109.448 79.9263 109.581 79.3719 109.963 77.8597C110.208 76.8878 110.636 76.0109 111.056 75.1045C111.486 74.1786 111.959 73.2684 112.535 72.4171" fill="#E27769"/>
<path d="M104.554 78.568C104.248 78.1097 103.95 77.6497 103.659 77.1877" stroke="black" stroke-width="0.287085" stroke-miterlimit="10"/>
<path d="M107.334 79.3486C107.763 82.508 107.659 84.0149 107.645 86.3591" stroke="black" stroke-width="0.287085" stroke-miterlimit="10"/>
<path d="M108.851 79.0879C108.589 79.764 108.6 80.5041 108.573 81.2247C108.538 82.161 108.534 83.9026 108.534 83.9026" stroke="black" stroke-width="0.287085" stroke-miterlimit="10"/>
<path d="M183.628 64.5364C185.227 66.2419 187.141 67.7988 187.98 69.9454C188.547 71.397 188.563 72.9903 188.452 74.5364C188.394 75.345 188.303 76.1508 188.244 76.9592C188.214 77.3625 188.192 77.7665 188.186 78.1709C188.183 78.355 188.317 79.1226 188.128 79.212C187.721 79.4057 187.23 78.8946 187.062 78.6055C186.673 77.9378 186.571 77.1487 186.595 76.3846C186.601 76.1909 186.588 75.9511 186.405 75.8686C186.186 75.7704 185.963 75.993 185.846 76.1951C185.105 77.475 184.962 78.6451 184.659 80.079C184.476 80.9455 184.304 82.6059 183.95 83.4224C183.649 84.1159 183.016 84.8307 182.413 84.3979C182.295 84.3422 181.852 84.7922 181.761 84.4325C181.477 83.3003 181.709 82.0962 181.403 80.9748C181.328 80.7035 181.058 79.3089 181.006 79.0328C180.714 77.4733 180.586 76.8727 180.215 75.2343C179.977 74.1813 179.54 73.2259 179.111 72.2393C178.674 71.2312 178.188 70.2388 177.59 69.3076" fill="#E89274"/>
<path d="M178.714 57.9129C176.431 56.5369 167.131 52.4597 167.131 52.4597C166.487 55.8745 168.008 59.5986 170.062 62.3787C173.616 67.189 178.08 71.2077 182.107 75.6385L186.732 68.2997C186.732 68.2997 180.996 59.289 178.714 57.9129Z" fill="#E89274"/>
<path d="M186.015 76.1312C186.357 75.6451 186.691 75.1566 187.016 74.6663" stroke="black" stroke-width="0.287085" stroke-miterlimit="10"/>
<path d="M183.002 76.9033C182.455 80.2965 182.527 81.9223 182.479 84.4483" stroke="black" stroke-width="0.287085" stroke-miterlimit="10"/>
<path d="M181.376 76.5864C181.641 77.3212 181.609 78.1182 181.619 78.8955C181.631 79.905 181.589 81.7813 181.589 81.7813" stroke="black" stroke-width="0.287085" stroke-miterlimit="10"/>
<path d="M155.602 8.34912C155.782 9.22568 155.595 10.1425 155.237 10.9676C154.879 11.7927 154.356 12.541 153.836 13.2834" stroke="black" stroke-width="0.287085" stroke-miterlimit="10"/>
<path d="M157.508 12.4216C156.643 13.6515 155.622 14.7807 154.474 15.7771" stroke="black" stroke-width="0.287085" stroke-miterlimit="10"/>
<path d="M289.406 20.0352C288.838 23.2059 287.886 26.3135 286.574 29.2755" stroke="black" stroke-width="0.287085" stroke-miterlimit="10"/>
<path d="M293.002 17.7151C292.643 20.0747 291.99 22.5085 290.977 24.6568" stroke="black" stroke-width="0.287085" stroke-miterlimit="10"/>
</svg>
