<svg width="41" height="41" viewBox="0 0 41 41" fill="none" xmlns="http://www.w3.org/2000/svg">
<path d="M20.7971 13.5037C17.1356 13.5037 14.1476 16.4918 14.1476 20.1533C14.1476 23.8148 17.1356 26.8029 20.7971 26.8029C24.4586 26.8029 27.4466 23.8148 27.4466 20.1533C27.4466 16.4918 24.4586 13.5037 20.7971 13.5037ZM40.7407 20.1533C40.7407 17.3997 40.7656 14.671 40.611 11.9223C40.4563 8.7297 39.728 5.89625 37.3935 3.56164C35.0539 1.22205 32.2255 0.498717 29.0329 0.344075C26.2793 0.189432 23.5507 0.214374 20.8021 0.214374C18.0485 0.214374 15.3199 0.189432 12.5713 0.344075C9.37871 0.498717 6.54531 1.22703 4.21075 3.56164C1.8712 5.90123 1.14788 8.7297 0.993242 11.9223C0.838602 14.676 0.863544 17.4047 0.863544 20.1533C0.863544 22.9019 0.838602 25.6356 0.993242 28.3843C1.14788 31.5769 1.87619 34.4104 4.21075 36.745C6.5503 39.0846 9.37871 39.8079 12.5713 39.9625C15.3249 40.1172 18.0535 40.0922 20.8021 40.0922C23.5557 40.0922 26.2843 40.1172 29.0329 39.9625C32.2255 39.8079 35.0589 39.0796 37.3935 36.745C39.733 34.4054 40.4563 31.5769 40.611 28.3843C40.7706 25.6356 40.7407 22.9069 40.7407 20.1533ZM20.7971 30.3847C15.1353 30.3847 10.5659 25.8152 10.5659 20.1533C10.5659 14.4914 15.1353 9.92194 20.7971 9.92194C26.4589 9.92194 31.0283 14.4914 31.0283 20.1533C31.0283 25.8152 26.4589 30.3847 20.7971 30.3847ZM31.4473 11.8924C30.1254 11.8924 29.0579 10.8249 29.0579 9.50291C29.0579 8.18097 30.1254 7.11343 31.4473 7.11343C32.7692 7.11343 33.8367 8.18097 33.8367 9.50291C33.8371 9.81681 33.7756 10.1277 33.6557 10.4178C33.5357 10.7079 33.3597 10.9714 33.1378 11.1934C32.9158 11.4154 32.6522 11.5914 32.3622 11.7113C32.0721 11.8312 31.7612 11.8928 31.4473 11.8924Z" fill="white"/>
</svg>
