<svg width="44" height="43" viewBox="0 0 44 43" fill="none" xmlns="http://www.w3.org/2000/svg">
<path d="M9.20705 0.172363C4.61796 0.172363 0.862061 3.92818 0.862061 8.51736V34.4133C0.862061 39.0024 4.61788 42.757 9.20705 42.757H35.103C39.6922 42.757 43.4467 39.0025 43.4467 34.4133V8.51736C43.4467 3.92826 39.6922 0.172363 35.103 0.172363H9.20705ZM11.3059 7.19968C13.5063 7.19968 14.8617 8.64419 14.9035 10.543C14.9035 12.3998 13.5062 13.8849 11.2634 13.8849H11.2221C9.06361 13.8849 7.66848 12.3999 7.66848 10.543C7.66848 8.64423 9.10583 7.19968 11.3059 7.19968H11.3059ZM30.2678 16.0744C34.4995 16.0744 37.6718 18.8402 37.6718 24.784V35.88H31.2407V25.5279C31.2407 22.9266 30.31 21.1518 27.9826 21.1518C26.2059 21.1518 25.1468 22.348 24.6819 23.5036C24.512 23.917 24.4703 24.4944 24.4703 25.0728V35.88H18.0392C18.0392 35.88 18.1236 18.3439 18.0392 16.5282H24.4716V19.2686C25.3262 17.95 26.8549 16.0743 30.2678 16.0743V16.0744ZM8.04782 16.5296H14.4789V35.88H8.04782V16.5296Z" fill="white"/>
</svg>
