<svg width="1080" height="1080" viewBox="0 0 1080 1080" fill="none" xmlns="http://www.w3.org/2000/svg">
<g clip-path="url(#clip0_99_404)">
<rect width="1080" height="1080" rx="540" fill="white"/>
<path d="M139.669 616.5V571.75H142.669C147.002 586.25 152.836 596.417 160.169 602.25C167.502 608.083 176.669 611 187.669 611C204.669 611 213.169 605.583 213.169 594.75C213.169 590.083 211.086 586.583 206.919 584.25C200.419 580.583 192.086 577.75 181.919 575.75C170.586 572.75 161.086 568.75 153.419 563.75C144.252 557.75 139.669 548.25 139.669 535.25C139.669 522.25 143.669 511.917 151.669 504.25C159.669 496.417 170.336 492.5 183.669 492.5C191.836 492.5 200.252 494.417 208.919 498.25C212.086 499.583 214.502 500.25 216.169 500.25C217.836 500.25 219.252 499.667 220.419 498.5C221.586 497.333 223.002 495.167 224.669 492H227.419V530.25H224.419C215.919 508.583 202.752 497.75 184.919 497.75C177.086 497.75 171.252 499.167 167.419 502C163.586 504.667 161.669 508.083 161.669 512.25C161.669 514.75 162.252 516.75 163.419 518.25C164.586 519.583 165.502 520.583 166.169 521.25C166.836 521.917 167.919 522.667 169.419 523.5C170.919 524.167 172.169 524.75 173.169 525.25C174.169 525.583 175.669 526.083 177.669 526.75C179.836 527.417 181.419 527.833 182.419 528C193.752 530.833 201.919 533.333 206.919 535.5C211.919 537.5 216.669 540 221.169 543C230.336 549.333 234.919 559.583 234.919 573.75C234.919 587.75 230.752 598.417 222.419 605.75C214.086 612.917 202.669 616.5 188.169 616.5C177.836 616.5 167.836 614.083 158.169 609.25C156.169 607.917 154.586 607.25 153.419 607.25C149.752 607.25 146.169 610.333 142.669 616.5H139.669ZM324.067 614V609.5H335.567L307.317 551.5L302.567 552.75V609.5H314.067V614H242.317V609.5H256.067V431H241.317V426.5H302.567V547.75L306.567 546.25L362.817 499.5H339.317V495H388.567V499.5H371.067L341.317 524.75L384.567 609.5H393.567V614H324.067ZM434.097 477.75C425.263 477.75 418.93 475.5 415.097 471C411.43 466.5 409.597 460.917 409.597 454.25C409.597 447.583 411.597 442.083 415.597 437.75C419.763 433.417 426.013 431.25 434.347 431.25C442.68 431.25 449.013 433.25 453.347 437.25C457.68 441.083 459.847 446.667 459.847 454C459.847 461.167 457.763 466.917 453.597 471.25C449.43 475.583 442.93 477.75 434.097 477.75ZM396.347 495H457.597V609.5H471.597V614H397.347V609.5H411.097V499.5H396.347V495ZM475.692 426.5H536.942V609.5H550.942V614H476.692V609.5H490.442V431H475.692V426.5ZM554.794 426.5H616.044V609.5H630.044V614H555.794V609.5H569.544V431H554.794V426.5ZM700.146 560.75C700.146 576.083 702.729 587.833 707.896 596C713.229 604.167 722.729 608.25 736.396 608.25C750.062 608.25 760.562 604 767.896 595.5C775.229 587 778.896 574.083 778.896 556.75V443.75H762.646V439H799.146V443.75H785.396V555C785.396 575.667 780.812 591.083 771.646 601.25C762.479 611.417 746.229 616.5 722.896 616.5C699.729 616.5 681.979 611.667 669.646 602C657.479 592.333 651.396 575.75 651.396 552.25V443.75H637.646V439H716.396V443.75H700.146V560.75ZM894.358 546.75C894.358 529.583 893.525 518.083 891.858 512.25C890.192 506.25 886.942 503.25 882.108 503.25C877.275 503.25 872.942 506.417 869.108 512.75C865.275 518.917 863.358 527.25 863.358 537.75V583.5C863.358 590.667 864.775 596.75 867.608 601.75C870.442 606.75 874.608 609.25 880.108 609.25C885.608 609.25 889.358 605.583 891.358 598.25C893.358 590.917 894.358 578.083 894.358 559.75V546.75ZM862.858 495V514.75C869.358 499.917 880.858 492.5 897.358 492.5C911.692 492.5 922.775 497.667 930.608 508C938.608 518.333 942.608 534 942.608 555C942.608 576 938.275 591.5 929.608 601.5C921.108 611.5 908.275 616.5 891.108 616.5C883.108 616.5 877.108 615.5 873.108 613.5C869.108 611.5 865.858 608.417 863.358 604.25V669H895.608V673.5H803.108V669H816.858V499.5H803.608V495H862.858Z" fill="#2C2A40"/>
</g>
<defs>
<clipPath id="clip0_99_404">
<rect width="1080" height="1080" rx="540" fill="white"/>
</clipPath>
</defs>
</svg>
